<?xml version="1.0" encoding="UTF-8" standalone="no"?>
<!DOCTYPE svg PUBLIC "-//W3C//DTD SVG 1.1//EN"
 "http://www.w3.org/Graphics/SVG/1.1/DTD/svg11.dtd">
<!-- Generated by graphviz version 14.1.1 (20251213.1925)
 -->
<!-- Title: lab1_gr1.Configuration.AMProfile.MainProfile Pages: 1 -->
<svg width="162pt" height="160pt"
 viewBox="0.00 0.00 162.00 160.00" xmlns="http://www.w3.org/2000/svg" xmlns:xlink="http://www.w3.org/1999/xlink">
<g id="graph0" class="graph" transform="scale(1 1) rotate(0) translate(4 156)">
<title>lab1_gr1.Configuration.AMProfile.MainProfile</title>
<!-- Node1 -->
<g id="Node000001" class="node">
<title>Node1</title>
<g id="a_Node000001"><a xlink:title=" ">
<polygon fill="#999999" stroke="none" points="154.25,-64 0,-64 0,0 154.25,0 154.25,-64"/>
<text xml:space="preserve" text-anchor="start" x="4" y="-50.5" font-family="Helvetica,sans-Serif" font-size="10.00">lab1_gr1.Configuration.AMProfile.</text>
<text xml:space="preserve" text-anchor="start" x="52.75" y="-38.5" font-family="Helvetica,sans-Serif" font-size="10.00">MainProfile</text>
<text xml:space="preserve" text-anchor="start" x="75.62" y="-22.5" font-family="Helvetica,sans-Serif" font-size="10.00"> </text>
<text xml:space="preserve" text-anchor="start" x="24.38" y="-6.5" font-family="Helvetica,sans-Serif" font-size="10.00">+</text>
<text xml:space="preserve" text-anchor="start" x="54.75" y="-6.5" font-family="Helvetica,sans-Serif" font-size="10.00">MainProfile()</text>
<polygon fill="#666666" stroke="#666666" points="0,-34 0,-34 154.25,-34 154.25,-34 0,-34"/>
<polygon fill="#666666" stroke="#666666" points="0,-18 0,-18 154.25,-18 154.25,-18 0,-18"/>
<polygon fill="none" stroke="#666666" points="0,0 0,-64 154.25,-64 154.25,0 0,0"/>
</a>
</g>
</g>
<!-- Node2 -->
<g id="Node000002" class="node">
<title>Node2</title>
<g id="a_Node000002"><a xlink:title=" ">
<polygon fill="white" stroke="none" points="95,-152 59.25,-152 59.25,-100 95,-100 95,-152"/>
<text xml:space="preserve" text-anchor="start" x="63.25" y="-138.5" font-family="Helvetica,sans-Serif" font-size="10.00">Profile</text>
<text xml:space="preserve" text-anchor="start" x="75.62" y="-122.5" font-family="Helvetica,sans-Serif" font-size="10.00"> </text>
<text xml:space="preserve" text-anchor="start" x="75.62" y="-106.5" font-family="Helvetica,sans-Serif" font-size="10.00"> </text>
<polygon fill="#666666" stroke="#666666" points="59.25,-134 59.25,-134 95,-134 95,-134 59.25,-134"/>
<polygon fill="#666666" stroke="#666666" points="59.25,-118 59.25,-118 95,-118 95,-118 59.25,-118"/>
<polygon fill="none" stroke="#666666" points="59.25,-100 59.25,-152 95,-152 95,-100 59.25,-100"/>
</a>
</g>
</g>
<!-- Node2&#45;&gt;Node1 -->
<g id="edge1_Node000001_Node000002" class="edge">
<title>Node2&#45;&gt;Node1</title>
<g id="a_edge1_Node000001_Node000002"><a xlink:title=" ">
<path fill="none" stroke="#63b8ff" d="M77.12,-89.06C77.12,-80.78 77.12,-72.04 77.12,-63.98"/>
<polygon fill="none" stroke="#63b8ff" points="73.63,-88.83 77.13,-98.83 80.63,-88.83 73.63,-88.83"/>
</a>
</g>
</g>
</g>
</svg>
