<?xml version="1.0" encoding="UTF-8" standalone="no"?>
<!DOCTYPE svg PUBLIC "-//W3C//DTD SVG 1.1//EN"
 "http://www.w3.org/Graphics/SVG/1.1/DTD/svg11.dtd">
<!-- Generated by graphviz version 14.1.1 (20251213.1925)
 -->
<!-- Title: lab1_gr1.Services.RecipeIngredientService Pages: 1 -->
<svg width="356pt" height="854pt"
 viewBox="0.00 0.00 356.00 854.00" xmlns="http://www.w3.org/2000/svg" xmlns:xlink="http://www.w3.org/1999/xlink">
<g id="graph0" class="graph" transform="scale(1 1) rotate(0) translate(4 850)">
<title>lab1_gr1.Services.RecipeIngredientService</title>
<!-- Node1 -->
<g id="Node000001" class="node">
<title>Node1</title>
<g id="a_Node000001"><a xlink:title="Serwis odpowiedzialny za zarządzanie składnikami przypisanymi do przepisów. Umożliwia pobieranie,...">
<polygon fill="#999999" stroke="none" points="302.88,-232 127.38,-232 127.38,0 302.88,0 302.88,-232"/>
<text xml:space="preserve" text-anchor="start" x="159.25" y="-218.5" font-family="Helvetica,sans-Serif" font-size="10.00">lab1_gr1.Services.Recipe</text>
<text xml:space="preserve" text-anchor="start" x="177.25" y="-206.5" font-family="Helvetica,sans-Serif" font-size="10.00">IngredientService</text>
<text xml:space="preserve" text-anchor="start" x="213.62" y="-190.5" font-family="Helvetica,sans-Serif" font-size="10.00"> </text>
<text xml:space="preserve" text-anchor="start" x="131.38" y="-174.5" font-family="Helvetica,sans-Serif" font-size="10.00">+</text>
<text xml:space="preserve" text-anchor="start" x="141.38" y="-174.5" font-family="Helvetica,sans-Serif" font-size="10.00">RecipeIngredientService</text>
<text xml:space="preserve" text-anchor="start" x="141.38" y="-162.5" font-family="Helvetica,sans-Serif" font-size="10.00">(MyDBContext dbContext,</text>
<text xml:space="preserve" text-anchor="start" x="141.38" y="-150.5" font-family="Helvetica,sans-Serif" font-size="10.00"> IMapper mapper)</text>
<text xml:space="preserve" text-anchor="start" x="131.38" y="-134.5" font-family="Helvetica,sans-Serif" font-size="10.00">+</text>
<text xml:space="preserve" text-anchor="start" x="141.38" y="-134.5" font-family="Helvetica,sans-Serif" font-size="10.00">async Task&lt; IEnumerable</text>
<text xml:space="preserve" text-anchor="start" x="141.38" y="-122.5" font-family="Helvetica,sans-Serif" font-size="10.00">&lt; CreateRecipeIngredientVM</text>
<text xml:space="preserve" text-anchor="start" x="141.38" y="-110.5" font-family="Helvetica,sans-Serif" font-size="10.00"> &gt; &gt; GetIngredientsForRecipeAsync</text>
<text xml:space="preserve" text-anchor="start" x="141.38" y="-98.5" font-family="Helvetica,sans-Serif" font-size="10.00">(int recipeId)</text>
<text xml:space="preserve" text-anchor="start" x="131.38" y="-82.5" font-family="Helvetica,sans-Serif" font-size="10.00">+</text>
<text xml:space="preserve" text-anchor="start" x="141.38" y="-82.5" font-family="Helvetica,sans-Serif" font-size="10.00">async Task AddIngredient</text>
<text xml:space="preserve" text-anchor="start" x="141.38" y="-70.5" font-family="Helvetica,sans-Serif" font-size="10.00">ToRecipeAsync(int recipeId,</text>
<text xml:space="preserve" text-anchor="start" x="141.38" y="-58.5" font-family="Helvetica,sans-Serif" font-size="10.00"> int ingredientId, string</text>
<text xml:space="preserve" text-anchor="start" x="141.38" y="-46.5" font-family="Helvetica,sans-Serif" font-size="10.00"> quantity)</text>
<text xml:space="preserve" text-anchor="start" x="131.38" y="-30.5" font-family="Helvetica,sans-Serif" font-size="10.00">+</text>
<text xml:space="preserve" text-anchor="start" x="141.38" y="-30.5" font-family="Helvetica,sans-Serif" font-size="10.00">async Task RemoveIngredient</text>
<text xml:space="preserve" text-anchor="start" x="141.38" y="-18.5" font-family="Helvetica,sans-Serif" font-size="10.00">FromRecipeAsync(int recipeId,</text>
<text xml:space="preserve" text-anchor="start" x="141.38" y="-6.5" font-family="Helvetica,sans-Serif" font-size="10.00"> int ingredientId)</text>
<polygon fill="#666666" stroke="#666666" points="127.38,-202 127.38,-202 302.88,-202 302.88,-202 127.38,-202"/>
<polygon fill="#666666" stroke="#666666" points="127.38,-186 127.38,-186 302.88,-186 302.88,-186 127.38,-186"/>
<polygon fill="none" stroke="#666666" points="127.38,0 127.38,-232 302.88,-232 302.88,0 127.38,0"/>
</a>
</g>
</g>
<!-- Node2 -->
<g id="Node000002" class="node">
<title>Node2</title>
<g id="a_Node000002"><a xlink:href="classlab1__gr1_1_1_services_1_1_base_service.html" target="_top" xlink:title="Klasa bazowa dla wszystkich serwisów aplikacji. Zapewnia dostęp do kontekstu bazy danych oraz mechani...">
<polygon fill="white" stroke="none" points="154.5,-385 9.75,-385 9.75,-321 154.5,-321 154.5,-385"/>
<text xml:space="preserve" text-anchor="start" x="54.38" y="-371.5" font-family="Helvetica,sans-Serif" font-size="10.00">BaseService</text>
<text xml:space="preserve" text-anchor="start" x="13.75" y="-355.5" font-family="Helvetica,sans-Serif" font-size="10.00">#</text>
<text xml:space="preserve" text-anchor="start" x="23" y="-355.5" font-family="Helvetica,sans-Serif" font-size="10.00">readonly IMapper _mapper</text>
<text xml:space="preserve" text-anchor="start" x="13.75" y="-339.5" font-family="Helvetica,sans-Serif" font-size="10.00">#</text>
<text xml:space="preserve" text-anchor="start" x="23" y="-339.5" font-family="Helvetica,sans-Serif" font-size="10.00">BaseService(MyDBContext</text>
<text xml:space="preserve" text-anchor="start" x="23" y="-327.5" font-family="Helvetica,sans-Serif" font-size="10.00"> dbContext, IMapper mapper)</text>
<polygon fill="#666666" stroke="#666666" points="9.75,-367 9.75,-367 154.5,-367 154.5,-367 9.75,-367"/>
<polygon fill="#666666" stroke="#666666" points="9.75,-351 9.75,-351 21,-351 21,-351 9.75,-351"/>
<polygon fill="#666666" stroke="#666666" points="21,-351 21,-351 154.5,-351 154.5,-351 21,-351"/>
<polygon fill="none" stroke="#666666" points="9.75,-321 9.75,-385 154.5,-385 154.5,-321 9.75,-321"/>
</a>
</g>
</g>
<!-- Node2&#45;&gt;Node1 -->
<g id="edge1_Node000001_Node000002" class="edge">
<title>Node2&#45;&gt;Node1</title>
<g id="a_edge1_Node000001_Node000002"><a xlink:title=" ">
<path fill="none" stroke="#63b8ff" d="M105.02,-311.55C117.61,-289.3 133.93,-260.47 150.13,-231.84"/>
<polygon fill="none" stroke="#63b8ff" points="102.14,-309.53 100.26,-319.96 108.23,-312.98 102.14,-309.53"/>
</a>
</g>
</g>
<!-- Node3 -->
<g id="Node000003" class="node">
<title>Node3</title>
<g id="a_Node000003"><a xlink:href="classlab1__gr1_1_1_models_1_1_my_d_b_context.html" target="_top" xlink:title="Kontekst bazy danych dla aplikacji ListaZakupow. Zawiera DbSet&#45;y dla użytkowników,...">
<polygon fill="white" stroke="none" points="164.25,-757 0,-757 0,-485 164.25,-485 164.25,-757"/>
<text xml:space="preserve" text-anchor="start" x="13.88" y="-743.5" font-family="Helvetica,sans-Serif" font-size="10.00">lab1_gr1.Models.MyDBContext</text>
<text xml:space="preserve" text-anchor="start" x="4" y="-727.5" font-family="Helvetica,sans-Serif" font-size="10.00">+</text>
<text xml:space="preserve" text-anchor="start" x="14" y="-727.5" font-family="Helvetica,sans-Serif" font-size="10.00">virtual DbSet&lt; User</text>
<text xml:space="preserve" text-anchor="start" x="14" y="-715.5" font-family="Helvetica,sans-Serif" font-size="10.00"> &gt; Users</text>
<text xml:space="preserve" text-anchor="start" x="4" y="-699.5" font-family="Helvetica,sans-Serif" font-size="10.00">+</text>
<text xml:space="preserve" text-anchor="start" x="14" y="-699.5" font-family="Helvetica,sans-Serif" font-size="10.00">virtual DbSet&lt; Recipe</text>
<text xml:space="preserve" text-anchor="start" x="14" y="-687.5" font-family="Helvetica,sans-Serif" font-size="10.00"> &gt; Recipes</text>
<text xml:space="preserve" text-anchor="start" x="4" y="-671.5" font-family="Helvetica,sans-Serif" font-size="10.00">+</text>
<text xml:space="preserve" text-anchor="start" x="14" y="-671.5" font-family="Helvetica,sans-Serif" font-size="10.00">virtual DbSet&lt; Ingredient</text>
<text xml:space="preserve" text-anchor="start" x="14" y="-659.5" font-family="Helvetica,sans-Serif" font-size="10.00"> &gt; Ingredients</text>
<text xml:space="preserve" text-anchor="start" x="4" y="-643.5" font-family="Helvetica,sans-Serif" font-size="10.00">+</text>
<text xml:space="preserve" text-anchor="start" x="14" y="-643.5" font-family="Helvetica,sans-Serif" font-size="10.00">virtual DbSet&lt; RecipeIngredient</text>
<text xml:space="preserve" text-anchor="start" x="14" y="-631.5" font-family="Helvetica,sans-Serif" font-size="10.00"> &gt; RecipeIngredients</text>
<text xml:space="preserve" text-anchor="start" x="4" y="-615.5" font-family="Helvetica,sans-Serif" font-size="10.00">+</text>
<text xml:space="preserve" text-anchor="start" x="14" y="-615.5" font-family="Helvetica,sans-Serif" font-size="10.00">virtual DbSet&lt; RecipeSchedule</text>
<text xml:space="preserve" text-anchor="start" x="14" y="-603.5" font-family="Helvetica,sans-Serif" font-size="10.00"> &gt; RecipeSchedules</text>
<text xml:space="preserve" text-anchor="start" x="4" y="-587.5" font-family="Helvetica,sans-Serif" font-size="10.00">+</text>
<text xml:space="preserve" text-anchor="start" x="14" y="-587.5" font-family="Helvetica,sans-Serif" font-size="10.00">virtual DbSet&lt; ShoppingList</text>
<text xml:space="preserve" text-anchor="start" x="14" y="-575.5" font-family="Helvetica,sans-Serif" font-size="10.00"> &gt; ShoppingLists</text>
<text xml:space="preserve" text-anchor="start" x="4" y="-559.5" font-family="Helvetica,sans-Serif" font-size="10.00">+</text>
<text xml:space="preserve" text-anchor="start" x="14" y="-559.5" font-family="Helvetica,sans-Serif" font-size="10.00">virtual DbSet&lt; ShoppingList</text>
<text xml:space="preserve" text-anchor="start" x="14" y="-547.5" font-family="Helvetica,sans-Serif" font-size="10.00">Item &gt; ShoppingListItems</text>
<text xml:space="preserve" text-anchor="start" x="4" y="-531.5" font-family="Helvetica,sans-Serif" font-size="10.00">+</text>
<text xml:space="preserve" text-anchor="start" x="14" y="-531.5" font-family="Helvetica,sans-Serif" font-size="10.00">MyDBContext(DbContextOptions</text>
<text xml:space="preserve" text-anchor="start" x="14" y="-519.5" font-family="Helvetica,sans-Serif" font-size="10.00">&lt; MyDBContext &gt; options)</text>
<text xml:space="preserve" text-anchor="start" x="4.38" y="-503.5" font-family="Helvetica,sans-Serif" font-size="10.00">#</text>
<text xml:space="preserve" text-anchor="start" x="14" y="-503.5" font-family="Helvetica,sans-Serif" font-size="10.00">override void OnModelCreating</text>
<text xml:space="preserve" text-anchor="start" x="14" y="-491.5" font-family="Helvetica,sans-Serif" font-size="10.00">(ModelBuilder modelBuilder)</text>
<polygon fill="#666666" stroke="#666666" points="0,-739 0,-739 164.25,-739 164.25,-739 0,-739"/>
<polygon fill="#666666" stroke="#666666" points="0,-543 0,-543 12,-543 12,-543 0,-543"/>
<polygon fill="#666666" stroke="#666666" points="12,-543 12,-543 164.25,-543 164.25,-543 12,-543"/>
<polygon fill="none" stroke="#666666" points="0,-485 0,-757 164.25,-757 164.25,-485 0,-485"/>
</a>
</g>
</g>
<!-- Node3&#45;&gt;Node2 -->
<g id="edge2_Node000002_Node000003" class="edge">
<title>Node3&#45;&gt;Node2</title>
<g id="a_edge2_Node000002_Node000003"><a xlink:title=" ">
<path fill="none" stroke="#63b8ff" d="M82.12,-485.05C82.12,-453.51 82.12,-422.12 82.12,-397.97"/>
<polygon fill="none" stroke="#63b8ff" points="82.13,-397.9 78.13,-391.9 82.13,-385.9 86.13,-391.9 82.13,-397.9"/>
</a>
</g>
<text xml:space="preserve" text-anchor="middle" x="111.38" y="-457.5" font-family="Helvetica,sans-Serif" font-size="10.00" fill="grey"> #_dbContext</text>
</g>
<!-- Node4 -->
<g id="Node000004" class="node">
<title>Node4</title>
<g id="a_Node000004"><a xlink:title=" ">
<polygon fill="white" stroke="none" points="109.75,-846 54.5,-846 54.5,-794 109.75,-794 109.75,-846"/>
<text xml:space="preserve" text-anchor="start" x="58.5" y="-832.5" font-family="Helvetica,sans-Serif" font-size="10.00">DbContext</text>
<text xml:space="preserve" text-anchor="start" x="80.62" y="-816.5" font-family="Helvetica,sans-Serif" font-size="10.00"> </text>
<text xml:space="preserve" text-anchor="start" x="80.62" y="-800.5" font-family="Helvetica,sans-Serif" font-size="10.00"> </text>
<polygon fill="#666666" stroke="#666666" points="54.5,-828 54.5,-828 109.75,-828 109.75,-828 54.5,-828"/>
<polygon fill="#666666" stroke="#666666" points="54.5,-812 54.5,-812 109.75,-812 109.75,-812 54.5,-812"/>
<polygon fill="none" stroke="#666666" points="54.5,-794 54.5,-846 109.75,-846 109.75,-794 54.5,-794"/>
</a>
</g>
</g>
<!-- Node4&#45;&gt;Node3 -->
<g id="edge3_Node000003_Node000004" class="edge">
<title>Node4&#45;&gt;Node3</title>
<g id="a_edge3_Node000003_Node000004"><a xlink:title=" ">
<path fill="none" stroke="#63b8ff" d="M82.12,-782.81C82.12,-774.92 82.12,-766.12 82.12,-756.81"/>
<polygon fill="none" stroke="#63b8ff" points="78.63,-782.54 82.13,-792.54 85.63,-782.54 78.63,-782.54"/>
</a>
</g>
</g>
<!-- Node5 -->
<g id="Node000005" class="node">
<title>Node5</title>
<g id="a_Node000005"><a xlink:href="interfacelab1__gr1_1_1_interfaces_1_1_i_recipe_ingredient_service.html" target="_top" xlink:title="Interfejs definiujący metody serwisu obsługującego relację między przepisami a składnikami (wiele&#45;do&#45;...">
<polygon fill="white" stroke="none" points="347.88,-437 172.38,-437 172.38,-269 347.88,-269 347.88,-437"/>
<text xml:space="preserve" text-anchor="start" x="205.38" y="-423.5" font-family="Helvetica,sans-Serif" font-size="10.00">IRecipeIngredientService</text>
<text xml:space="preserve" text-anchor="start" x="258.62" y="-407.5" font-family="Helvetica,sans-Serif" font-size="10.00"> </text>
<text xml:space="preserve" text-anchor="start" x="176.38" y="-391.5" font-family="Helvetica,sans-Serif" font-size="10.00">+</text>
<text xml:space="preserve" text-anchor="start" x="186.38" y="-391.5" font-family="Helvetica,sans-Serif" font-size="10.00">Task&lt; IEnumerable&lt;</text>
<text xml:space="preserve" text-anchor="start" x="186.38" y="-379.5" font-family="Helvetica,sans-Serif" font-size="10.00"> CreateRecipeIngredientVM</text>
<text xml:space="preserve" text-anchor="start" x="186.38" y="-367.5" font-family="Helvetica,sans-Serif" font-size="10.00"> &gt; &gt; GetIngredientsForRecipeAsync</text>
<text xml:space="preserve" text-anchor="start" x="186.38" y="-355.5" font-family="Helvetica,sans-Serif" font-size="10.00">(int recipeId)</text>
<text xml:space="preserve" text-anchor="start" x="176.38" y="-339.5" font-family="Helvetica,sans-Serif" font-size="10.00">+</text>
<text xml:space="preserve" text-anchor="start" x="186.38" y="-339.5" font-family="Helvetica,sans-Serif" font-size="10.00">Task AddIngredientToRecipe</text>
<text xml:space="preserve" text-anchor="start" x="186.38" y="-327.5" font-family="Helvetica,sans-Serif" font-size="10.00">Async(int recipeId, int</text>
<text xml:space="preserve" text-anchor="start" x="186.38" y="-315.5" font-family="Helvetica,sans-Serif" font-size="10.00"> ingredientId, string quantity)</text>
<text xml:space="preserve" text-anchor="start" x="176.38" y="-299.5" font-family="Helvetica,sans-Serif" font-size="10.00">+</text>
<text xml:space="preserve" text-anchor="start" x="186.38" y="-299.5" font-family="Helvetica,sans-Serif" font-size="10.00">Task RemoveIngredientFrom</text>
<text xml:space="preserve" text-anchor="start" x="186.38" y="-287.5" font-family="Helvetica,sans-Serif" font-size="10.00">RecipeAsync(int recipeId,</text>
<text xml:space="preserve" text-anchor="start" x="186.38" y="-275.5" font-family="Helvetica,sans-Serif" font-size="10.00"> int ingredientId)</text>
<polygon fill="#666666" stroke="#666666" points="172.38,-419 172.38,-419 347.88,-419 347.88,-419 172.38,-419"/>
<polygon fill="#666666" stroke="#666666" points="172.38,-403 172.38,-403 347.88,-403 347.88,-403 172.38,-403"/>
<polygon fill="none" stroke="#666666" points="172.38,-269 172.38,-437 347.88,-437 347.88,-269 172.38,-269"/>
</a>
</g>
</g>
<!-- Node5&#45;&gt;Node1 -->
<g id="edge4_Node000001_Node000005" class="edge">
<title>Node5&#45;&gt;Node1</title>
<g id="a_edge4_Node000001_Node000005"><a xlink:title=" ">
<path fill="none" stroke="#63b8ff" d="M242.11,-257.9C240.45,-249.26 238.76,-240.43 237.08,-231.63"/>
<polygon fill="none" stroke="#63b8ff" points="238.66,-258.5 243.98,-267.66 245.53,-257.18 238.66,-258.5"/>
</a>
</g>
</g>
</g>
</svg>
