<?xml version="1.0" encoding="UTF-8" standalone="no"?>
<!DOCTYPE svg PUBLIC "-//W3C//DTD SVG 1.1//EN"
 "http://www.w3.org/Graphics/SVG/1.1/DTD/svg11.dtd">
<!-- Generated by graphviz version 14.1.1 (20251213.1925)
 -->
<!-- Title: lab1_gr1.Migrations.InitialCreate Pages: 1 -->
<svg width="173pt" height="240pt"
 viewBox="0.00 0.00 173.00 240.00" xmlns="http://www.w3.org/2000/svg" xmlns:xlink="http://www.w3.org/1999/xlink">
<g id="graph0" class="graph" transform="scale(1 1) rotate(0) translate(4 236)">
<title>lab1_gr1.Migrations.InitialCreate</title>
<!-- Node1 -->
<g id="Node000001" class="node">
<title>Node1</title>
<g id="a_Node000001"><a xlink:title=" ">
<polygon fill="#999999" stroke="none" points="165,-144 0,-144 0,0 165,0 165,-144"/>
<text xml:space="preserve" text-anchor="start" x="27" y="-130.5" font-family="Helvetica,sans-Serif" font-size="10.00">lab1_gr1.Migrations.Initial</text>
<text xml:space="preserve" text-anchor="start" x="67.88" y="-118.5" font-family="Helvetica,sans-Serif" font-size="10.00">Create</text>
<text xml:space="preserve" text-anchor="start" x="81" y="-102.5" font-family="Helvetica,sans-Serif" font-size="10.00"> </text>
<text xml:space="preserve" text-anchor="start" x="4" y="-86.5" font-family="Helvetica,sans-Serif" font-size="10.00">#</text>
<text xml:space="preserve" text-anchor="start" x="13.25" y="-86.5" font-family="Helvetica,sans-Serif" font-size="10.00">override void Up(Migration</text>
<text xml:space="preserve" text-anchor="start" x="13.25" y="-74.5" font-family="Helvetica,sans-Serif" font-size="10.00">Builder migrationBuilder)</text>
<text xml:space="preserve" text-anchor="start" x="4" y="-58.5" font-family="Helvetica,sans-Serif" font-size="10.00">#</text>
<text xml:space="preserve" text-anchor="start" x="13.25" y="-58.5" font-family="Helvetica,sans-Serif" font-size="10.00">override void Down</text>
<text xml:space="preserve" text-anchor="start" x="13.25" y="-46.5" font-family="Helvetica,sans-Serif" font-size="10.00">(MigrationBuilder migration</text>
<text xml:space="preserve" text-anchor="start" x="13.25" y="-34.5" font-family="Helvetica,sans-Serif" font-size="10.00">Builder)</text>
<text xml:space="preserve" text-anchor="start" x="4" y="-18.5" font-family="Helvetica,sans-Serif" font-size="10.00">#</text>
<text xml:space="preserve" text-anchor="start" x="13.25" y="-18.5" font-family="Helvetica,sans-Serif" font-size="10.00">override void BuildTarget</text>
<text xml:space="preserve" text-anchor="start" x="13.25" y="-6.5" font-family="Helvetica,sans-Serif" font-size="10.00">Model(ModelBuilder modelBuilder)</text>
<polygon fill="#666666" stroke="#666666" points="0,-114 0,-114 165,-114 165,-114 0,-114"/>
<polygon fill="#666666" stroke="#666666" points="0,-98 0,-98 165,-98 165,-98 0,-98"/>
<polygon fill="none" stroke="#666666" points="0,0 0,-144 165,-144 165,0 0,0"/>
</a>
</g>
</g>
<!-- Node2 -->
<g id="Node000002" class="node">
<title>Node2</title>
<g id="a_Node000002"><a xlink:title=" ">
<polygon fill="white" stroke="none" points="106.38,-232 58.62,-232 58.62,-180 106.38,-180 106.38,-232"/>
<text xml:space="preserve" text-anchor="start" x="62.62" y="-218.5" font-family="Helvetica,sans-Serif" font-size="10.00">Migration</text>
<text xml:space="preserve" text-anchor="start" x="81" y="-202.5" font-family="Helvetica,sans-Serif" font-size="10.00"> </text>
<text xml:space="preserve" text-anchor="start" x="81" y="-186.5" font-family="Helvetica,sans-Serif" font-size="10.00"> </text>
<polygon fill="#666666" stroke="#666666" points="58.62,-214 58.62,-214 106.38,-214 106.38,-214 58.62,-214"/>
<polygon fill="#666666" stroke="#666666" points="58.62,-198 58.62,-198 106.38,-198 106.38,-198 58.62,-198"/>
<polygon fill="none" stroke="#666666" points="58.62,-180 58.62,-232 106.38,-232 106.38,-180 58.62,-180"/>
</a>
</g>
</g>
<!-- Node2&#45;&gt;Node1 -->
<g id="edge1_Node000001_Node000002" class="edge">
<title>Node2&#45;&gt;Node1</title>
<g id="a_edge1_Node000001_Node000002"><a xlink:title=" ">
<path fill="none" stroke="#63b8ff" d="M82.5,-168.66C82.5,-160.92 82.5,-152.49 82.5,-143.96"/>
<polygon fill="none" stroke="#63b8ff" points="79,-168.66 82.5,-178.66 86,-168.66 79,-168.66"/>
</a>
</g>
</g>
</g>
</svg>
