<?xml version="1.0" encoding="UTF-8" standalone="no"?>
<!DOCTYPE svg PUBLIC "-//W3C//DTD SVG 1.1//EN"
 "http://www.w3.org/Graphics/SVG/1.1/DTD/svg11.dtd">
<!-- Generated by graphviz version 14.1.1 (20251213.1925)
 -->
<!-- Title: lab1_gr1.Controllers.IngredientController.Index Pages: 1 -->
<svg width="342pt" height="140pt"
 viewBox="0.00 0.00 342.00 140.00" xmlns="http://www.w3.org/2000/svg" xmlns:xlink="http://www.w3.org/1999/xlink">
<g id="graph0" class="graph" transform="scale(1 1) rotate(0) translate(4 136)">
<title>lab1_gr1.Controllers.IngredientController.Index</title>
<!-- Node1 -->
<g id="Node000001" class="node">
<title>Node1</title>
<g id="a_Node000001"><a xlink:title="Wyświetla listę wszystkich dostępnych składników.">
<polygon fill="#999999" stroke="#666666" points="333.5,-82 184.75,-82 184.75,-50 333.5,-50 333.5,-82"/>
<text xml:space="preserve" text-anchor="start" x="192.75" y="-68.5" font-family="Helvetica,sans-Serif" font-size="10.00">lab1_gr1.Controllers.Ingredient</text>
<text xml:space="preserve" text-anchor="middle" x="259.12" y="-56.5" font-family="Helvetica,sans-Serif" font-size="10.00">Controller.Index</text>
</a>
</g>
</g>
<!-- Node2 -->
<g id="Node000002" class="node">
<title>Node2</title>
<g id="a_Node000002"><a xlink:href="classlab1__gr1_1_1_controllers_1_1_ingredient_controller.html#a9ceadfed4b76599438b62c4cec02c218" target="_top" xlink:title="Obsługuje wysłanie formularza dodawania nowego składnika.">
<polygon fill="white" stroke="#666666" points="148.75,-132 0,-132 0,-100 148.75,-100 148.75,-132"/>
<text xml:space="preserve" text-anchor="start" x="8" y="-118.5" font-family="Helvetica,sans-Serif" font-size="10.00">lab1_gr1.Controllers.Ingredient</text>
<text xml:space="preserve" text-anchor="middle" x="74.38" y="-106.5" font-family="Helvetica,sans-Serif" font-size="10.00">Controller.Add</text>
</a>
</g>
</g>
<!-- Node1&#45;&gt;Node2 -->
<g id="edge1_Node000001_Node000002" class="edge">
<title>Node1&#45;&gt;Node2</title>
<g id="a_edge1_Node000001_Node000002"><a xlink:title=" ">
<path fill="none" stroke="#63b8ff" d="M187.01,-85.46C169.99,-90.11 151.98,-95.04 135.5,-99.55"/>
<polygon fill="#63b8ff" stroke="#63b8ff" points="187.85,-88.86 196.57,-82.84 186,-82.1 187.85,-88.86"/>
</a>
</g>
</g>
<!-- Node3 -->
<g id="Node000003" class="node">
<title>Node3</title>
<g id="a_Node000003"><a xlink:href="classlab1__gr1_1_1_controllers_1_1_ingredient_controller.html#a378964604bff58f9f666a68ad73254e8" target="_top" xlink:title="Usuwa wskazany składnik po potwierdzeniu operacji.">
<polygon fill="white" stroke="#666666" points="148.75,-82 0,-82 0,-50 148.75,-50 148.75,-82"/>
<text xml:space="preserve" text-anchor="start" x="8" y="-68.5" font-family="Helvetica,sans-Serif" font-size="10.00">lab1_gr1.Controllers.Ingredient</text>
<text xml:space="preserve" text-anchor="middle" x="74.38" y="-56.5" font-family="Helvetica,sans-Serif" font-size="10.00">Controller.DeleteConfirmed</text>
</a>
</g>
</g>
<!-- Node1&#45;&gt;Node3 -->
<g id="edge2_Node000001_Node000003" class="edge">
<title>Node1&#45;&gt;Node3</title>
<g id="a_edge2_Node000001_Node000003"><a xlink:title=" ">
<path fill="none" stroke="#63b8ff" d="M172.81,-66C164.91,-66 156.94,-66 149.16,-66"/>
<polygon fill="#63b8ff" stroke="#63b8ff" points="172.81,-69.5 182.81,-66 172.81,-62.5 172.81,-69.5"/>
</a>
</g>
</g>
<!-- Node4 -->
<g id="Node000004" class="node">
<title>Node4</title>
<g id="a_Node000004"><a xlink:href="classlab1__gr1_1_1_controllers_1_1_ingredient_controller.html#a154fe411be25edaf4156624ddaef5222" target="_top" xlink:title="Obsługuje zapis zmian edytowanego składnika.">
<polygon fill="white" stroke="#666666" points="148.75,-32 0,-32 0,0 148.75,0 148.75,-32"/>
<text xml:space="preserve" text-anchor="start" x="8" y="-18.5" font-family="Helvetica,sans-Serif" font-size="10.00">lab1_gr1.Controllers.Ingredient</text>
<text xml:space="preserve" text-anchor="middle" x="74.38" y="-6.5" font-family="Helvetica,sans-Serif" font-size="10.00">Controller.Edit</text>
</a>
</g>
</g>
<!-- Node1&#45;&gt;Node4 -->
<g id="edge3_Node000001_Node000004" class="edge">
<title>Node1&#45;&gt;Node4</title>
<g id="a_edge3_Node000001_Node000004"><a xlink:title=" ">
<path fill="none" stroke="#63b8ff" d="M187.01,-46.54C169.99,-41.89 151.98,-36.96 135.5,-32.45"/>
<polygon fill="#63b8ff" stroke="#63b8ff" points="186,-49.9 196.57,-49.16 187.85,-43.14 186,-49.9"/>
</a>
</g>
</g>
</g>
</svg>
