<?xml version="1.0" encoding="UTF-8" standalone="no"?>
<!DOCTYPE svg PUBLIC "-//W3C//DTD SVG 1.1//EN"
 "http://www.w3.org/Graphics/SVG/1.1/DTD/svg11.dtd">
<!-- Generated by graphviz version 14.1.1 (20251213.1925)
 -->
<!-- Title: lab1_gr1.Services.RecipeScheduleService Pages: 1 -->
<!--zoomable 580 -->

<svg id="main" version="1.1" xmlns="http://www.w3.org/2000/svg" xmlns:xlink="http://www.w3.org/1999/xlink" xml:space="preserve" onload="init(evt)">
<style type="text/css"><![CDATA[
.node, .edge {opacity: 0.7;}
.node.selected, .edge.selected {opacity: 1;}
.edge:hover path { stroke: red; }
.edge:hover polygon { stroke: red; fill: red; }
]]></style>

<defs>
  <circle id="rim" cx="0" cy="0" r="7"/>
  <circle id="rim2" cx="0" cy="0" r="3.5"/>
  <g id="zoomPlus">
    <use xlink:href="#rim" fill="#404040"><set attributeName="fill" to="#808080" begin="zoomplus.mouseover" end="zoomplus.mouseout"/></use>
    <path d="M-4,0h8M0,-4v8" fill="none" stroke="white" stroke-width="1.5" pointer-events="none"/>
  </g>
  <g id="zoomMin">
    <use xlink:href="#rim" fill="#404040"><set attributeName="fill" to="#808080" begin="zoomminus.mouseover" end="zoomminus.mouseout"/></use>
    <path d="M-4,0h8" fill="none" stroke="white" stroke-width="1.5" pointer-events="none"/>
  </g>
  <g id="arrowUp" transform="translate(30 24)">
    <use xlink:href="#rim"/>
    <path pointer-events="none" fill="none" stroke="white" stroke-width="1.5" d="M0,-3.0v7 M-2.5,-0.5L0,-3.0L2.5,-0.5"/>
  </g>
  <g id="arrowRight" transform="rotate(90) translate(36 -43)">
    <use xlink:href="#rim"/>
    <path pointer-events="none" fill="none" stroke="white" stroke-width="1.5" d="M0,-3.0v7 M-2.5,-0.5L0,-3.0L2.5,-0.5"/>
  </g>
  <g id="arrowDown" transform="rotate(180) translate(-30 -48)">
    <use xlink:href="#rim"/>
    <path pointer-events="none" fill="none" stroke="white" stroke-width="1.5" d="M0,-3.0v7 M-2.5,-0.5L0,-3.0L2.5,-0.5"/>
  </g>
  <g id="arrowLeft" transform="rotate(270) translate(-36 17)">
    <use xlink:href="#rim"/>
    <path pointer-events="none" fill="none" stroke="white" stroke-width="1.5" d="M0,-3.0v7 M-2.5,-0.5L0,-3.0L2.5,-0.5"/>
  </g>
  <g id="resetDef">
    <use xlink:href="#rim2" fill="#404040"><set attributeName="fill" to="#808080" begin="reset.mouseover" end="reset.mouseout"/></use>
  </g>
</defs>
<script type="application/ecmascript">
var viewWidth = 336;
var viewHeight = 580;
var sectionId = 'dynsection-0';
</script>
<script type="application/ecmascript" xlink:href="svg.min.js"/>
<svg id="graph" class="graph">
<g id="viewport">
<title>lab1_gr1.Services.RecipeScheduleService</title>
<!-- Node1 -->
<g id="Node000001" class="node">
<title>Node1</title>
<g id="a_Node000001"><a xlink:title="Serwis odpowiedzialny za zarządzanie harmonogramem przepisów użytkownika (planowanie posiłków na dni ...">
<polygon fill="#999999" stroke="none" points="239,-300 77.75,-300 77.75,0 239,0 239,-300"/>
<text xml:space="preserve" text-anchor="start" x="102.5" y="-286.5" font-family="Helvetica,sans-Serif" font-size="10.00">lab1_gr1.Services.Recipe</text>
<text xml:space="preserve" text-anchor="start" x="121.62" y="-274.5" font-family="Helvetica,sans-Serif" font-size="10.00">ScheduleService</text>
<text xml:space="preserve" text-anchor="start" x="156.88" y="-258.5" font-family="Helvetica,sans-Serif" font-size="10.00"> </text>
<text xml:space="preserve" text-anchor="start" x="81.75" y="-242.5" font-family="Helvetica,sans-Serif" font-size="10.00">+</text>
<text xml:space="preserve" text-anchor="start" x="91.75" y="-242.5" font-family="Helvetica,sans-Serif" font-size="10.00">RecipeScheduleService</text>
<text xml:space="preserve" text-anchor="start" x="91.75" y="-230.5" font-family="Helvetica,sans-Serif" font-size="10.00">(MyDBContext dbContext,</text>
<text xml:space="preserve" text-anchor="start" x="91.75" y="-218.5" font-family="Helvetica,sans-Serif" font-size="10.00"> IMapper mapper)</text>
<text xml:space="preserve" text-anchor="start" x="81.75" y="-202.5" font-family="Helvetica,sans-Serif" font-size="10.00">+</text>
<text xml:space="preserve" text-anchor="start" x="91.75" y="-202.5" font-family="Helvetica,sans-Serif" font-size="10.00">async Task&lt; WeekVM</text>
<text xml:space="preserve" text-anchor="start" x="91.75" y="-190.5" font-family="Helvetica,sans-Serif" font-size="10.00"> &gt; GetRecipesPerWeekAsync</text>
<text xml:space="preserve" text-anchor="start" x="91.75" y="-178.5" font-family="Helvetica,sans-Serif" font-size="10.00">(int userId)</text>
<text xml:space="preserve" text-anchor="start" x="81.75" y="-162.5" font-family="Helvetica,sans-Serif" font-size="10.00">+</text>
<text xml:space="preserve" text-anchor="start" x="91.75" y="-162.5" font-family="Helvetica,sans-Serif" font-size="10.00">async Task AddRecipeToDay</text>
<text xml:space="preserve" text-anchor="start" x="91.75" y="-150.5" font-family="Helvetica,sans-Serif" font-size="10.00">Async(int userId, int recipeId,</text>
<text xml:space="preserve" text-anchor="start" x="91.75" y="-138.5" font-family="Helvetica,sans-Serif" font-size="10.00"> int dayOfWeek)</text>
<text xml:space="preserve" text-anchor="start" x="81.75" y="-122.5" font-family="Helvetica,sans-Serif" font-size="10.00">+</text>
<text xml:space="preserve" text-anchor="start" x="91.75" y="-122.5" font-family="Helvetica,sans-Serif" font-size="10.00">async Task RemoveRecipeFrom</text>
<text xml:space="preserve" text-anchor="start" x="91.75" y="-110.5" font-family="Helvetica,sans-Serif" font-size="10.00">DayAsync(int userId, int</text>
<text xml:space="preserve" text-anchor="start" x="91.75" y="-98.5" font-family="Helvetica,sans-Serif" font-size="10.00"> recipeId, int dayOfWeek)</text>
<text xml:space="preserve" text-anchor="start" x="81.75" y="-82.5" font-family="Helvetica,sans-Serif" font-size="10.00">+</text>
<text xml:space="preserve" text-anchor="start" x="91.75" y="-82.5" font-family="Helvetica,sans-Serif" font-size="10.00">async Task&lt; List&lt; Recipe</text>
<text xml:space="preserve" text-anchor="start" x="91.75" y="-70.5" font-family="Helvetica,sans-Serif" font-size="10.00">ListVM &gt; &gt; GetAvailableRecipes</text>
<text xml:space="preserve" text-anchor="start" x="91.75" y="-58.5" font-family="Helvetica,sans-Serif" font-size="10.00">ForUserAsync(int userId)</text>
<text xml:space="preserve" text-anchor="start" x="81.75" y="-42.5" font-family="Helvetica,sans-Serif" font-size="10.00">+</text>
<text xml:space="preserve" text-anchor="start" x="91.75" y="-42.5" font-family="Helvetica,sans-Serif" font-size="10.00">async Task&lt; bool &gt;</text>
<text xml:space="preserve" text-anchor="start" x="91.75" y="-30.5" font-family="Helvetica,sans-Serif" font-size="10.00"> AddExistingRecipeToSchedule</text>
<text xml:space="preserve" text-anchor="start" x="91.75" y="-18.5" font-family="Helvetica,sans-Serif" font-size="10.00">Async(int recipeId, int userId,</text>
<text xml:space="preserve" text-anchor="start" x="91.75" y="-6.5" font-family="Helvetica,sans-Serif" font-size="10.00"> int dayOfWeek)</text>
<polygon fill="#666666" stroke="#666666" points="77.75,-270 77.75,-270 239,-270 239,-270 77.75,-270"/>
<polygon fill="#666666" stroke="#666666" points="77.75,-254 77.75,-254 239,-254 239,-254 77.75,-254"/>
<polygon fill="none" stroke="#666666" points="77.75,0 77.75,-300 239,-300 239,0 77.75,0"/>
</a>
</g>
</g>
<!-- Node2 -->
<g id="Node000002" class="node">
<title>Node2</title>
<g id="a_Node000002"><a xlink:href="classlab1__gr1_1_1_services_1_1_base_service.html" target="_top" xlink:title="Klasa bazowa dla wszystkich serwisów aplikacji. Zapewnia dostęp do kontekstu bazy danych oraz mechani...">
<polygon fill="white" stroke="none" points="144.75,-500 0,-500 0,-408 144.75,-408 144.75,-500"/>
<text xml:space="preserve" text-anchor="start" x="44.62" y="-486.5" font-family="Helvetica,sans-Serif" font-size="10.00">BaseService</text>
<text xml:space="preserve" text-anchor="start" x="4" y="-470.5" font-family="Helvetica,sans-Serif" font-size="10.00">#</text>
<text xml:space="preserve" text-anchor="start" x="13.25" y="-470.5" font-family="Helvetica,sans-Serif" font-size="10.00">readonly MyDBContext</text>
<text xml:space="preserve" text-anchor="start" x="13.25" y="-458.5" font-family="Helvetica,sans-Serif" font-size="10.00"> _dbContext</text>
<text xml:space="preserve" text-anchor="start" x="4" y="-442.5" font-family="Helvetica,sans-Serif" font-size="10.00">#</text>
<text xml:space="preserve" text-anchor="start" x="13.25" y="-442.5" font-family="Helvetica,sans-Serif" font-size="10.00">readonly IMapper _mapper</text>
<text xml:space="preserve" text-anchor="start" x="4" y="-426.5" font-family="Helvetica,sans-Serif" font-size="10.00">#</text>
<text xml:space="preserve" text-anchor="start" x="13.25" y="-426.5" font-family="Helvetica,sans-Serif" font-size="10.00">BaseService(MyDBContext</text>
<text xml:space="preserve" text-anchor="start" x="13.25" y="-414.5" font-family="Helvetica,sans-Serif" font-size="10.00"> dbContext, IMapper mapper)</text>
<polygon fill="#666666" stroke="#666666" points="0,-482 0,-482 144.75,-482 144.75,-482 0,-482"/>
<polygon fill="#666666" stroke="#666666" points="0,-438 0,-438 11.25,-438 11.25,-438 0,-438"/>
<polygon fill="#666666" stroke="#666666" points="11.25,-438 11.25,-438 144.75,-438 144.75,-438 11.25,-438"/>
<polygon fill="none" stroke="#666666" points="0,-408 0,-500 144.75,-500 144.75,-408 0,-408"/>
</a>
</g>
</g>
<!-- Node2&#45;&gt;Node1 -->
<g id="edge1_Node000001_Node000002" class="edge">
<title>Node2&#45;&gt;Node1</title>
<g id="a_edge1_Node000001_Node000002"><a xlink:title=" ">
<path fill="none" stroke="#63b8ff" d="M88.29,-397.1C96.18,-369.42 106.11,-334.54 115.99,-299.82"/>
<polygon fill="none" stroke="#63b8ff" points="84.94,-396.08 85.57,-406.66 91.68,-398 84.94,-396.08"/>
</a>
</g>
</g>
<!-- Node3 -->
<g id="Node000003" class="node">
<title>Node3</title>
<g id="a_Node000003"><a xlink:href="interfacelab1__gr1_1_1_interfaces_1_1_i_recipe_schedule_service.html" target="_top" xlink:title="Interfejs definiujący metody serwisu do zarządzania harmonogramem przepisów użytkownika.">
<polygon fill="white" stroke="none" points="328.25,-572 162.5,-572 162.5,-336 328.25,-336 328.25,-572"/>
<text xml:space="preserve" text-anchor="start" x="191.75" y="-558.5" font-family="Helvetica,sans-Serif" font-size="10.00">IRecipeScheduleService</text>
<text xml:space="preserve" text-anchor="start" x="243.88" y="-542.5" font-family="Helvetica,sans-Serif" font-size="10.00"> </text>
<text xml:space="preserve" text-anchor="start" x="166.5" y="-526.5" font-family="Helvetica,sans-Serif" font-size="10.00">+</text>
<text xml:space="preserve" text-anchor="start" x="176.5" y="-526.5" font-family="Helvetica,sans-Serif" font-size="10.00">Task&lt; WeekVM &gt; GetRecipes</text>
<text xml:space="preserve" text-anchor="start" x="176.5" y="-514.5" font-family="Helvetica,sans-Serif" font-size="10.00">PerWeekAsync(int userId)</text>
<text xml:space="preserve" text-anchor="start" x="166.5" y="-498.5" font-family="Helvetica,sans-Serif" font-size="10.00">+</text>
<text xml:space="preserve" text-anchor="start" x="176.5" y="-498.5" font-family="Helvetica,sans-Serif" font-size="10.00">Task AddRecipeToDayAsync</text>
<text xml:space="preserve" text-anchor="start" x="176.5" y="-486.5" font-family="Helvetica,sans-Serif" font-size="10.00">(int userId, int recipeId,</text>
<text xml:space="preserve" text-anchor="start" x="176.5" y="-474.5" font-family="Helvetica,sans-Serif" font-size="10.00"> int dayOfWeek)</text>
<text xml:space="preserve" text-anchor="start" x="166.5" y="-458.5" font-family="Helvetica,sans-Serif" font-size="10.00">+</text>
<text xml:space="preserve" text-anchor="start" x="176.5" y="-458.5" font-family="Helvetica,sans-Serif" font-size="10.00">Task RemoveRecipeFromDay</text>
<text xml:space="preserve" text-anchor="start" x="176.5" y="-446.5" font-family="Helvetica,sans-Serif" font-size="10.00">Async(int userId, int</text>
<text xml:space="preserve" text-anchor="start" x="176.5" y="-434.5" font-family="Helvetica,sans-Serif" font-size="10.00"> recipeId, int dayOfWeek)</text>
<text xml:space="preserve" text-anchor="start" x="166.5" y="-418.5" font-family="Helvetica,sans-Serif" font-size="10.00">+</text>
<text xml:space="preserve" text-anchor="start" x="176.5" y="-418.5" font-family="Helvetica,sans-Serif" font-size="10.00">Task&lt; List&lt; RecipeListVM</text>
<text xml:space="preserve" text-anchor="start" x="176.5" y="-406.5" font-family="Helvetica,sans-Serif" font-size="10.00"> &gt; &gt; GetAvailableRecipesForUser</text>
<text xml:space="preserve" text-anchor="start" x="176.5" y="-394.5" font-family="Helvetica,sans-Serif" font-size="10.00">Async(int userId)</text>
<text xml:space="preserve" text-anchor="start" x="166.5" y="-378.5" font-family="Helvetica,sans-Serif" font-size="10.00">+</text>
<text xml:space="preserve" text-anchor="start" x="176.5" y="-378.5" font-family="Helvetica,sans-Serif" font-size="10.00">Task&lt; bool &gt; AddExisting</text>
<text xml:space="preserve" text-anchor="start" x="176.5" y="-366.5" font-family="Helvetica,sans-Serif" font-size="10.00">RecipeToScheduleAsync</text>
<text xml:space="preserve" text-anchor="start" x="176.5" y="-354.5" font-family="Helvetica,sans-Serif" font-size="10.00">(int recipeId, int userId,</text>
<text xml:space="preserve" text-anchor="start" x="176.5" y="-342.5" font-family="Helvetica,sans-Serif" font-size="10.00"> int dayOfWeek)</text>
<polygon fill="#666666" stroke="#666666" points="162.5,-554 162.5,-554 328.25,-554 328.25,-554 162.5,-554"/>
<polygon fill="#666666" stroke="#666666" points="162.5,-538 162.5,-538 328.25,-538 328.25,-538 162.5,-538"/>
<polygon fill="none" stroke="#666666" points="162.5,-336 162.5,-572 328.25,-572 328.25,-336 162.5,-336"/>
</a>
</g>
</g>
<!-- Node3&#45;&gt;Node1 -->
<g id="edge2_Node000001_Node000003" class="edge">
<title>Node3&#45;&gt;Node1</title>
<g id="a_edge2_Node000001_Node000003"><a xlink:title=" ">
<path fill="none" stroke="#63b8ff" d="M208.57,-325.24C206.15,-316.82 203.69,-308.31 201.24,-299.8"/>
<polygon fill="none" stroke="#63b8ff" points="205.19,-326.14 211.32,-334.78 211.91,-324.21 205.19,-326.14"/>
</a>
</g>
</g>
</g>
</svg>

<g id="navigator" transform="translate(0 0)" fill="#404254">
  <rect fill="#f2f5e9" fill-opacity="0.5" stroke="#606060" stroke-width=".5" x="0" y="0" width="60" height="60"/>
  <use id="zoomplus" xlink:href="#zoomPlus" x="17" y="9" onmousedown="handleZoom(evt,'in')"/>
  <use id="zoomminus" xlink:href="#zoomMin" x="42" y="9" onmousedown="handleZoom(evt,'out')"/>
  <use id="reset" xlink:href="#resetDef" x="30" y="36" onmousedown="handleReset()"/>
   <use id="arrowup" xlink:href="#arrowUp" x="0" y="0" onmousedown="handlePan(0,-1)"/>
  <use id="arrowright" xlink:href="#arrowRight" x="0" y="0" onmousedown="handlePan(1,0)"/>
  <use id="arrowdown" xlink:href="#arrowDown" x="0" y="0" onmousedown="handlePan(0,1)"/>
  <use id="arrowleft" xlink:href="#arrowLeft" x="0" y="0" onmousedown="handlePan(-1,0)"/>
</g>
<svg viewBox="0 0 15 15" width="100%" height="30px" preserveAspectRatio="xMaxYMin meet">
 <g id="arrow_out" transform="scale(0.3 0.3)">
  <a xlink:href="classlab1__gr1_1_1_services_1_1_recipe_schedule_service__inherit__graph_org.svg" target="_base">
   <rect id="button" ry="5" rx="5" y="6" x="6" height="38" width="38"
        fill="#f2f5e9" fill-opacity="0.5" stroke="#606060" stroke-width="1.0"/>
   <path id="arrow"
     d="M 11.500037,31.436501 C 11.940474,20.09759 22.043105,11.32322 32.158766,21.979434 L 37.068811,17.246167 C 37.068811,17.246167 37.088388,32 37.088388,32 L 22.160133,31.978069 C 22.160133,31.978069 26.997745,27.140456 26.997745,27.140456 C 18.528582,18.264221 13.291696,25.230495 11.500037,31.436501 z"
     style="fill:#404040;"/>
  </a>
 </g>
</svg>

<style type='text/css'>
<![CDATA[
[data-mouse-over-selected='false'] { opacity: 0.7; }
[data-mouse-over-selected='true']  { opacity: 1.0; }
]]>
</style>
<script type="application/ecmascript"><![CDATA[
document.addEventListener('DOMContentLoaded', (event) => {
  highlightEdges();
  highlightAdjacentNodes();
});
]]></script>
</svg>
