<?xml version="1.0" encoding="UTF-8" standalone="no"?>
<!DOCTYPE svg PUBLIC "-//W3C//DTD SVG 1.1//EN"
 "http://www.w3.org/Graphics/SVG/1.1/DTD/svg11.dtd">
<!-- Generated by graphviz version 14.1.1 (20251213.1925)
 -->
<!-- Title: lab1_gr1.Services.IngredientService Pages: 1 -->
<svg width="356pt" height="962pt"
 viewBox="0.00 0.00 356.00 962.00" xmlns="http://www.w3.org/2000/svg" xmlns:xlink="http://www.w3.org/1999/xlink">
<g id="graph0" class="graph" transform="scale(1 1) rotate(0) translate(4 958)">
<title>lab1_gr1.Services.IngredientService</title>
<!-- Node1 -->
<g id="Node000001" class="node">
<title>Node1</title>
<g id="a_Node000001"><a xlink:title="Serwis odpowiedzialny za zarządzanie składnikami. Implementuje logikę biznesową związaną z pobieranie...">
<polygon fill="#999999" stroke="none" points="266.38,-292 75.88,-292 75.88,0 266.38,0 266.38,-292"/>
<text xml:space="preserve" text-anchor="start" x="109.25" y="-278.5" font-family="Helvetica,sans-Serif" font-size="10.00">lab1_gr1.Services.Ingredient</text>
<text xml:space="preserve" text-anchor="start" x="154.62" y="-266.5" font-family="Helvetica,sans-Serif" font-size="10.00">Service</text>
<text xml:space="preserve" text-anchor="start" x="169.62" y="-250.5" font-family="Helvetica,sans-Serif" font-size="10.00"> </text>
<text xml:space="preserve" text-anchor="start" x="79.88" y="-234.5" font-family="Helvetica,sans-Serif" font-size="10.00">+</text>
<text xml:space="preserve" text-anchor="start" x="89.88" y="-234.5" font-family="Helvetica,sans-Serif" font-size="10.00">IngredientService</text>
<text xml:space="preserve" text-anchor="start" x="89.88" y="-222.5" font-family="Helvetica,sans-Serif" font-size="10.00">(MyDBContext dbContext,</text>
<text xml:space="preserve" text-anchor="start" x="89.88" y="-210.5" font-family="Helvetica,sans-Serif" font-size="10.00"> IMapper mapper)</text>
<text xml:space="preserve" text-anchor="start" x="79.88" y="-194.5" font-family="Helvetica,sans-Serif" font-size="10.00">+</text>
<text xml:space="preserve" text-anchor="start" x="89.88" y="-194.5" font-family="Helvetica,sans-Serif" font-size="10.00">async Task&lt; IEnumerable</text>
<text xml:space="preserve" text-anchor="start" x="89.88" y="-182.5" font-family="Helvetica,sans-Serif" font-size="10.00">&lt; IngredientListVM &gt; &gt;</text>
<text xml:space="preserve" text-anchor="start" x="89.88" y="-170.5" font-family="Helvetica,sans-Serif" font-size="10.00"> GetAllAsync()</text>
<text xml:space="preserve" text-anchor="start" x="79.88" y="-154.5" font-family="Helvetica,sans-Serif" font-size="10.00">+</text>
<text xml:space="preserve" text-anchor="start" x="89.88" y="-154.5" font-family="Helvetica,sans-Serif" font-size="10.00">async Task&lt; List&lt; Ingredient</text>
<text xml:space="preserve" text-anchor="start" x="89.88" y="-142.5" font-family="Helvetica,sans-Serif" font-size="10.00">ListVM &gt; &gt; GetUsedIngredientsAsync()</text>
<text xml:space="preserve" text-anchor="start" x="79.88" y="-126.5" font-family="Helvetica,sans-Serif" font-size="10.00">+</text>
<text xml:space="preserve" text-anchor="start" x="89.88" y="-126.5" font-family="Helvetica,sans-Serif" font-size="10.00">async Task&lt; Ingredient</text>
<text xml:space="preserve" text-anchor="start" x="89.88" y="-114.5" font-family="Helvetica,sans-Serif" font-size="10.00">?&gt; GetByIdAsync(int id)</text>
<text xml:space="preserve" text-anchor="start" x="79.88" y="-98.5" font-family="Helvetica,sans-Serif" font-size="10.00">+</text>
<text xml:space="preserve" text-anchor="start" x="89.88" y="-98.5" font-family="Helvetica,sans-Serif" font-size="10.00">async Task&lt; int &gt; Create</text>
<text xml:space="preserve" text-anchor="start" x="89.88" y="-86.5" font-family="Helvetica,sans-Serif" font-size="10.00">Async(CreateIngredientVM</text>
<text xml:space="preserve" text-anchor="start" x="89.88" y="-74.5" font-family="Helvetica,sans-Serif" font-size="10.00"> model)</text>
<text xml:space="preserve" text-anchor="start" x="79.88" y="-58.5" font-family="Helvetica,sans-Serif" font-size="10.00">+</text>
<text xml:space="preserve" text-anchor="start" x="89.88" y="-58.5" font-family="Helvetica,sans-Serif" font-size="10.00">async Task&lt; bool &gt;</text>
<text xml:space="preserve" text-anchor="start" x="89.88" y="-46.5" font-family="Helvetica,sans-Serif" font-size="10.00"> UpdateAsync(EditIngredient</text>
<text xml:space="preserve" text-anchor="start" x="89.88" y="-34.5" font-family="Helvetica,sans-Serif" font-size="10.00">VM model)</text>
<text xml:space="preserve" text-anchor="start" x="79.88" y="-18.5" font-family="Helvetica,sans-Serif" font-size="10.00">+</text>
<text xml:space="preserve" text-anchor="start" x="89.88" y="-18.5" font-family="Helvetica,sans-Serif" font-size="10.00">async Task&lt; bool &gt;</text>
<text xml:space="preserve" text-anchor="start" x="89.88" y="-6.5" font-family="Helvetica,sans-Serif" font-size="10.00"> DeleteAsync(int id)</text>
<polygon fill="#666666" stroke="#666666" points="75.88,-262 75.88,-262 266.38,-262 266.38,-262 75.88,-262"/>
<polygon fill="#666666" stroke="#666666" points="75.88,-246 75.88,-246 266.38,-246 266.38,-246 75.88,-246"/>
<polygon fill="none" stroke="#666666" points="75.88,0 75.88,-292 266.38,-292 266.38,0 75.88,0"/>
</a>
</g>
</g>
<!-- Node2 -->
<g id="Node000002" class="node">
<title>Node2</title>
<g id="a_Node000002"><a xlink:href="classlab1__gr1_1_1_services_1_1_base_service.html" target="_top" xlink:title="Klasa bazowa dla wszystkich serwisów aplikacji. Zapewnia dostęp do kontekstu bazy danych oraz mechani...">
<polygon fill="white" stroke="none" points="154.5,-469 9.75,-469 9.75,-405 154.5,-405 154.5,-469"/>
<text xml:space="preserve" text-anchor="start" x="54.38" y="-455.5" font-family="Helvetica,sans-Serif" font-size="10.00">BaseService</text>
<text xml:space="preserve" text-anchor="start" x="13.75" y="-439.5" font-family="Helvetica,sans-Serif" font-size="10.00">#</text>
<text xml:space="preserve" text-anchor="start" x="23" y="-439.5" font-family="Helvetica,sans-Serif" font-size="10.00">readonly IMapper _mapper</text>
<text xml:space="preserve" text-anchor="start" x="13.75" y="-423.5" font-family="Helvetica,sans-Serif" font-size="10.00">#</text>
<text xml:space="preserve" text-anchor="start" x="23" y="-423.5" font-family="Helvetica,sans-Serif" font-size="10.00">BaseService(MyDBContext</text>
<text xml:space="preserve" text-anchor="start" x="23" y="-411.5" font-family="Helvetica,sans-Serif" font-size="10.00"> dbContext, IMapper mapper)</text>
<polygon fill="#666666" stroke="#666666" points="9.75,-451 9.75,-451 154.5,-451 154.5,-451 9.75,-451"/>
<polygon fill="#666666" stroke="#666666" points="9.75,-435 9.75,-435 21,-435 21,-435 9.75,-435"/>
<polygon fill="#666666" stroke="#666666" points="21,-435 21,-435 154.5,-435 154.5,-435 21,-435"/>
<polygon fill="none" stroke="#666666" points="9.75,-405 9.75,-469 154.5,-469 154.5,-405 9.75,-405"/>
</a>
</g>
</g>
<!-- Node2&#45;&gt;Node1 -->
<g id="edge1_Node000001_Node000002" class="edge">
<title>Node2&#45;&gt;Node1</title>
<g id="a_edge1_Node000001_Node000002"><a xlink:title=" ">
<path fill="none" stroke="#63b8ff" d="M94.95,-394.36C103.39,-366.96 114.98,-329.32 126.57,-291.67"/>
<polygon fill="none" stroke="#63b8ff" points="91.69,-393.04 92.1,-403.63 98.38,-395.1 91.69,-393.04"/>
</a>
</g>
</g>
<!-- Node3 -->
<g id="Node000003" class="node">
<title>Node3</title>
<g id="a_Node000003"><a xlink:href="classlab1__gr1_1_1_models_1_1_my_d_b_context.html" target="_top" xlink:title="Kontekst bazy danych dla aplikacji ListaZakupow. Zawiera DbSet&#45;y dla użytkowników,...">
<polygon fill="white" stroke="none" points="164.25,-865 0,-865 0,-593 164.25,-593 164.25,-865"/>
<text xml:space="preserve" text-anchor="start" x="13.88" y="-851.5" font-family="Helvetica,sans-Serif" font-size="10.00">lab1_gr1.Models.MyDBContext</text>
<text xml:space="preserve" text-anchor="start" x="4" y="-835.5" font-family="Helvetica,sans-Serif" font-size="10.00">+</text>
<text xml:space="preserve" text-anchor="start" x="14" y="-835.5" font-family="Helvetica,sans-Serif" font-size="10.00">virtual DbSet&lt; User</text>
<text xml:space="preserve" text-anchor="start" x="14" y="-823.5" font-family="Helvetica,sans-Serif" font-size="10.00"> &gt; Users</text>
<text xml:space="preserve" text-anchor="start" x="4" y="-807.5" font-family="Helvetica,sans-Serif" font-size="10.00">+</text>
<text xml:space="preserve" text-anchor="start" x="14" y="-807.5" font-family="Helvetica,sans-Serif" font-size="10.00">virtual DbSet&lt; Recipe</text>
<text xml:space="preserve" text-anchor="start" x="14" y="-795.5" font-family="Helvetica,sans-Serif" font-size="10.00"> &gt; Recipes</text>
<text xml:space="preserve" text-anchor="start" x="4" y="-779.5" font-family="Helvetica,sans-Serif" font-size="10.00">+</text>
<text xml:space="preserve" text-anchor="start" x="14" y="-779.5" font-family="Helvetica,sans-Serif" font-size="10.00">virtual DbSet&lt; Ingredient</text>
<text xml:space="preserve" text-anchor="start" x="14" y="-767.5" font-family="Helvetica,sans-Serif" font-size="10.00"> &gt; Ingredients</text>
<text xml:space="preserve" text-anchor="start" x="4" y="-751.5" font-family="Helvetica,sans-Serif" font-size="10.00">+</text>
<text xml:space="preserve" text-anchor="start" x="14" y="-751.5" font-family="Helvetica,sans-Serif" font-size="10.00">virtual DbSet&lt; RecipeIngredient</text>
<text xml:space="preserve" text-anchor="start" x="14" y="-739.5" font-family="Helvetica,sans-Serif" font-size="10.00"> &gt; RecipeIngredients</text>
<text xml:space="preserve" text-anchor="start" x="4" y="-723.5" font-family="Helvetica,sans-Serif" font-size="10.00">+</text>
<text xml:space="preserve" text-anchor="start" x="14" y="-723.5" font-family="Helvetica,sans-Serif" font-size="10.00">virtual DbSet&lt; RecipeSchedule</text>
<text xml:space="preserve" text-anchor="start" x="14" y="-711.5" font-family="Helvetica,sans-Serif" font-size="10.00"> &gt; RecipeSchedules</text>
<text xml:space="preserve" text-anchor="start" x="4" y="-695.5" font-family="Helvetica,sans-Serif" font-size="10.00">+</text>
<text xml:space="preserve" text-anchor="start" x="14" y="-695.5" font-family="Helvetica,sans-Serif" font-size="10.00">virtual DbSet&lt; ShoppingList</text>
<text xml:space="preserve" text-anchor="start" x="14" y="-683.5" font-family="Helvetica,sans-Serif" font-size="10.00"> &gt; ShoppingLists</text>
<text xml:space="preserve" text-anchor="start" x="4" y="-667.5" font-family="Helvetica,sans-Serif" font-size="10.00">+</text>
<text xml:space="preserve" text-anchor="start" x="14" y="-667.5" font-family="Helvetica,sans-Serif" font-size="10.00">virtual DbSet&lt; ShoppingList</text>
<text xml:space="preserve" text-anchor="start" x="14" y="-655.5" font-family="Helvetica,sans-Serif" font-size="10.00">Item &gt; ShoppingListItems</text>
<text xml:space="preserve" text-anchor="start" x="4" y="-639.5" font-family="Helvetica,sans-Serif" font-size="10.00">+</text>
<text xml:space="preserve" text-anchor="start" x="14" y="-639.5" font-family="Helvetica,sans-Serif" font-size="10.00">MyDBContext(DbContextOptions</text>
<text xml:space="preserve" text-anchor="start" x="14" y="-627.5" font-family="Helvetica,sans-Serif" font-size="10.00">&lt; MyDBContext &gt; options)</text>
<text xml:space="preserve" text-anchor="start" x="4.38" y="-611.5" font-family="Helvetica,sans-Serif" font-size="10.00">#</text>
<text xml:space="preserve" text-anchor="start" x="14" y="-611.5" font-family="Helvetica,sans-Serif" font-size="10.00">override void OnModelCreating</text>
<text xml:space="preserve" text-anchor="start" x="14" y="-599.5" font-family="Helvetica,sans-Serif" font-size="10.00">(ModelBuilder modelBuilder)</text>
<polygon fill="#666666" stroke="#666666" points="0,-847 0,-847 164.25,-847 164.25,-847 0,-847"/>
<polygon fill="#666666" stroke="#666666" points="0,-651 0,-651 12,-651 12,-651 0,-651"/>
<polygon fill="#666666" stroke="#666666" points="12,-651 12,-651 164.25,-651 164.25,-651 12,-651"/>
<polygon fill="none" stroke="#666666" points="0,-593 0,-865 164.25,-865 164.25,-593 0,-593"/>
</a>
</g>
</g>
<!-- Node3&#45;&gt;Node2 -->
<g id="edge2_Node000002_Node000003" class="edge">
<title>Node3&#45;&gt;Node2</title>
<g id="a_edge2_Node000002_Node000003"><a xlink:title=" ">
<path fill="none" stroke="#63b8ff" d="M82.12,-593.19C82.12,-552.91 82.12,-511.58 82.12,-481.71"/>
<polygon fill="none" stroke="#63b8ff" points="82.13,-481.74 78.13,-475.74 82.13,-469.74 86.13,-475.74 82.13,-481.74"/>
</a>
</g>
<text xml:space="preserve" text-anchor="middle" x="111.38" y="-565.5" font-family="Helvetica,sans-Serif" font-size="10.00" fill="grey"> #_dbContext</text>
</g>
<!-- Node4 -->
<g id="Node000004" class="node">
<title>Node4</title>
<g id="a_Node000004"><a xlink:title=" ">
<polygon fill="white" stroke="none" points="109.75,-954 54.5,-954 54.5,-902 109.75,-902 109.75,-954"/>
<text xml:space="preserve" text-anchor="start" x="58.5" y="-940.5" font-family="Helvetica,sans-Serif" font-size="10.00">DbContext</text>
<text xml:space="preserve" text-anchor="start" x="80.62" y="-924.5" font-family="Helvetica,sans-Serif" font-size="10.00"> </text>
<text xml:space="preserve" text-anchor="start" x="80.62" y="-908.5" font-family="Helvetica,sans-Serif" font-size="10.00"> </text>
<polygon fill="#666666" stroke="#666666" points="54.5,-936 54.5,-936 109.75,-936 109.75,-936 54.5,-936"/>
<polygon fill="#666666" stroke="#666666" points="54.5,-920 54.5,-920 109.75,-920 109.75,-920 54.5,-920"/>
<polygon fill="none" stroke="#666666" points="54.5,-902 54.5,-954 109.75,-954 109.75,-902 54.5,-902"/>
</a>
</g>
</g>
<!-- Node4&#45;&gt;Node3 -->
<g id="edge3_Node000003_Node000004" class="edge">
<title>Node4&#45;&gt;Node3</title>
<g id="a_edge3_Node000003_Node000004"><a xlink:title=" ">
<path fill="none" stroke="#63b8ff" d="M82.12,-890.81C82.12,-882.92 82.12,-874.12 82.12,-864.81"/>
<polygon fill="none" stroke="#63b8ff" points="78.63,-890.54 82.13,-900.54 85.63,-890.54 78.63,-890.54"/>
</a>
</g>
</g>
<!-- Node5 -->
<g id="Node000005" class="node">
<title>Node5</title>
<g id="a_Node000005"><a xlink:href="interfacelab1__gr1_1_1_interfaces_1_1_i_ingredient_service.html" target="_top" xlink:title="Interfejs definiujący metody serwisu do obsługi składników.">
<polygon fill="white" stroke="none" points="347.5,-545 172.75,-545 172.75,-329 347.5,-329 347.5,-545"/>
<text xml:space="preserve" text-anchor="start" x="220.75" y="-531.5" font-family="Helvetica,sans-Serif" font-size="10.00">IIngredientService</text>
<text xml:space="preserve" text-anchor="start" x="258.62" y="-515.5" font-family="Helvetica,sans-Serif" font-size="10.00"> </text>
<text xml:space="preserve" text-anchor="start" x="176.75" y="-499.5" font-family="Helvetica,sans-Serif" font-size="10.00">+</text>
<text xml:space="preserve" text-anchor="start" x="186.75" y="-499.5" font-family="Helvetica,sans-Serif" font-size="10.00">Task&lt; IEnumerable&lt;</text>
<text xml:space="preserve" text-anchor="start" x="186.75" y="-487.5" font-family="Helvetica,sans-Serif" font-size="10.00"> IngredientListVM &gt;</text>
<text xml:space="preserve" text-anchor="start" x="186.75" y="-475.5" font-family="Helvetica,sans-Serif" font-size="10.00"> &gt; GetAllAsync()</text>
<text xml:space="preserve" text-anchor="start" x="176.75" y="-459.5" font-family="Helvetica,sans-Serif" font-size="10.00">+</text>
<text xml:space="preserve" text-anchor="start" x="186.75" y="-459.5" font-family="Helvetica,sans-Serif" font-size="10.00">Task&lt; Ingredient?&gt;</text>
<text xml:space="preserve" text-anchor="start" x="186.75" y="-447.5" font-family="Helvetica,sans-Serif" font-size="10.00"> GetByIdAsync(int id)</text>
<text xml:space="preserve" text-anchor="start" x="176.75" y="-431.5" font-family="Helvetica,sans-Serif" font-size="10.00">+</text>
<text xml:space="preserve" text-anchor="start" x="186.75" y="-431.5" font-family="Helvetica,sans-Serif" font-size="10.00">Task&lt; int &gt; CreateAsync</text>
<text xml:space="preserve" text-anchor="start" x="186.75" y="-419.5" font-family="Helvetica,sans-Serif" font-size="10.00">(CreateIngredientVM model)</text>
<text xml:space="preserve" text-anchor="start" x="176.75" y="-403.5" font-family="Helvetica,sans-Serif" font-size="10.00">+</text>
<text xml:space="preserve" text-anchor="start" x="186.75" y="-403.5" font-family="Helvetica,sans-Serif" font-size="10.00">Task&lt; bool &gt; UpdateAsync</text>
<text xml:space="preserve" text-anchor="start" x="186.75" y="-391.5" font-family="Helvetica,sans-Serif" font-size="10.00">(EditIngredientVM model)</text>
<text xml:space="preserve" text-anchor="start" x="176.75" y="-375.5" font-family="Helvetica,sans-Serif" font-size="10.00">+</text>
<text xml:space="preserve" text-anchor="start" x="186.75" y="-375.5" font-family="Helvetica,sans-Serif" font-size="10.00">Task&lt; bool &gt; DeleteAsync</text>
<text xml:space="preserve" text-anchor="start" x="186.75" y="-363.5" font-family="Helvetica,sans-Serif" font-size="10.00">(int id)</text>
<text xml:space="preserve" text-anchor="start" x="176.75" y="-347.5" font-family="Helvetica,sans-Serif" font-size="10.00">+</text>
<text xml:space="preserve" text-anchor="start" x="186.75" y="-347.5" font-family="Helvetica,sans-Serif" font-size="10.00">Task&lt; List&lt; IngredientList</text>
<text xml:space="preserve" text-anchor="start" x="186.75" y="-335.5" font-family="Helvetica,sans-Serif" font-size="10.00">VM &gt; &gt; GetUsedIngredientsAsync()</text>
<polygon fill="#666666" stroke="#666666" points="172.75,-527 172.75,-527 347.5,-527 347.5,-527 172.75,-527"/>
<polygon fill="#666666" stroke="#666666" points="172.75,-511 172.75,-511 347.5,-511 347.5,-511 172.75,-511"/>
<polygon fill="none" stroke="#666666" points="172.75,-329 172.75,-545 347.5,-545 347.5,-329 172.75,-329"/>
</a>
</g>
</g>
<!-- Node5&#45;&gt;Node1 -->
<g id="edge4_Node000001_Node000005" class="edge">
<title>Node5&#45;&gt;Node1</title>
<g id="a_edge4_Node000001_Node000005"><a xlink:title=" ">
<path fill="none" stroke="#63b8ff" d="M223.86,-318.23C221.17,-309.5 218.44,-300.64 215.71,-291.77"/>
<polygon fill="none" stroke="#63b8ff" points="220.5,-319.23 226.79,-327.76 227.19,-317.17 220.5,-319.23"/>
</a>
</g>
</g>
</g>
</svg>
