<?xml version="1.0" encoding="UTF-8" standalone="no"?>
<!DOCTYPE svg PUBLIC "-//W3C//DTD SVG 1.1//EN"
 "http://www.w3.org/Graphics/SVG/1.1/DTD/svg11.dtd">
<!-- Generated by graphviz version 14.1.1 (20251213.1925)
 -->
<!-- Title: ListaZakupow.Model.DataModels.Ingredient Pages: 1 -->
<svg width="164pt" height="144pt"
 viewBox="0.00 0.00 164.00 144.00" xmlns="http://www.w3.org/2000/svg" xmlns:xlink="http://www.w3.org/1999/xlink">
<g id="graph0" class="graph" transform="scale(1 1) rotate(0) translate(4 140)">
<title>ListaZakupow.Model.DataModels.Ingredient</title>
<!-- Node1 -->
<g id="Node000001" class="node">
<title>Node1</title>
<g id="a_Node000001"><a xlink:title="Reprezentuje składnik, który może być użyty w przepisach i listach zakupów.">
<polygon fill="#999999" stroke="none" points="155.75,-136 0,-136 0,0 155.75,0 155.75,-136"/>
<text xml:space="preserve" text-anchor="start" x="4" y="-122.5" font-family="Helvetica,sans-Serif" font-size="10.00">ListaZakupow.Model.DataModels.</text>
<text xml:space="preserve" text-anchor="start" x="56.5" y="-110.5" font-family="Helvetica,sans-Serif" font-size="10.00">Ingredient</text>
<text xml:space="preserve" text-anchor="start" x="6.19" y="-94.5" font-family="Helvetica,sans-Serif" font-size="10.00">+</text>
<text xml:space="preserve" text-anchor="start" x="18.38" y="-94.5" font-family="Helvetica,sans-Serif" font-size="10.00">int Id</text>
<text xml:space="preserve" text-anchor="start" x="6.19" y="-78.5" font-family="Helvetica,sans-Serif" font-size="10.00">+</text>
<text xml:space="preserve" text-anchor="start" x="18.38" y="-78.5" font-family="Helvetica,sans-Serif" font-size="10.00">string Name</text>
<text xml:space="preserve" text-anchor="start" x="6.19" y="-62.5" font-family="Helvetica,sans-Serif" font-size="10.00">+</text>
<text xml:space="preserve" text-anchor="start" x="18.38" y="-62.5" font-family="Helvetica,sans-Serif" font-size="10.00">ICollection&lt; RecipeIngredient</text>
<text xml:space="preserve" text-anchor="start" x="18.38" y="-50.5" font-family="Helvetica,sans-Serif" font-size="10.00"> &gt; RecipeIngredients</text>
<text xml:space="preserve" text-anchor="start" x="6.19" y="-34.5" font-family="Helvetica,sans-Serif" font-size="10.00">+</text>
<text xml:space="preserve" text-anchor="start" x="18.38" y="-34.5" font-family="Helvetica,sans-Serif" font-size="10.00">ICollection&lt; ShoppingList</text>
<text xml:space="preserve" text-anchor="start" x="18.38" y="-22.5" font-family="Helvetica,sans-Serif" font-size="10.00">Item &gt; ShoppingListItems</text>
<text xml:space="preserve" text-anchor="start" x="76.38" y="-6.5" font-family="Helvetica,sans-Serif" font-size="10.00"> </text>
<polygon fill="#666666" stroke="#666666" points="0,-106 0,-106 155.75,-106 155.75,-106 0,-106"/>
<polygon fill="#666666" stroke="#666666" points="0,-18 0,-18 16.38,-18 16.38,-18 0,-18"/>
<polygon fill="#666666" stroke="#666666" points="16.38,-18 16.38,-18 155.75,-18 155.75,-18 16.38,-18"/>
<polygon fill="none" stroke="#666666" points="0,0 0,-136 155.75,-136 155.75,0 0,0"/>
</a>
</g>
</g>
</g>
</svg>
