<?xml version="1.0" encoding="UTF-8" standalone="no"?>
<!DOCTYPE svg PUBLIC "-//W3C//DTD SVG 1.1//EN"
 "http://www.w3.org/Graphics/SVG/1.1/DTD/svg11.dtd">
<!-- Generated by graphviz version 14.1.1 (20251213.1925)
 -->
<!-- Title: lab1_gr1.ViewModels.RecipeScheduleVM.DayRecipesVM Pages: 1 -->
<svg width="144pt" height="116pt"
 viewBox="0.00 0.00 144.00 116.00" xmlns="http://www.w3.org/2000/svg" xmlns:xlink="http://www.w3.org/1999/xlink">
<g id="graph0" class="graph" transform="scale(1 1) rotate(0) translate(4 112)">
<title>lab1_gr1.ViewModels.RecipeScheduleVM.DayRecipesVM</title>
<!-- Node1 -->
<g id="Node000001" class="node">
<title>Node1</title>
<g id="a_Node000001"><a xlink:title="ViewModel reprezentujący przepisy przypisane do jednego dnia tygodnia.">
<polygon fill="#999999" stroke="none" points="135.5,-108 0,-108 0,0 135.5,0 135.5,-108"/>
<text xml:space="preserve" text-anchor="start" x="4" y="-94.5" font-family="Helvetica,sans-Serif" font-size="10.00">lab1_gr1.ViewModels.Recipe</text>
<text xml:space="preserve" text-anchor="start" x="4" y="-82.5" font-family="Helvetica,sans-Serif" font-size="10.00">ScheduleVM.DayRecipesVM</text>
<text xml:space="preserve" text-anchor="start" x="11.81" y="-66.5" font-family="Helvetica,sans-Serif" font-size="10.00">+</text>
<text xml:space="preserve" text-anchor="start" x="29.62" y="-66.5" font-family="Helvetica,sans-Serif" font-size="10.00">int Day</text>
<text xml:space="preserve" text-anchor="start" x="11.81" y="-50.5" font-family="Helvetica,sans-Serif" font-size="10.00">+</text>
<text xml:space="preserve" text-anchor="start" x="29.62" y="-50.5" font-family="Helvetica,sans-Serif" font-size="10.00">string DayName</text>
<text xml:space="preserve" text-anchor="start" x="11.81" y="-34.5" font-family="Helvetica,sans-Serif" font-size="10.00">+</text>
<text xml:space="preserve" text-anchor="start" x="29.62" y="-34.5" font-family="Helvetica,sans-Serif" font-size="10.00">List&lt; RecipeListVM</text>
<text xml:space="preserve" text-anchor="start" x="29.62" y="-22.5" font-family="Helvetica,sans-Serif" font-size="10.00"> &gt; Recipes</text>
<text xml:space="preserve" text-anchor="start" x="66.25" y="-6.5" font-family="Helvetica,sans-Serif" font-size="10.00"> </text>
<polygon fill="#666666" stroke="#666666" points="0,-78 0,-78 135.5,-78 135.5,-78 0,-78"/>
<polygon fill="#666666" stroke="#666666" points="0,-18 0,-18 27.62,-18 27.62,-18 0,-18"/>
<polygon fill="#666666" stroke="#666666" points="27.62,-18 27.62,-18 135.5,-18 135.5,-18 27.62,-18"/>
<polygon fill="none" stroke="#666666" points="0,0 0,-108 135.5,-108 135.5,0 0,0"/>
</a>
</g>
</g>
</g>
</svg>
