<?xml version="1.0" encoding="UTF-8" standalone="no"?>
<!DOCTYPE svg PUBLIC "-//W3C//DTD SVG 1.1//EN"
 "http://www.w3.org/Graphics/SVG/1.1/DTD/svg11.dtd">
<!-- Generated by graphviz version 14.1.1 (20251213.1925)
 -->
<!-- Title: lab1_gr1.Models.MyDBContext Pages: 1 -->
<svg width="172pt" height="368pt"
 viewBox="0.00 0.00 172.00 368.00" xmlns="http://www.w3.org/2000/svg" xmlns:xlink="http://www.w3.org/1999/xlink">
<g id="graph0" class="graph" transform="scale(1 1) rotate(0) translate(4 364)">
<title>lab1_gr1.Models.MyDBContext</title>
<!-- Node1 -->
<g id="Node000001" class="node">
<title>Node1</title>
<g id="a_Node000001"><a xlink:title="Kontekst bazy danych dla aplikacji ListaZakupow. Zawiera DbSet&#45;y dla użytkowników,...">
<polygon fill="#999999" stroke="none" points="164.25,-272 0,-272 0,0 164.25,0 164.25,-272"/>
<text xml:space="preserve" text-anchor="start" x="13.88" y="-258.5" font-family="Helvetica,sans-Serif" font-size="10.00">lab1_gr1.Models.MyDBContext</text>
<text xml:space="preserve" text-anchor="start" x="4" y="-242.5" font-family="Helvetica,sans-Serif" font-size="10.00">+</text>
<text xml:space="preserve" text-anchor="start" x="14" y="-242.5" font-family="Helvetica,sans-Serif" font-size="10.00">virtual DbSet&lt; User</text>
<text xml:space="preserve" text-anchor="start" x="14" y="-230.5" font-family="Helvetica,sans-Serif" font-size="10.00"> &gt; Users</text>
<text xml:space="preserve" text-anchor="start" x="4" y="-214.5" font-family="Helvetica,sans-Serif" font-size="10.00">+</text>
<text xml:space="preserve" text-anchor="start" x="14" y="-214.5" font-family="Helvetica,sans-Serif" font-size="10.00">virtual DbSet&lt; Recipe</text>
<text xml:space="preserve" text-anchor="start" x="14" y="-202.5" font-family="Helvetica,sans-Serif" font-size="10.00"> &gt; Recipes</text>
<text xml:space="preserve" text-anchor="start" x="4" y="-186.5" font-family="Helvetica,sans-Serif" font-size="10.00">+</text>
<text xml:space="preserve" text-anchor="start" x="14" y="-186.5" font-family="Helvetica,sans-Serif" font-size="10.00">virtual DbSet&lt; Ingredient</text>
<text xml:space="preserve" text-anchor="start" x="14" y="-174.5" font-family="Helvetica,sans-Serif" font-size="10.00"> &gt; Ingredients</text>
<text xml:space="preserve" text-anchor="start" x="4" y="-158.5" font-family="Helvetica,sans-Serif" font-size="10.00">+</text>
<text xml:space="preserve" text-anchor="start" x="14" y="-158.5" font-family="Helvetica,sans-Serif" font-size="10.00">virtual DbSet&lt; RecipeIngredient</text>
<text xml:space="preserve" text-anchor="start" x="14" y="-146.5" font-family="Helvetica,sans-Serif" font-size="10.00"> &gt; RecipeIngredients</text>
<text xml:space="preserve" text-anchor="start" x="4" y="-130.5" font-family="Helvetica,sans-Serif" font-size="10.00">+</text>
<text xml:space="preserve" text-anchor="start" x="14" y="-130.5" font-family="Helvetica,sans-Serif" font-size="10.00">virtual DbSet&lt; RecipeSchedule</text>
<text xml:space="preserve" text-anchor="start" x="14" y="-118.5" font-family="Helvetica,sans-Serif" font-size="10.00"> &gt; RecipeSchedules</text>
<text xml:space="preserve" text-anchor="start" x="4" y="-102.5" font-family="Helvetica,sans-Serif" font-size="10.00">+</text>
<text xml:space="preserve" text-anchor="start" x="14" y="-102.5" font-family="Helvetica,sans-Serif" font-size="10.00">virtual DbSet&lt; ShoppingList</text>
<text xml:space="preserve" text-anchor="start" x="14" y="-90.5" font-family="Helvetica,sans-Serif" font-size="10.00"> &gt; ShoppingLists</text>
<text xml:space="preserve" text-anchor="start" x="4" y="-74.5" font-family="Helvetica,sans-Serif" font-size="10.00">+</text>
<text xml:space="preserve" text-anchor="start" x="14" y="-74.5" font-family="Helvetica,sans-Serif" font-size="10.00">virtual DbSet&lt; ShoppingList</text>
<text xml:space="preserve" text-anchor="start" x="14" y="-62.5" font-family="Helvetica,sans-Serif" font-size="10.00">Item &gt; ShoppingListItems</text>
<text xml:space="preserve" text-anchor="start" x="4" y="-46.5" font-family="Helvetica,sans-Serif" font-size="10.00">+</text>
<text xml:space="preserve" text-anchor="start" x="14" y="-46.5" font-family="Helvetica,sans-Serif" font-size="10.00">MyDBContext(DbContextOptions</text>
<text xml:space="preserve" text-anchor="start" x="14" y="-34.5" font-family="Helvetica,sans-Serif" font-size="10.00">&lt; MyDBContext &gt; options)</text>
<text xml:space="preserve" text-anchor="start" x="4.38" y="-18.5" font-family="Helvetica,sans-Serif" font-size="10.00">#</text>
<text xml:space="preserve" text-anchor="start" x="14" y="-18.5" font-family="Helvetica,sans-Serif" font-size="10.00">override void OnModelCreating</text>
<text xml:space="preserve" text-anchor="start" x="14" y="-6.5" font-family="Helvetica,sans-Serif" font-size="10.00">(ModelBuilder modelBuilder)</text>
<polygon fill="#666666" stroke="#666666" points="0,-254 0,-254 164.25,-254 164.25,-254 0,-254"/>
<polygon fill="#666666" stroke="#666666" points="0,-58 0,-58 12,-58 12,-58 0,-58"/>
<polygon fill="#666666" stroke="#666666" points="12,-58 12,-58 164.25,-58 164.25,-58 12,-58"/>
<polygon fill="none" stroke="#666666" points="0,0 0,-272 164.25,-272 164.25,0 0,0"/>
</a>
</g>
</g>
<!-- Node2 -->
<g id="Node000002" class="node">
<title>Node2</title>
<g id="a_Node000002"><a xlink:title=" ">
<polygon fill="white" stroke="none" points="109.75,-360 54.5,-360 54.5,-308 109.75,-308 109.75,-360"/>
<text xml:space="preserve" text-anchor="start" x="58.5" y="-346.5" font-family="Helvetica,sans-Serif" font-size="10.00">DbContext</text>
<text xml:space="preserve" text-anchor="start" x="80.62" y="-330.5" font-family="Helvetica,sans-Serif" font-size="10.00"> </text>
<text xml:space="preserve" text-anchor="start" x="80.62" y="-314.5" font-family="Helvetica,sans-Serif" font-size="10.00"> </text>
<polygon fill="#666666" stroke="#666666" points="54.5,-342 54.5,-342 109.75,-342 109.75,-342 54.5,-342"/>
<polygon fill="#666666" stroke="#666666" points="54.5,-326 54.5,-326 109.75,-326 109.75,-326 54.5,-326"/>
<polygon fill="none" stroke="#666666" points="54.5,-308 54.5,-360 109.75,-360 109.75,-308 54.5,-308"/>
</a>
</g>
</g>
<!-- Node2&#45;&gt;Node1 -->
<g id="edge1_Node000001_Node000002" class="edge">
<title>Node2&#45;&gt;Node1</title>
<g id="a_edge1_Node000001_Node000002"><a xlink:title=" ">
<path fill="none" stroke="#63b8ff" d="M82.12,-296.69C82.12,-289.15 82.12,-280.79 82.12,-271.96"/>
<polygon fill="none" stroke="#63b8ff" points="78.63,-296.66 82.13,-306.66 85.63,-296.66 78.63,-296.66"/>
</a>
</g>
</g>
</g>
</svg>
