<?xml version="1.0" encoding="UTF-8" standalone="no"?>
<!DOCTYPE svg PUBLIC "-//W3C//DTD SVG 1.1//EN"
 "http://www.w3.org/Graphics/SVG/1.1/DTD/svg11.dtd">
<!-- Generated by graphviz version 14.1.1 (20251213.1925)
 -->
<!-- Title: lab1_gr1.Services.RecipeScheduleService Pages: 1 -->
<!--zoomable 990 -->

<svg id="main" version="1.1" xmlns="http://www.w3.org/2000/svg" xmlns:xlink="http://www.w3.org/1999/xlink" xml:space="preserve" onload="init(evt)">
<style type="text/css"><![CDATA[
.node, .edge {opacity: 0.7;}
.node.selected, .edge.selected {opacity: 1;}
.edge:hover path { stroke: red; }
.edge:hover polygon { stroke: red; fill: red; }
]]></style>

<defs>
  <circle id="rim" cx="0" cy="0" r="7"/>
  <circle id="rim2" cx="0" cy="0" r="3.5"/>
  <g id="zoomPlus">
    <use xlink:href="#rim" fill="#404040"><set attributeName="fill" to="#808080" begin="zoomplus.mouseover" end="zoomplus.mouseout"/></use>
    <path d="M-4,0h8M0,-4v8" fill="none" stroke="white" stroke-width="1.5" pointer-events="none"/>
  </g>
  <g id="zoomMin">
    <use xlink:href="#rim" fill="#404040"><set attributeName="fill" to="#808080" begin="zoomminus.mouseover" end="zoomminus.mouseout"/></use>
    <path d="M-4,0h8" fill="none" stroke="white" stroke-width="1.5" pointer-events="none"/>
  </g>
  <g id="arrowUp" transform="translate(30 24)">
    <use xlink:href="#rim"/>
    <path pointer-events="none" fill="none" stroke="white" stroke-width="1.5" d="M0,-3.0v7 M-2.5,-0.5L0,-3.0L2.5,-0.5"/>
  </g>
  <g id="arrowRight" transform="rotate(90) translate(36 -43)">
    <use xlink:href="#rim"/>
    <path pointer-events="none" fill="none" stroke="white" stroke-width="1.5" d="M0,-3.0v7 M-2.5,-0.5L0,-3.0L2.5,-0.5"/>
  </g>
  <g id="arrowDown" transform="rotate(180) translate(-30 -48)">
    <use xlink:href="#rim"/>
    <path pointer-events="none" fill="none" stroke="white" stroke-width="1.5" d="M0,-3.0v7 M-2.5,-0.5L0,-3.0L2.5,-0.5"/>
  </g>
  <g id="arrowLeft" transform="rotate(270) translate(-36 17)">
    <use xlink:href="#rim"/>
    <path pointer-events="none" fill="none" stroke="white" stroke-width="1.5" d="M0,-3.0v7 M-2.5,-0.5L0,-3.0L2.5,-0.5"/>
  </g>
  <g id="resetDef">
    <use xlink:href="#rim2" fill="#404040"><set attributeName="fill" to="#808080" begin="reset.mouseover" end="reset.mouseout"/></use>
  </g>
</defs>
<script type="application/ecmascript">
var viewWidth = 346;
var viewHeight = 990;
var sectionId = 'dynsection-1';
</script>
<script type="application/ecmascript" xlink:href="svg.min.js"/>
<svg id="graph" class="graph">
<g id="viewport">
<title>lab1_gr1.Services.RecipeScheduleService</title>
<!-- Node1 -->
<g id="Node000001" class="node">
<title>Node1</title>
<g id="a_Node000001"><a xlink:title="Serwis odpowiedzialny za zarządzanie harmonogramem przepisów użytkownika (planowanie posiłków na dni ...">
<polygon fill="#999999" stroke="none" points="291.75,-300 130.5,-300 130.5,0 291.75,0 291.75,-300"/>
<text xml:space="preserve" text-anchor="start" x="155.25" y="-286.5" font-family="Helvetica,sans-Serif" font-size="10.00">lab1_gr1.Services.Recipe</text>
<text xml:space="preserve" text-anchor="start" x="174.38" y="-274.5" font-family="Helvetica,sans-Serif" font-size="10.00">ScheduleService</text>
<text xml:space="preserve" text-anchor="start" x="209.62" y="-258.5" font-family="Helvetica,sans-Serif" font-size="10.00"> </text>
<text xml:space="preserve" text-anchor="start" x="134.5" y="-242.5" font-family="Helvetica,sans-Serif" font-size="10.00">+</text>
<text xml:space="preserve" text-anchor="start" x="144.5" y="-242.5" font-family="Helvetica,sans-Serif" font-size="10.00">RecipeScheduleService</text>
<text xml:space="preserve" text-anchor="start" x="144.5" y="-230.5" font-family="Helvetica,sans-Serif" font-size="10.00">(MyDBContext dbContext,</text>
<text xml:space="preserve" text-anchor="start" x="144.5" y="-218.5" font-family="Helvetica,sans-Serif" font-size="10.00"> IMapper mapper)</text>
<text xml:space="preserve" text-anchor="start" x="134.5" y="-202.5" font-family="Helvetica,sans-Serif" font-size="10.00">+</text>
<text xml:space="preserve" text-anchor="start" x="144.5" y="-202.5" font-family="Helvetica,sans-Serif" font-size="10.00">async Task&lt; WeekVM</text>
<text xml:space="preserve" text-anchor="start" x="144.5" y="-190.5" font-family="Helvetica,sans-Serif" font-size="10.00"> &gt; GetRecipesPerWeekAsync</text>
<text xml:space="preserve" text-anchor="start" x="144.5" y="-178.5" font-family="Helvetica,sans-Serif" font-size="10.00">(int userId)</text>
<text xml:space="preserve" text-anchor="start" x="134.5" y="-162.5" font-family="Helvetica,sans-Serif" font-size="10.00">+</text>
<text xml:space="preserve" text-anchor="start" x="144.5" y="-162.5" font-family="Helvetica,sans-Serif" font-size="10.00">async Task AddRecipeToDay</text>
<text xml:space="preserve" text-anchor="start" x="144.5" y="-150.5" font-family="Helvetica,sans-Serif" font-size="10.00">Async(int userId, int recipeId,</text>
<text xml:space="preserve" text-anchor="start" x="144.5" y="-138.5" font-family="Helvetica,sans-Serif" font-size="10.00"> int dayOfWeek)</text>
<text xml:space="preserve" text-anchor="start" x="134.5" y="-122.5" font-family="Helvetica,sans-Serif" font-size="10.00">+</text>
<text xml:space="preserve" text-anchor="start" x="144.5" y="-122.5" font-family="Helvetica,sans-Serif" font-size="10.00">async Task RemoveRecipeFrom</text>
<text xml:space="preserve" text-anchor="start" x="144.5" y="-110.5" font-family="Helvetica,sans-Serif" font-size="10.00">DayAsync(int userId, int</text>
<text xml:space="preserve" text-anchor="start" x="144.5" y="-98.5" font-family="Helvetica,sans-Serif" font-size="10.00"> recipeId, int dayOfWeek)</text>
<text xml:space="preserve" text-anchor="start" x="134.5" y="-82.5" font-family="Helvetica,sans-Serif" font-size="10.00">+</text>
<text xml:space="preserve" text-anchor="start" x="144.5" y="-82.5" font-family="Helvetica,sans-Serif" font-size="10.00">async Task&lt; List&lt; Recipe</text>
<text xml:space="preserve" text-anchor="start" x="144.5" y="-70.5" font-family="Helvetica,sans-Serif" font-size="10.00">ListVM &gt; &gt; GetAvailableRecipes</text>
<text xml:space="preserve" text-anchor="start" x="144.5" y="-58.5" font-family="Helvetica,sans-Serif" font-size="10.00">ForUserAsync(int userId)</text>
<text xml:space="preserve" text-anchor="start" x="134.5" y="-42.5" font-family="Helvetica,sans-Serif" font-size="10.00">+</text>
<text xml:space="preserve" text-anchor="start" x="144.5" y="-42.5" font-family="Helvetica,sans-Serif" font-size="10.00">async Task&lt; bool &gt;</text>
<text xml:space="preserve" text-anchor="start" x="144.5" y="-30.5" font-family="Helvetica,sans-Serif" font-size="10.00"> AddExistingRecipeToSchedule</text>
<text xml:space="preserve" text-anchor="start" x="144.5" y="-18.5" font-family="Helvetica,sans-Serif" font-size="10.00">Async(int recipeId, int userId,</text>
<text xml:space="preserve" text-anchor="start" x="144.5" y="-6.5" font-family="Helvetica,sans-Serif" font-size="10.00"> int dayOfWeek)</text>
<polygon fill="#666666" stroke="#666666" points="130.5,-270 130.5,-270 291.75,-270 291.75,-270 130.5,-270"/>
<polygon fill="#666666" stroke="#666666" points="130.5,-254 130.5,-254 291.75,-254 291.75,-254 130.5,-254"/>
<polygon fill="none" stroke="#666666" points="130.5,0 130.5,-300 291.75,-300 291.75,0 130.5,0"/>
</a>
</g>
</g>
<!-- Node2 -->
<g id="Node000002" class="node">
<title>Node2</title>
<g id="a_Node000002"><a xlink:href="classlab1__gr1_1_1_services_1_1_base_service.html" target="_top" xlink:title="Klasa bazowa dla wszystkich serwisów aplikacji. Zapewnia dostęp do kontekstu bazy danych oraz mechani...">
<polygon fill="white" stroke="none" points="154.5,-487 9.75,-487 9.75,-423 154.5,-423 154.5,-487"/>
<text xml:space="preserve" text-anchor="start" x="54.38" y="-473.5" font-family="Helvetica,sans-Serif" font-size="10.00">BaseService</text>
<text xml:space="preserve" text-anchor="start" x="13.75" y="-457.5" font-family="Helvetica,sans-Serif" font-size="10.00">#</text>
<text xml:space="preserve" text-anchor="start" x="23" y="-457.5" font-family="Helvetica,sans-Serif" font-size="10.00">readonly IMapper _mapper</text>
<text xml:space="preserve" text-anchor="start" x="13.75" y="-441.5" font-family="Helvetica,sans-Serif" font-size="10.00">#</text>
<text xml:space="preserve" text-anchor="start" x="23" y="-441.5" font-family="Helvetica,sans-Serif" font-size="10.00">BaseService(MyDBContext</text>
<text xml:space="preserve" text-anchor="start" x="23" y="-429.5" font-family="Helvetica,sans-Serif" font-size="10.00"> dbContext, IMapper mapper)</text>
<polygon fill="#666666" stroke="#666666" points="9.75,-469 9.75,-469 154.5,-469 154.5,-469 9.75,-469"/>
<polygon fill="#666666" stroke="#666666" points="9.75,-453 9.75,-453 21,-453 21,-453 9.75,-453"/>
<polygon fill="#666666" stroke="#666666" points="21,-453 21,-453 154.5,-453 154.5,-453 21,-453"/>
<polygon fill="none" stroke="#666666" points="9.75,-423 9.75,-487 154.5,-487 154.5,-423 9.75,-423"/>
</a>
</g>
</g>
<!-- Node2&#45;&gt;Node1 -->
<g id="edge1_Node000001_Node000002" class="edge">
<title>Node2&#45;&gt;Node1</title>
<g id="a_edge1_Node000001_Node000002"><a xlink:title=" ">
<path fill="none" stroke="#63b8ff" d="M99.6,-412.95C112.21,-383.33 130.07,-341.38 147.81,-299.71"/>
<polygon fill="none" stroke="#63b8ff" points="96.49,-411.31 95.8,-421.89 102.93,-414.06 96.49,-411.31"/>
</a>
</g>
</g>
<!-- Node3 -->
<g id="Node000003" class="node">
<title>Node3</title>
<g id="a_Node000003"><a xlink:href="classlab1__gr1_1_1_models_1_1_my_d_b_context.html" target="_top" xlink:title="Kontekst bazy danych dla aplikacji ListaZakupow. Zawiera DbSet&#45;y dla użytkowników,...">
<polygon fill="white" stroke="none" points="164.25,-893 0,-893 0,-621 164.25,-621 164.25,-893"/>
<text xml:space="preserve" text-anchor="start" x="13.88" y="-879.5" font-family="Helvetica,sans-Serif" font-size="10.00">lab1_gr1.Models.MyDBContext</text>
<text xml:space="preserve" text-anchor="start" x="4" y="-863.5" font-family="Helvetica,sans-Serif" font-size="10.00">+</text>
<text xml:space="preserve" text-anchor="start" x="14" y="-863.5" font-family="Helvetica,sans-Serif" font-size="10.00">virtual DbSet&lt; User</text>
<text xml:space="preserve" text-anchor="start" x="14" y="-851.5" font-family="Helvetica,sans-Serif" font-size="10.00"> &gt; Users</text>
<text xml:space="preserve" text-anchor="start" x="4" y="-835.5" font-family="Helvetica,sans-Serif" font-size="10.00">+</text>
<text xml:space="preserve" text-anchor="start" x="14" y="-835.5" font-family="Helvetica,sans-Serif" font-size="10.00">virtual DbSet&lt; Recipe</text>
<text xml:space="preserve" text-anchor="start" x="14" y="-823.5" font-family="Helvetica,sans-Serif" font-size="10.00"> &gt; Recipes</text>
<text xml:space="preserve" text-anchor="start" x="4" y="-807.5" font-family="Helvetica,sans-Serif" font-size="10.00">+</text>
<text xml:space="preserve" text-anchor="start" x="14" y="-807.5" font-family="Helvetica,sans-Serif" font-size="10.00">virtual DbSet&lt; Ingredient</text>
<text xml:space="preserve" text-anchor="start" x="14" y="-795.5" font-family="Helvetica,sans-Serif" font-size="10.00"> &gt; Ingredients</text>
<text xml:space="preserve" text-anchor="start" x="4" y="-779.5" font-family="Helvetica,sans-Serif" font-size="10.00">+</text>
<text xml:space="preserve" text-anchor="start" x="14" y="-779.5" font-family="Helvetica,sans-Serif" font-size="10.00">virtual DbSet&lt; RecipeIngredient</text>
<text xml:space="preserve" text-anchor="start" x="14" y="-767.5" font-family="Helvetica,sans-Serif" font-size="10.00"> &gt; RecipeIngredients</text>
<text xml:space="preserve" text-anchor="start" x="4" y="-751.5" font-family="Helvetica,sans-Serif" font-size="10.00">+</text>
<text xml:space="preserve" text-anchor="start" x="14" y="-751.5" font-family="Helvetica,sans-Serif" font-size="10.00">virtual DbSet&lt; RecipeSchedule</text>
<text xml:space="preserve" text-anchor="start" x="14" y="-739.5" font-family="Helvetica,sans-Serif" font-size="10.00"> &gt; RecipeSchedules</text>
<text xml:space="preserve" text-anchor="start" x="4" y="-723.5" font-family="Helvetica,sans-Serif" font-size="10.00">+</text>
<text xml:space="preserve" text-anchor="start" x="14" y="-723.5" font-family="Helvetica,sans-Serif" font-size="10.00">virtual DbSet&lt; ShoppingList</text>
<text xml:space="preserve" text-anchor="start" x="14" y="-711.5" font-family="Helvetica,sans-Serif" font-size="10.00"> &gt; ShoppingLists</text>
<text xml:space="preserve" text-anchor="start" x="4" y="-695.5" font-family="Helvetica,sans-Serif" font-size="10.00">+</text>
<text xml:space="preserve" text-anchor="start" x="14" y="-695.5" font-family="Helvetica,sans-Serif" font-size="10.00">virtual DbSet&lt; ShoppingList</text>
<text xml:space="preserve" text-anchor="start" x="14" y="-683.5" font-family="Helvetica,sans-Serif" font-size="10.00">Item &gt; ShoppingListItems</text>
<text xml:space="preserve" text-anchor="start" x="4" y="-667.5" font-family="Helvetica,sans-Serif" font-size="10.00">+</text>
<text xml:space="preserve" text-anchor="start" x="14" y="-667.5" font-family="Helvetica,sans-Serif" font-size="10.00">MyDBContext(DbContextOptions</text>
<text xml:space="preserve" text-anchor="start" x="14" y="-655.5" font-family="Helvetica,sans-Serif" font-size="10.00">&lt; MyDBContext &gt; options)</text>
<text xml:space="preserve" text-anchor="start" x="4.38" y="-639.5" font-family="Helvetica,sans-Serif" font-size="10.00">#</text>
<text xml:space="preserve" text-anchor="start" x="14" y="-639.5" font-family="Helvetica,sans-Serif" font-size="10.00">override void OnModelCreating</text>
<text xml:space="preserve" text-anchor="start" x="14" y="-627.5" font-family="Helvetica,sans-Serif" font-size="10.00">(ModelBuilder modelBuilder)</text>
<polygon fill="#666666" stroke="#666666" points="0,-875 0,-875 164.25,-875 164.25,-875 0,-875"/>
<polygon fill="#666666" stroke="#666666" points="0,-679 0,-679 12,-679 12,-679 0,-679"/>
<polygon fill="#666666" stroke="#666666" points="12,-679 12,-679 164.25,-679 164.25,-679 12,-679"/>
<polygon fill="none" stroke="#666666" points="0,-621 0,-893 164.25,-893 164.25,-621 0,-621"/>
</a>
</g>
</g>
<!-- Node3&#45;&gt;Node2 -->
<g id="edge2_Node000002_Node000003" class="edge">
<title>Node3&#45;&gt;Node2</title>
<g id="a_edge2_Node000002_Node000003"><a xlink:title=" ">
<path fill="none" stroke="#63b8ff" d="M82.12,-621.36C82.12,-577.61 82.12,-532.09 82.12,-499.92"/>
<polygon fill="none" stroke="#63b8ff" points="82.13,-499.89 78.13,-493.89 82.13,-487.89 86.13,-493.89 82.13,-499.89"/>
</a>
</g>
<text xml:space="preserve" text-anchor="middle" x="111.38" y="-593.5" font-family="Helvetica,sans-Serif" font-size="10.00" fill="grey"> #_dbContext</text>
</g>
<!-- Node4 -->
<g id="Node000004" class="node">
<title>Node4</title>
<g id="a_Node000004"><a xlink:title=" ">
<polygon fill="white" stroke="none" points="109.75,-982 54.5,-982 54.5,-930 109.75,-930 109.75,-982"/>
<text xml:space="preserve" text-anchor="start" x="58.5" y="-968.5" font-family="Helvetica,sans-Serif" font-size="10.00">DbContext</text>
<text xml:space="preserve" text-anchor="start" x="80.62" y="-952.5" font-family="Helvetica,sans-Serif" font-size="10.00"> </text>
<text xml:space="preserve" text-anchor="start" x="80.62" y="-936.5" font-family="Helvetica,sans-Serif" font-size="10.00"> </text>
<polygon fill="#666666" stroke="#666666" points="54.5,-964 54.5,-964 109.75,-964 109.75,-964 54.5,-964"/>
<polygon fill="#666666" stroke="#666666" points="54.5,-948 54.5,-948 109.75,-948 109.75,-948 54.5,-948"/>
<polygon fill="none" stroke="#666666" points="54.5,-930 54.5,-982 109.75,-982 109.75,-930 54.5,-930"/>
</a>
</g>
</g>
<!-- Node4&#45;&gt;Node3 -->
<g id="edge3_Node000003_Node000004" class="edge">
<title>Node4&#45;&gt;Node3</title>
<g id="a_edge3_Node000003_Node000004"><a xlink:title=" ">
<path fill="none" stroke="#63b8ff" d="M82.12,-918.81C82.12,-910.92 82.12,-902.12 82.12,-892.81"/>
<polygon fill="none" stroke="#63b8ff" points="78.63,-918.54 82.13,-928.54 85.63,-918.54 78.63,-918.54"/>
</a>
</g>
</g>
<!-- Node5 -->
<g id="Node000005" class="node">
<title>Node5</title>
<g id="a_Node000005"><a xlink:href="interfacelab1__gr1_1_1_interfaces_1_1_i_recipe_schedule_service.html" target="_top" xlink:title="Interfejs definiujący metody serwisu do zarządzania harmonogramem przepisów użytkownika.">
<polygon fill="white" stroke="none" points="338,-573 172.25,-573 172.25,-337 338,-337 338,-573"/>
<text xml:space="preserve" text-anchor="start" x="201.5" y="-559.5" font-family="Helvetica,sans-Serif" font-size="10.00">IRecipeScheduleService</text>
<text xml:space="preserve" text-anchor="start" x="253.62" y="-543.5" font-family="Helvetica,sans-Serif" font-size="10.00"> </text>
<text xml:space="preserve" text-anchor="start" x="176.25" y="-527.5" font-family="Helvetica,sans-Serif" font-size="10.00">+</text>
<text xml:space="preserve" text-anchor="start" x="186.25" y="-527.5" font-family="Helvetica,sans-Serif" font-size="10.00">Task&lt; WeekVM &gt; GetRecipes</text>
<text xml:space="preserve" text-anchor="start" x="186.25" y="-515.5" font-family="Helvetica,sans-Serif" font-size="10.00">PerWeekAsync(int userId)</text>
<text xml:space="preserve" text-anchor="start" x="176.25" y="-499.5" font-family="Helvetica,sans-Serif" font-size="10.00">+</text>
<text xml:space="preserve" text-anchor="start" x="186.25" y="-499.5" font-family="Helvetica,sans-Serif" font-size="10.00">Task AddRecipeToDayAsync</text>
<text xml:space="preserve" text-anchor="start" x="186.25" y="-487.5" font-family="Helvetica,sans-Serif" font-size="10.00">(int userId, int recipeId,</text>
<text xml:space="preserve" text-anchor="start" x="186.25" y="-475.5" font-family="Helvetica,sans-Serif" font-size="10.00"> int dayOfWeek)</text>
<text xml:space="preserve" text-anchor="start" x="176.25" y="-459.5" font-family="Helvetica,sans-Serif" font-size="10.00">+</text>
<text xml:space="preserve" text-anchor="start" x="186.25" y="-459.5" font-family="Helvetica,sans-Serif" font-size="10.00">Task RemoveRecipeFromDay</text>
<text xml:space="preserve" text-anchor="start" x="186.25" y="-447.5" font-family="Helvetica,sans-Serif" font-size="10.00">Async(int userId, int</text>
<text xml:space="preserve" text-anchor="start" x="186.25" y="-435.5" font-family="Helvetica,sans-Serif" font-size="10.00"> recipeId, int dayOfWeek)</text>
<text xml:space="preserve" text-anchor="start" x="176.25" y="-419.5" font-family="Helvetica,sans-Serif" font-size="10.00">+</text>
<text xml:space="preserve" text-anchor="start" x="186.25" y="-419.5" font-family="Helvetica,sans-Serif" font-size="10.00">Task&lt; List&lt; RecipeListVM</text>
<text xml:space="preserve" text-anchor="start" x="186.25" y="-407.5" font-family="Helvetica,sans-Serif" font-size="10.00"> &gt; &gt; GetAvailableRecipesForUser</text>
<text xml:space="preserve" text-anchor="start" x="186.25" y="-395.5" font-family="Helvetica,sans-Serif" font-size="10.00">Async(int userId)</text>
<text xml:space="preserve" text-anchor="start" x="176.25" y="-379.5" font-family="Helvetica,sans-Serif" font-size="10.00">+</text>
<text xml:space="preserve" text-anchor="start" x="186.25" y="-379.5" font-family="Helvetica,sans-Serif" font-size="10.00">Task&lt; bool &gt; AddExisting</text>
<text xml:space="preserve" text-anchor="start" x="186.25" y="-367.5" font-family="Helvetica,sans-Serif" font-size="10.00">RecipeToScheduleAsync</text>
<text xml:space="preserve" text-anchor="start" x="186.25" y="-355.5" font-family="Helvetica,sans-Serif" font-size="10.00">(int recipeId, int userId,</text>
<text xml:space="preserve" text-anchor="start" x="186.25" y="-343.5" font-family="Helvetica,sans-Serif" font-size="10.00"> int dayOfWeek)</text>
<polygon fill="#666666" stroke="#666666" points="172.25,-555 172.25,-555 338,-555 338,-555 172.25,-555"/>
<polygon fill="#666666" stroke="#666666" points="172.25,-539 172.25,-539 338,-539 338,-539 172.25,-539"/>
<polygon fill="none" stroke="#666666" points="172.25,-337 172.25,-573 338,-573 338,-337 172.25,-337"/>
</a>
</g>
</g>
<!-- Node5&#45;&gt;Node1 -->
<g id="edge4_Node000001_Node000005" class="edge">
<title>Node5&#45;&gt;Node1</title>
<g id="a_edge4_Node000001_Node000005"><a xlink:title=" ">
<path fill="none" stroke="#63b8ff" d="M236.54,-326.01C235.28,-317.37 234.02,-308.63 232.75,-299.91"/>
<polygon fill="none" stroke="#63b8ff" points="233.06,-326.39 237.96,-335.79 239.99,-325.39 233.06,-326.39"/>
</a>
</g>
</g>
</g>
</svg>

<g id="navigator" transform="translate(0 0)" fill="#404254">
  <rect fill="#f2f5e9" fill-opacity="0.5" stroke="#606060" stroke-width=".5" x="0" y="0" width="60" height="60"/>
  <use id="zoomplus" xlink:href="#zoomPlus" x="17" y="9" onmousedown="handleZoom(evt,'in')"/>
  <use id="zoomminus" xlink:href="#zoomMin" x="42" y="9" onmousedown="handleZoom(evt,'out')"/>
  <use id="reset" xlink:href="#resetDef" x="30" y="36" onmousedown="handleReset()"/>
   <use id="arrowup" xlink:href="#arrowUp" x="0" y="0" onmousedown="handlePan(0,-1)"/>
  <use id="arrowright" xlink:href="#arrowRight" x="0" y="0" onmousedown="handlePan(1,0)"/>
  <use id="arrowdown" xlink:href="#arrowDown" x="0" y="0" onmousedown="handlePan(0,1)"/>
  <use id="arrowleft" xlink:href="#arrowLeft" x="0" y="0" onmousedown="handlePan(-1,0)"/>
</g>
<svg viewBox="0 0 15 15" width="100%" height="30px" preserveAspectRatio="xMaxYMin meet">
 <g id="arrow_out" transform="scale(0.3 0.3)">
  <a xlink:href="classlab1__gr1_1_1_services_1_1_recipe_schedule_service__coll__graph_org.svg" target="_base">
   <rect id="button" ry="5" rx="5" y="6" x="6" height="38" width="38"
        fill="#f2f5e9" fill-opacity="0.5" stroke="#606060" stroke-width="1.0"/>
   <path id="arrow"
     d="M 11.500037,31.436501 C 11.940474,20.09759 22.043105,11.32322 32.158766,21.979434 L 37.068811,17.246167 C 37.068811,17.246167 37.088388,32 37.088388,32 L 22.160133,31.978069 C 22.160133,31.978069 26.997745,27.140456 26.997745,27.140456 C 18.528582,18.264221 13.291696,25.230495 11.500037,31.436501 z"
     style="fill:#404040;"/>
  </a>
 </g>
</svg>

<style type='text/css'>
<![CDATA[
[data-mouse-over-selected='false'] { opacity: 0.7; }
[data-mouse-over-selected='true']  { opacity: 1.0; }
]]>
</style>
<script type="application/ecmascript"><![CDATA[
document.addEventListener('DOMContentLoaded', (event) => {
  highlightEdges();
  highlightAdjacentNodes();
});
]]></script>
</svg>
