<?xml version="1.0" encoding="UTF-8" standalone="no"?>
<!DOCTYPE svg PUBLIC "-//W3C//DTD SVG 1.1//EN"
 "http://www.w3.org/Graphics/SVG/1.1/DTD/svg11.dtd">
<!-- Generated by graphviz version 14.1.1 (20251213.1925)
 -->
<!-- Title: lab1_gr1.ViewModels.UserVM.RegisterVM Pages: 1 -->
<svg width="133pt" height="104pt"
 viewBox="0.00 0.00 133.00 104.00" xmlns="http://www.w3.org/2000/svg" xmlns:xlink="http://www.w3.org/1999/xlink">
<g id="graph0" class="graph" transform="scale(1 1) rotate(0) translate(4 100)">
<title>lab1_gr1.ViewModels.UserVM.RegisterVM</title>
<!-- Node1 -->
<g id="Node000001" class="node">
<title>Node1</title>
<g id="a_Node000001"><a xlink:title="ViewModel używany do rejestracji nowego użytkownika.">
<polygon fill="#999999" stroke="none" points="125,-96 0,-96 0,0 125,0 125,-96"/>
<text xml:space="preserve" text-anchor="start" x="4" y="-82.5" font-family="Helvetica,sans-Serif" font-size="10.00">lab1_gr1.ViewModels.User</text>
<text xml:space="preserve" text-anchor="start" x="27.62" y="-70.5" font-family="Helvetica,sans-Serif" font-size="10.00">VM.RegisterVM</text>
<text xml:space="preserve" text-anchor="start" x="4.5" y="-54.5" font-family="Helvetica,sans-Serif" font-size="10.00">+</text>
<text xml:space="preserve" text-anchor="start" x="15" y="-54.5" font-family="Helvetica,sans-Serif" font-size="10.00">string Username</text>
<text xml:space="preserve" text-anchor="start" x="4.5" y="-38.5" font-family="Helvetica,sans-Serif" font-size="10.00">+</text>
<text xml:space="preserve" text-anchor="start" x="15" y="-38.5" font-family="Helvetica,sans-Serif" font-size="10.00">string Password</text>
<text xml:space="preserve" text-anchor="start" x="4.5" y="-22.5" font-family="Helvetica,sans-Serif" font-size="10.00">+</text>
<text xml:space="preserve" text-anchor="start" x="15" y="-22.5" font-family="Helvetica,sans-Serif" font-size="10.00">string ConfirmPassword</text>
<text xml:space="preserve" text-anchor="start" x="61" y="-6.5" font-family="Helvetica,sans-Serif" font-size="10.00"> </text>
<polygon fill="#666666" stroke="#666666" points="0,-66 0,-66 125,-66 125,-66 0,-66"/>
<polygon fill="#666666" stroke="#666666" points="0,-18 0,-18 13,-18 13,-18 0,-18"/>
<polygon fill="#666666" stroke="#666666" points="13,-18 13,-18 125,-18 125,-18 13,-18"/>
<polygon fill="none" stroke="#666666" points="0,0 0,-96 125,-96 125,0 0,0"/>
</a>
</g>
</g>
</g>
</svg>
