<?xml version="1.0" encoding="UTF-8" standalone="no"?>
<!DOCTYPE svg PUBLIC "-//W3C//DTD SVG 1.1//EN"
 "http://www.w3.org/Graphics/SVG/1.1/DTD/svg11.dtd">
<!-- Generated by graphviz version 14.1.1 (20251213.1925)
 -->
<!-- Title: lab1_gr1.Controllers.ShoppingListController Pages: 1 -->
<svg width="203pt" height="604pt"
 viewBox="0.00 0.00 203.00 604.00" xmlns="http://www.w3.org/2000/svg" xmlns:xlink="http://www.w3.org/1999/xlink">
<g id="graph0" class="graph" transform="scale(1 1) rotate(0) translate(4 600)">
<title>lab1_gr1.Controllers.ShoppingListController</title>
<!-- Node1 -->
<g id="Node000001" class="node">
<title>Node1</title>
<g id="a_Node000001"><a xlink:title="Kontroler odpowiedzialny za zarządzanie listami zakupów użytkownika. Umożliwia tworzenie,...">
<polygon fill="#999999" stroke="none" points="195,-420 0,-420 0,0 195,0 195,-420"/>
<text xml:space="preserve" text-anchor="start" x="32.25" y="-406.5" font-family="Helvetica,sans-Serif" font-size="10.00">lab1_gr1.Controllers.Shopping</text>
<text xml:space="preserve" text-anchor="start" x="68.62" y="-394.5" font-family="Helvetica,sans-Serif" font-size="10.00">ListController</text>
<text xml:space="preserve" text-anchor="start" x="96" y="-378.5" font-family="Helvetica,sans-Serif" font-size="10.00"> </text>
<text xml:space="preserve" text-anchor="start" x="4" y="-362.5" font-family="Helvetica,sans-Serif" font-size="10.00">+</text>
<text xml:space="preserve" text-anchor="start" x="14" y="-362.5" font-family="Helvetica,sans-Serif" font-size="10.00">ShoppingListController</text>
<text xml:space="preserve" text-anchor="start" x="14" y="-350.5" font-family="Helvetica,sans-Serif" font-size="10.00">(IShoppingListService</text>
<text xml:space="preserve" text-anchor="start" x="14" y="-338.5" font-family="Helvetica,sans-Serif" font-size="10.00"> shoppingListService, IIngredient</text>
<text xml:space="preserve" text-anchor="start" x="14" y="-326.5" font-family="Helvetica,sans-Serif" font-size="10.00">Service ingredientService)</text>
<text xml:space="preserve" text-anchor="start" x="4" y="-310.5" font-family="Helvetica,sans-Serif" font-size="10.00">+</text>
<text xml:space="preserve" text-anchor="start" x="14" y="-310.5" font-family="Helvetica,sans-Serif" font-size="10.00">async Task&lt; IActionResult</text>
<text xml:space="preserve" text-anchor="start" x="14" y="-298.5" font-family="Helvetica,sans-Serif" font-size="10.00"> &gt; Index()</text>
<text xml:space="preserve" text-anchor="start" x="4" y="-282.5" font-family="Helvetica,sans-Serif" font-size="10.00">+</text>
<text xml:space="preserve" text-anchor="start" x="14" y="-282.5" font-family="Helvetica,sans-Serif" font-size="10.00">async Task&lt; IActionResult</text>
<text xml:space="preserve" text-anchor="start" x="14" y="-270.5" font-family="Helvetica,sans-Serif" font-size="10.00"> &gt; Details(int id)</text>
<text xml:space="preserve" text-anchor="start" x="4" y="-254.5" font-family="Helvetica,sans-Serif" font-size="10.00">+</text>
<text xml:space="preserve" text-anchor="start" x="14" y="-254.5" font-family="Helvetica,sans-Serif" font-size="10.00">async Task&lt; IActionResult</text>
<text xml:space="preserve" text-anchor="start" x="14" y="-242.5" font-family="Helvetica,sans-Serif" font-size="10.00"> &gt; Create()</text>
<text xml:space="preserve" text-anchor="start" x="4" y="-226.5" font-family="Helvetica,sans-Serif" font-size="10.00">+</text>
<text xml:space="preserve" text-anchor="start" x="14" y="-226.5" font-family="Helvetica,sans-Serif" font-size="10.00">async Task&lt; IActionResult</text>
<text xml:space="preserve" text-anchor="start" x="14" y="-214.5" font-family="Helvetica,sans-Serif" font-size="10.00"> &gt; Create(CreateShoppingListVM model)</text>
<text xml:space="preserve" text-anchor="start" x="4" y="-198.5" font-family="Helvetica,sans-Serif" font-size="10.00">+</text>
<text xml:space="preserve" text-anchor="start" x="14" y="-198.5" font-family="Helvetica,sans-Serif" font-size="10.00">async Task&lt; IActionResult</text>
<text xml:space="preserve" text-anchor="start" x="14" y="-186.5" font-family="Helvetica,sans-Serif" font-size="10.00"> &gt; Delete(int id)</text>
<text xml:space="preserve" text-anchor="start" x="4" y="-170.5" font-family="Helvetica,sans-Serif" font-size="10.00">+</text>
<text xml:space="preserve" text-anchor="start" x="14" y="-170.5" font-family="Helvetica,sans-Serif" font-size="10.00">async Task&lt; IActionResult</text>
<text xml:space="preserve" text-anchor="start" x="14" y="-158.5" font-family="Helvetica,sans-Serif" font-size="10.00"> &gt; Edit(int id)</text>
<text xml:space="preserve" text-anchor="start" x="4" y="-142.5" font-family="Helvetica,sans-Serif" font-size="10.00">+</text>
<text xml:space="preserve" text-anchor="start" x="14" y="-142.5" font-family="Helvetica,sans-Serif" font-size="10.00">async Task&lt; IActionResult</text>
<text xml:space="preserve" text-anchor="start" x="14" y="-130.5" font-family="Helvetica,sans-Serif" font-size="10.00"> &gt; Edit(int id, CreateShopping</text>
<text xml:space="preserve" text-anchor="start" x="14" y="-118.5" font-family="Helvetica,sans-Serif" font-size="10.00">ListVM model)</text>
<text xml:space="preserve" text-anchor="start" x="4" y="-102.5" font-family="Helvetica,sans-Serif" font-size="10.00">+</text>
<text xml:space="preserve" text-anchor="start" x="14" y="-102.5" font-family="Helvetica,sans-Serif" font-size="10.00">IActionResult FromDays()</text>
<text xml:space="preserve" text-anchor="start" x="4" y="-86.5" font-family="Helvetica,sans-Serif" font-size="10.00">+</text>
<text xml:space="preserve" text-anchor="start" x="14" y="-86.5" font-family="Helvetica,sans-Serif" font-size="10.00">async Task&lt; IActionResult</text>
<text xml:space="preserve" text-anchor="start" x="14" y="-74.5" font-family="Helvetica,sans-Serif" font-size="10.00"> &gt; FromDays(CreateShoppingList</text>
<text xml:space="preserve" text-anchor="start" x="14" y="-62.5" font-family="Helvetica,sans-Serif" font-size="10.00">FromDaysVM model)</text>
<text xml:space="preserve" text-anchor="start" x="4" y="-46.5" font-family="Helvetica,sans-Serif" font-size="10.00">+</text>
<text xml:space="preserve" text-anchor="start" x="14" y="-46.5" font-family="Helvetica,sans-Serif" font-size="10.00">async Task&lt; IActionResult</text>
<text xml:space="preserve" text-anchor="start" x="14" y="-34.5" font-family="Helvetica,sans-Serif" font-size="10.00"> &gt; Generate()</text>
<text xml:space="preserve" text-anchor="start" x="4" y="-18.5" font-family="Helvetica,sans-Serif" font-size="10.00">+</text>
<text xml:space="preserve" text-anchor="start" x="14" y="-18.5" font-family="Helvetica,sans-Serif" font-size="10.00">async Task&lt; IActionResult</text>
<text xml:space="preserve" text-anchor="start" x="14" y="-6.5" font-family="Helvetica,sans-Serif" font-size="10.00"> &gt; DownloadPdf(int id)</text>
<polygon fill="#666666" stroke="#666666" points="0,-390 0,-390 195,-390 195,-390 0,-390"/>
<polygon fill="#666666" stroke="#666666" points="0,-374 0,-374 195,-374 195,-374 0,-374"/>
<polygon fill="none" stroke="#666666" points="0,0 0,-420 195,-420 195,0 0,0"/>
</a>
</g>
</g>
<!-- Node2 -->
<g id="Node000002" class="node">
<title>Node2</title>
<g id="a_Node000002"><a xlink:href="classlab1__gr1_1_1_controllers_1_1_base_controller.html" target="_top" xlink:title="Klasa bazowa dla kontrolerów aplikacji. Zawiera wspólne metody pomocnicze związane z sesją użytkownik...">
<polygon fill="white" stroke="none" points="138.75,-508 56.25,-508 56.25,-456 138.75,-456 138.75,-508"/>
<text xml:space="preserve" text-anchor="start" x="65.25" y="-494.5" font-family="Helvetica,sans-Serif" font-size="10.00">BaseController</text>
<text xml:space="preserve" text-anchor="start" x="96" y="-478.5" font-family="Helvetica,sans-Serif" font-size="10.00"> </text>
<text xml:space="preserve" text-anchor="start" x="60.25" y="-462.5" font-family="Helvetica,sans-Serif" font-size="10.00">+</text>
<text xml:space="preserve" text-anchor="start" x="70.25" y="-462.5" font-family="Helvetica,sans-Serif" font-size="10.00">int GetUserId()</text>
<polygon fill="#666666" stroke="#666666" points="56.25,-490 56.25,-490 138.75,-490 138.75,-490 56.25,-490"/>
<polygon fill="#666666" stroke="#666666" points="56.25,-474 56.25,-474 138.75,-474 138.75,-474 56.25,-474"/>
<polygon fill="none" stroke="#666666" points="56.25,-456 56.25,-508 138.75,-508 138.75,-456 56.25,-456"/>
</a>
</g>
</g>
<!-- Node2&#45;&gt;Node1 -->
<g id="edge1_Node000001_Node000002" class="edge">
<title>Node2&#45;&gt;Node1</title>
<g id="a_edge1_Node000001_Node000002"><a xlink:title=" ">
<path fill="none" stroke="#63b8ff" d="M97.5,-444.75C97.5,-437.27 97.5,-428.9 97.5,-419.9"/>
<polygon fill="none" stroke="#63b8ff" points="94,-444.57 97.5,-454.57 101,-444.57 94,-444.57"/>
</a>
</g>
</g>
<!-- Node3 -->
<g id="Node000003" class="node">
<title>Node3</title>
<g id="a_Node000003"><a xlink:title=" ">
<polygon fill="white" stroke="none" points="122.5,-596 72.5,-596 72.5,-544 122.5,-544 122.5,-596"/>
<text xml:space="preserve" text-anchor="start" x="76.5" y="-582.5" font-family="Helvetica,sans-Serif" font-size="10.00">Controller</text>
<text xml:space="preserve" text-anchor="start" x="96" y="-566.5" font-family="Helvetica,sans-Serif" font-size="10.00"> </text>
<text xml:space="preserve" text-anchor="start" x="96" y="-550.5" font-family="Helvetica,sans-Serif" font-size="10.00"> </text>
<polygon fill="#666666" stroke="#666666" points="72.5,-578 72.5,-578 122.5,-578 122.5,-578 72.5,-578"/>
<polygon fill="#666666" stroke="#666666" points="72.5,-562 72.5,-562 122.5,-562 122.5,-562 72.5,-562"/>
<polygon fill="none" stroke="#666666" points="72.5,-544 72.5,-596 122.5,-596 122.5,-544 72.5,-544"/>
</a>
</g>
</g>
<!-- Node3&#45;&gt;Node2 -->
<g id="edge2_Node000002_Node000003" class="edge">
<title>Node3&#45;&gt;Node2</title>
<g id="a_edge2_Node000002_Node000003"><a xlink:title=" ">
<path fill="none" stroke="#63b8ff" d="M97.5,-532.66C97.5,-524.29 97.5,-515.57 97.5,-507.82"/>
<polygon fill="none" stroke="#63b8ff" points="94,-532.61 97.5,-542.61 101,-532.61 94,-532.61"/>
</a>
</g>
</g>
</g>
</svg>
