<?xml version="1.0" encoding="UTF-8" standalone="no"?>
<!DOCTYPE svg PUBLIC "-//W3C//DTD SVG 1.1//EN"
 "http://www.w3.org/Graphics/SVG/1.1/DTD/svg11.dtd">
<!-- Generated by graphviz version 14.1.1 (20251213.1925)
 -->
<!-- Title: Graphical Class Hierarchy Pages: 1 -->
<svg width="348pt" height="328pt"
 viewBox="0.00 0.00 348.00 328.00" xmlns="http://www.w3.org/2000/svg" xmlns:xlink="http://www.w3.org/1999/xlink">
<g id="graph0" class="graph" transform="scale(1 1) rotate(0) translate(4 324)">
<title>Graphical Class Hierarchy</title>
<!-- Node0 -->
<g id="Node000000" class="node">
<title>Node0</title>
<g id="a_Node000000"><a xlink:href="classlab1__gr1_1_1_services_1_1_base_service.html" target="_top" xlink:title="Klasa bazowa dla wszystkich serwisów aplikacji. Zapewnia dostęp do kontekstu bazy danych oraz mechani...">
<polygon fill="white" stroke="#666666" points="152.5,-170 0,-170 0,-150 152.5,-150 152.5,-170"/>
<text xml:space="preserve" text-anchor="middle" x="76.25" y="-156.5" font-family="Helvetica,sans-Serif" font-size="10.00">lab1_gr1.Services.BaseService</text>
</a>
</g>
</g>
<!-- Node1 -->
<g id="Node000001" class="node">
<title>Node1</title>
<g id="a_Node000001"><a xlink:href="classlab1__gr1_1_1_services_1_1_ingredient_service.html" target="_top" xlink:title="Serwis odpowiedzialny za zarządzanie składnikami. Implementuje logikę biznesową związaną z pobieranie...">
<polygon fill="white" stroke="#666666" points="333.88,-318 194.12,-318 194.12,-286 333.88,-286 333.88,-318"/>
<text xml:space="preserve" text-anchor="start" x="202.12" y="-304.5" font-family="Helvetica,sans-Serif" font-size="10.00">lab1_gr1.Services.Ingredient</text>
<text xml:space="preserve" text-anchor="middle" x="264" y="-292.5" font-family="Helvetica,sans-Serif" font-size="10.00">Service</text>
</a>
</g>
</g>
<!-- Node0&#45;&gt;Node1 -->
<g id="edge9_Node000000_Node000001" class="edge">
<title>Node0&#45;&gt;Node1</title>
<g id="a_edge9_Node000000_Node000001"><a xlink:title=" ">
<path fill="none" stroke="#63b8ff" d="M149.17,-176.25C150.31,-177.12 151.43,-178.04 152.5,-179 186.72,-209.71 155.67,-243.8 188.5,-276 192.31,-279.74 196.7,-282.94 201.38,-285.69"/>
<polygon fill="#63b8ff" stroke="#63b8ff" points="151.36,-173.5 141.02,-171.22 147.69,-179.45 151.36,-173.5"/>
</a>
</g>
</g>
<!-- Node3 -->
<g id="Node000003" class="node">
<title>Node3</title>
<g id="a_Node000003"><a xlink:href="classlab1__gr1_1_1_services_1_1_recipe_ingredient_service.html" target="_top" xlink:title="Serwis odpowiedzialny za zarządzanie składnikami przypisanymi do przepisów. Umożliwia pobieranie,...">
<polygon fill="white" stroke="#666666" points="327.88,-267 200.12,-267 200.12,-235 327.88,-235 327.88,-267"/>
<text xml:space="preserve" text-anchor="start" x="208.12" y="-253.5" font-family="Helvetica,sans-Serif" font-size="10.00">lab1_gr1.Services.Recipe</text>
<text xml:space="preserve" text-anchor="middle" x="264" y="-241.5" font-family="Helvetica,sans-Serif" font-size="10.00">IngredientService</text>
</a>
</g>
</g>
<!-- Node0&#45;&gt;Node3 -->
<g id="edge10_Node000000_Node000003" class="edge">
<title>Node0&#45;&gt;Node3</title>
<g id="a_edge10_Node000000_Node000003"><a xlink:title=" ">
<path fill="none" stroke="#63b8ff" d="M145.48,-174.98C147.9,-176.22 150.25,-177.55 152.5,-179 174.04,-192.86 167.68,-209.08 188.5,-224 194.2,-228.09 200.59,-231.62 207.16,-234.65"/>
<polygon fill="#63b8ff" stroke="#63b8ff" points="147.12,-171.88 136.56,-171.07 144.31,-178.29 147.12,-171.88"/>
</a>
</g>
</g>
<!-- Node5 -->
<g id="Node000005" class="node">
<title>Node5</title>
<g id="a_Node000005"><a xlink:href="classlab1__gr1_1_1_services_1_1_recipe_schedule_service.html" target="_top" xlink:title="Serwis odpowiedzialny za zarządzanie harmonogramem przepisów użytkownika (planowanie posiłków na dni ...">
<polygon fill="white" stroke="#666666" points="327.88,-215 200.12,-215 200.12,-183 327.88,-183 327.88,-215"/>
<text xml:space="preserve" text-anchor="start" x="208.12" y="-201.5" font-family="Helvetica,sans-Serif" font-size="10.00">lab1_gr1.Services.Recipe</text>
<text xml:space="preserve" text-anchor="middle" x="264" y="-189.5" font-family="Helvetica,sans-Serif" font-size="10.00">ScheduleService</text>
</a>
</g>
</g>
<!-- Node0&#45;&gt;Node5 -->
<g id="edge11_Node000000_Node000005" class="edge">
<title>Node0&#45;&gt;Node5</title>
<g id="a_edge11_Node000000_Node000005"><a xlink:title=" ">
<path fill="none" stroke="#63b8ff" d="M138.07,-172.77C157.84,-176.92 179.81,-181.53 199.76,-185.72"/>
<polygon fill="#63b8ff" stroke="#63b8ff" points="139.01,-169.39 128.51,-170.76 137.58,-176.24 139.01,-169.39"/>
</a>
</g>
</g>
<!-- Node7 -->
<g id="Node000007" class="node">
<title>Node7</title>
<g id="a_Node000007"><a xlink:href="classlab1__gr1_1_1_services_1_1_recipe_service.html" target="_top" xlink:title="Serwis odpowiedzialny za zarządzanie przepisami kulinarnymi. Obsługuje tworzenie, edycję,...">
<polygon fill="white" stroke="#666666" points="327.88,-146 200.12,-146 200.12,-114 327.88,-114 327.88,-146"/>
<text xml:space="preserve" text-anchor="start" x="208.12" y="-132.5" font-family="Helvetica,sans-Serif" font-size="10.00">lab1_gr1.Services.Recipe</text>
<text xml:space="preserve" text-anchor="middle" x="264" y="-120.5" font-family="Helvetica,sans-Serif" font-size="10.00">Service</text>
</a>
</g>
</g>
<!-- Node0&#45;&gt;Node7 -->
<g id="edge12_Node000000_Node000007" class="edge">
<title>Node0&#45;&gt;Node7</title>
<g id="a_edge12_Node000000_Node000007"><a xlink:title=" ">
<path fill="none" stroke="#63b8ff" d="M153.29,-147.72C168.69,-145.23 184.73,-142.64 199.64,-140.23"/>
<polygon fill="#63b8ff" stroke="#63b8ff" points="153.02,-144.22 143.71,-149.27 154.14,-151.13 153.02,-144.22"/>
</a>
</g>
</g>
<!-- Node9 -->
<g id="Node000009" class="node">
<title>Node9</title>
<g id="a_Node000009"><a xlink:href="classlab1__gr1_1_1_services_1_1_shopping_list_service.html" target="_top" xlink:title="Serwis odpowiedzialny za zarządzanie listami zakupów użytkownika, w tym ich generowanie na podstawie ...">
<polygon fill="white" stroke="#666666" points="332.75,-87 195.25,-87 195.25,-55 332.75,-55 332.75,-87"/>
<text xml:space="preserve" text-anchor="start" x="203.25" y="-73.5" font-family="Helvetica,sans-Serif" font-size="10.00">lab1_gr1.Services.Shopping</text>
<text xml:space="preserve" text-anchor="middle" x="264" y="-61.5" font-family="Helvetica,sans-Serif" font-size="10.00">ListService</text>
</a>
</g>
</g>
<!-- Node0&#45;&gt;Node9 -->
<g id="edge13_Node000000_Node000009" class="edge">
<title>Node0&#45;&gt;Node9</title>
<g id="a_edge13_Node000000_Node000009"><a xlink:title=" ">
<path fill="none" stroke="#63b8ff" d="M143.57,-145.47C146.65,-144.11 149.64,-142.62 152.5,-141 172.18,-129.83 169.91,-117.9 188.5,-105 198.19,-98.27 209.43,-92.33 220.2,-87.38"/>
<polygon fill="#63b8ff" stroke="#63b8ff" points="142.31,-142.2 134.25,-149.08 144.84,-148.73 142.31,-142.2"/>
</a>
</g>
</g>
<!-- Node11 -->
<g id="Node000011" class="node">
<title>Node11</title>
<g id="a_Node000011"><a xlink:href="classlab1__gr1_1_1_services_1_1_user_service.html" target="_top" xlink:title="Serwis odpowiedzialny za obsługę użytkowników systemu, w tym rejestrację, logowanie,...">
<polygon fill="white" stroke="#666666" points="339.5,-34 188.5,-34 188.5,-14 339.5,-14 339.5,-34"/>
<text xml:space="preserve" text-anchor="middle" x="264" y="-20.5" font-family="Helvetica,sans-Serif" font-size="10.00">lab1_gr1.Services.UserService</text>
</a>
</g>
</g>
<!-- Node0&#45;&gt;Node11 -->
<g id="edge14_Node000000_Node000011" class="edge">
<title>Node0&#45;&gt;Node11</title>
<g id="a_edge14_Node000000_Node000011"><a xlink:title=" ">
<path fill="none" stroke="#63b8ff" d="M149.16,-143.74C150.31,-142.87 151.42,-141.96 152.5,-141 186.21,-110.96 155.4,-76.71 188.5,-46 193.74,-41.14 200,-37.35 206.64,-34.39"/>
<polygon fill="#63b8ff" stroke="#63b8ff" points="147.68,-140.53 140.99,-148.75 151.34,-146.5 147.68,-140.53"/>
</a>
</g>
</g>
<!-- Node2 -->
<g id="Node000002" class="node">
<title>Node2</title>
<g id="a_Node000002"><a xlink:href="interfacelab1__gr1_1_1_interfaces_1_1_i_ingredient_service.html" target="_top" xlink:title="Interfejs definiujący metody serwisu do obsługi składników.">
<polygon fill="white" stroke="#666666" points="150.25,-320 2.25,-320 2.25,-288 150.25,-288 150.25,-320"/>
<text xml:space="preserve" text-anchor="start" x="10.25" y="-306.5" font-family="Helvetica,sans-Serif" font-size="10.00">lab1_gr1.Interfaces.IIngredient</text>
<text xml:space="preserve" text-anchor="middle" x="76.25" y="-294.5" font-family="Helvetica,sans-Serif" font-size="10.00">Service</text>
</a>
</g>
</g>
<!-- Node2&#45;&gt;Node1 -->
<g id="edge15_Node000002_Node000001" class="edge">
<title>Node2&#45;&gt;Node1</title>
<g id="a_edge15_Node000002_Node000001"><a xlink:title=" ">
<path fill="none" stroke="#63b8ff" d="M162.08,-303.09C172.69,-302.97 183.43,-302.86 193.75,-302.75"/>
<polygon fill="#63b8ff" stroke="#63b8ff" points="162.14,-299.59 152.18,-303.19 162.21,-306.59 162.14,-299.59"/>
</a>
</g>
</g>
<!-- Node4 -->
<g id="Node000004" class="node">
<title>Node4</title>
<g id="a_Node000004"><a xlink:href="interfacelab1__gr1_1_1_interfaces_1_1_i_recipe_ingredient_service.html" target="_top" xlink:title="Interfejs definiujący metody serwisu obsługującego relację między przepisami a składnikami (wiele&#45;do&#45;...">
<polygon fill="white" stroke="#666666" points="144.25,-270 8.25,-270 8.25,-238 144.25,-238 144.25,-270"/>
<text xml:space="preserve" text-anchor="start" x="16.25" y="-256.5" font-family="Helvetica,sans-Serif" font-size="10.00">lab1_gr1.Interfaces.IRecipe</text>
<text xml:space="preserve" text-anchor="middle" x="76.25" y="-244.5" font-family="Helvetica,sans-Serif" font-size="10.00">IngredientService</text>
</a>
</g>
</g>
<!-- Node4&#45;&gt;Node3 -->
<g id="edge16_Node000004_Node000003" class="edge">
<title>Node4&#45;&gt;Node3</title>
<g id="a_edge16_Node000004_Node000003"><a xlink:title=" ">
<path fill="none" stroke="#63b8ff" d="M155.73,-252.73C170.48,-252.49 185.72,-252.25 199.93,-252.02"/>
<polygon fill="#63b8ff" stroke="#63b8ff" points="156.03,-249.23 146.09,-252.89 156.14,-256.23 156.03,-249.23"/>
</a>
</g>
</g>
<!-- Node6 -->
<g id="Node000006" class="node">
<title>Node6</title>
<g id="a_Node000006"><a xlink:href="interfacelab1__gr1_1_1_interfaces_1_1_i_recipe_schedule_service.html" target="_top" xlink:title="Interfejs definiujący metody serwisu do zarządzania harmonogramem przepisów użytkownika.">
<polygon fill="white" stroke="#666666" points="144.25,-220 8.25,-220 8.25,-188 144.25,-188 144.25,-220"/>
<text xml:space="preserve" text-anchor="start" x="16.25" y="-206.5" font-family="Helvetica,sans-Serif" font-size="10.00">lab1_gr1.Interfaces.IRecipe</text>
<text xml:space="preserve" text-anchor="middle" x="76.25" y="-194.5" font-family="Helvetica,sans-Serif" font-size="10.00">ScheduleService</text>
</a>
</g>
</g>
<!-- Node6&#45;&gt;Node5 -->
<g id="edge17_Node000006_Node000005" class="edge">
<title>Node6&#45;&gt;Node5</title>
<g id="a_edge17_Node000006_Node000005"><a xlink:title=" ">
<path fill="none" stroke="#63b8ff" d="M155.73,-201.89C170.48,-201.49 185.72,-201.08 199.93,-200.7"/>
<polygon fill="#63b8ff" stroke="#63b8ff" points="155.99,-198.38 146.09,-202.15 156.18,-205.38 155.99,-198.38"/>
</a>
</g>
</g>
<!-- Node8 -->
<g id="Node000008" class="node">
<title>Node8</title>
<g id="a_Node000008"><a xlink:href="interfacelab1__gr1_1_1_interfaces_1_1_i_recipe_service.html" target="_top" xlink:title="Interfejs definiujący metody serwisu obsługującego przepisy użytkowników.">
<polygon fill="white" stroke="#666666" points="144.25,-132 8.25,-132 8.25,-100 144.25,-100 144.25,-132"/>
<text xml:space="preserve" text-anchor="start" x="16.25" y="-118.5" font-family="Helvetica,sans-Serif" font-size="10.00">lab1_gr1.Interfaces.IRecipe</text>
<text xml:space="preserve" text-anchor="middle" x="76.25" y="-106.5" font-family="Helvetica,sans-Serif" font-size="10.00">Service</text>
</a>
</g>
</g>
<!-- Node8&#45;&gt;Node7 -->
<g id="edge18_Node000008_Node000007" class="edge">
<title>Node8&#45;&gt;Node7</title>
<g id="a_edge18_Node000008_Node000007"><a xlink:title=" ">
<path fill="none" stroke="#63b8ff" d="M155.73,-121.91C170.48,-123.03 185.72,-124.18 199.93,-125.25"/>
<polygon fill="#63b8ff" stroke="#63b8ff" points="156.32,-118.45 146.08,-121.19 155.79,-125.43 156.32,-118.45"/>
</a>
</g>
</g>
<!-- Node10 -->
<g id="Node000010" class="node">
<title>Node10</title>
<g id="a_Node000010"><a xlink:href="interfacelab1__gr1_1_1_interfaces_1_1_i_shopping_list_service.html" target="_top" xlink:title="Interfejs definiujący metody serwisu do obsługi list zakupów użytkownika.">
<polygon fill="white" stroke="#666666" points="149.12,-82 3.38,-82 3.38,-50 149.12,-50 149.12,-82"/>
<text xml:space="preserve" text-anchor="start" x="11.38" y="-68.5" font-family="Helvetica,sans-Serif" font-size="10.00">lab1_gr1.Interfaces.IShopping</text>
<text xml:space="preserve" text-anchor="middle" x="76.25" y="-56.5" font-family="Helvetica,sans-Serif" font-size="10.00">ListService</text>
</a>
</g>
</g>
<!-- Node10&#45;&gt;Node9 -->
<g id="edge19_Node000010_Node000009" class="edge">
<title>Node10&#45;&gt;Node9</title>
<g id="a_edge19_Node000010_Node000009"><a xlink:title=" ">
<path fill="none" stroke="#63b8ff" d="M160.87,-68.25C172.22,-68.56 183.76,-68.87 194.8,-69.16"/>
<polygon fill="#63b8ff" stroke="#63b8ff" points="161.2,-64.76 151.11,-67.99 161.01,-71.76 161.2,-64.76"/>
</a>
</g>
</g>
<!-- Node12 -->
<g id="Node000012" class="node">
<title>Node12</title>
<g id="a_Node000012"><a xlink:href="interfacelab1__gr1_1_1_interfaces_1_1_i_user_service.html" target="_top" xlink:title="Interfejs definiujący metody serwisu obsługującego użytkowników.">
<polygon fill="white" stroke="#666666" points="139.38,-32 13.12,-32 13.12,0 139.38,0 139.38,-32"/>
<text xml:space="preserve" text-anchor="start" x="21.12" y="-18.5" font-family="Helvetica,sans-Serif" font-size="10.00">lab1_gr1.Interfaces.IUser</text>
<text xml:space="preserve" text-anchor="middle" x="76.25" y="-6.5" font-family="Helvetica,sans-Serif" font-size="10.00">Service</text>
</a>
</g>
</g>
<!-- Node12&#45;&gt;Node11 -->
<g id="edge20_Node000012_Node000011" class="edge">
<title>Node12&#45;&gt;Node11</title>
<g id="a_edge20_Node000012_Node000011"><a xlink:title=" ">
<path fill="none" stroke="#63b8ff" d="M150.77,-19.17C163.09,-19.7 175.89,-20.25 188.24,-20.78"/>
<polygon fill="#63b8ff" stroke="#63b8ff" points="151.27,-15.68 141.13,-18.75 150.97,-22.68 151.27,-15.68"/>
</a>
</g>
</g>
</g>
</svg>
