<?xml version="1.0" encoding="UTF-8" standalone="no"?>
<!DOCTYPE svg PUBLIC "-//W3C//DTD SVG 1.1//EN"
 "http://www.w3.org/Graphics/SVG/1.1/DTD/svg11.dtd">
<!-- Generated by graphviz version 14.1.1 (20251213.1925)
 -->
<!-- Title: lab1_gr1.Services.UserService Pages: 1 -->
<!--zoomable 520 -->

<svg id="main" version="1.1" xmlns="http://www.w3.org/2000/svg" xmlns:xlink="http://www.w3.org/1999/xlink" xml:space="preserve" onload="init(evt)">
<style type="text/css"><![CDATA[
.node, .edge {opacity: 0.7;}
.node.selected, .edge.selected {opacity: 1;}
.edge:hover path { stroke: red; }
.edge:hover polygon { stroke: red; fill: red; }
]]></style>

<defs>
  <circle id="rim" cx="0" cy="0" r="7"/>
  <circle id="rim2" cx="0" cy="0" r="3.5"/>
  <g id="zoomPlus">
    <use xlink:href="#rim" fill="#404040"><set attributeName="fill" to="#808080" begin="zoomplus.mouseover" end="zoomplus.mouseout"/></use>
    <path d="M-4,0h8M0,-4v8" fill="none" stroke="white" stroke-width="1.5" pointer-events="none"/>
  </g>
  <g id="zoomMin">
    <use xlink:href="#rim" fill="#404040"><set attributeName="fill" to="#808080" begin="zoomminus.mouseover" end="zoomminus.mouseout"/></use>
    <path d="M-4,0h8" fill="none" stroke="white" stroke-width="1.5" pointer-events="none"/>
  </g>
  <g id="arrowUp" transform="translate(30 24)">
    <use xlink:href="#rim"/>
    <path pointer-events="none" fill="none" stroke="white" stroke-width="1.5" d="M0,-3.0v7 M-2.5,-0.5L0,-3.0L2.5,-0.5"/>
  </g>
  <g id="arrowRight" transform="rotate(90) translate(36 -43)">
    <use xlink:href="#rim"/>
    <path pointer-events="none" fill="none" stroke="white" stroke-width="1.5" d="M0,-3.0v7 M-2.5,-0.5L0,-3.0L2.5,-0.5"/>
  </g>
  <g id="arrowDown" transform="rotate(180) translate(-30 -48)">
    <use xlink:href="#rim"/>
    <path pointer-events="none" fill="none" stroke="white" stroke-width="1.5" d="M0,-3.0v7 M-2.5,-0.5L0,-3.0L2.5,-0.5"/>
  </g>
  <g id="arrowLeft" transform="rotate(270) translate(-36 17)">
    <use xlink:href="#rim"/>
    <path pointer-events="none" fill="none" stroke="white" stroke-width="1.5" d="M0,-3.0v7 M-2.5,-0.5L0,-3.0L2.5,-0.5"/>
  </g>
  <g id="resetDef">
    <use xlink:href="#rim2" fill="#404040"><set attributeName="fill" to="#808080" begin="reset.mouseover" end="reset.mouseout"/></use>
  </g>
</defs>
<script type="application/ecmascript">
var viewWidth = 326;
var viewHeight = 520;
var sectionId = 'dynsection-0';
</script>
<script type="application/ecmascript" xlink:href="svg.min.js"/>
<svg id="graph" class="graph">
<g id="viewport">
<title>lab1_gr1.Services.UserService</title>
<!-- Node1 -->
<g id="Node000001" class="node">
<title>Node1</title>
<g id="a_Node000001"><a xlink:title="Serwis odpowiedzialny za obsługę użytkowników systemu, w tym rejestrację, logowanie,...">
<polygon fill="#999999" stroke="none" points="263.62,-276 49.12,-276 49.12,0 263.62,0 263.62,-276"/>
<text xml:space="preserve" text-anchor="start" x="88.88" y="-262.5" font-family="Helvetica,sans-Serif" font-size="10.00">lab1_gr1.Services.UserService</text>
<text xml:space="preserve" text-anchor="start" x="154.88" y="-246.5" font-family="Helvetica,sans-Serif" font-size="10.00"> </text>
<text xml:space="preserve" text-anchor="start" x="53.12" y="-230.5" font-family="Helvetica,sans-Serif" font-size="10.00">+</text>
<text xml:space="preserve" text-anchor="start" x="63.12" y="-230.5" font-family="Helvetica,sans-Serif" font-size="10.00">UserService(MyDBContext</text>
<text xml:space="preserve" text-anchor="start" x="63.12" y="-218.5" font-family="Helvetica,sans-Serif" font-size="10.00"> dbContext, IMapper mapper,</text>
<text xml:space="preserve" text-anchor="start" x="63.12" y="-206.5" font-family="Helvetica,sans-Serif" font-size="10.00"> PasswordHasher&lt; User &gt; passwordHasher)</text>
<text xml:space="preserve" text-anchor="start" x="53.12" y="-190.5" font-family="Helvetica,sans-Serif" font-size="10.00">+</text>
<text xml:space="preserve" text-anchor="start" x="63.12" y="-190.5" font-family="Helvetica,sans-Serif" font-size="10.00">async Task&lt; bool &gt;</text>
<text xml:space="preserve" text-anchor="start" x="63.12" y="-178.5" font-family="Helvetica,sans-Serif" font-size="10.00"> RegisterAsync(RegisterVM</text>
<text xml:space="preserve" text-anchor="start" x="63.12" y="-166.5" font-family="Helvetica,sans-Serif" font-size="10.00"> model)</text>
<text xml:space="preserve" text-anchor="start" x="53.12" y="-150.5" font-family="Helvetica,sans-Serif" font-size="10.00">+</text>
<text xml:space="preserve" text-anchor="start" x="63.12" y="-150.5" font-family="Helvetica,sans-Serif" font-size="10.00">async Task&lt; User?&gt;</text>
<text xml:space="preserve" text-anchor="start" x="63.12" y="-138.5" font-family="Helvetica,sans-Serif" font-size="10.00"> LoginAsync(LoginVM</text>
<text xml:space="preserve" text-anchor="start" x="63.12" y="-126.5" font-family="Helvetica,sans-Serif" font-size="10.00"> model)</text>
<text xml:space="preserve" text-anchor="start" x="53.12" y="-110.5" font-family="Helvetica,sans-Serif" font-size="10.00">+</text>
<text xml:space="preserve" text-anchor="start" x="63.12" y="-110.5" font-family="Helvetica,sans-Serif" font-size="10.00">void Logout(HttpContext</text>
<text xml:space="preserve" text-anchor="start" x="63.12" y="-98.5" font-family="Helvetica,sans-Serif" font-size="10.00"> httpContext)</text>
<text xml:space="preserve" text-anchor="start" x="53.12" y="-82.5" font-family="Helvetica,sans-Serif" font-size="10.00">+</text>
<text xml:space="preserve" text-anchor="start" x="63.12" y="-82.5" font-family="Helvetica,sans-Serif" font-size="10.00">async Task&lt; bool &gt;</text>
<text xml:space="preserve" text-anchor="start" x="63.12" y="-70.5" font-family="Helvetica,sans-Serif" font-size="10.00"> ChangePasswordAsync</text>
<text xml:space="preserve" text-anchor="start" x="63.12" y="-58.5" font-family="Helvetica,sans-Serif" font-size="10.00">(int userId, string current</text>
<text xml:space="preserve" text-anchor="start" x="63.12" y="-46.5" font-family="Helvetica,sans-Serif" font-size="10.00">Password, string newPassword)</text>
<text xml:space="preserve" text-anchor="start" x="53.12" y="-30.5" font-family="Helvetica,sans-Serif" font-size="10.00">+</text>
<text xml:space="preserve" text-anchor="start" x="63.12" y="-30.5" font-family="Helvetica,sans-Serif" font-size="10.00">async Task&lt; bool &gt;</text>
<text xml:space="preserve" text-anchor="start" x="63.12" y="-18.5" font-family="Helvetica,sans-Serif" font-size="10.00"> DeleteAccountAsync</text>
<text xml:space="preserve" text-anchor="start" x="63.12" y="-6.5" font-family="Helvetica,sans-Serif" font-size="10.00">(int userId)</text>
<polygon fill="#666666" stroke="#666666" points="49.12,-258 49.12,-258 263.62,-258 263.62,-258 49.12,-258"/>
<polygon fill="#666666" stroke="#666666" points="49.12,-242 49.12,-242 263.62,-242 263.62,-242 49.12,-242"/>
<polygon fill="none" stroke="#666666" points="49.12,0 49.12,-276 263.62,-276 263.62,0 49.12,0"/>
</a>
</g>
</g>
<!-- Node2 -->
<g id="Node000002" class="node">
<title>Node2</title>
<g id="a_Node000002"><a xlink:href="classlab1__gr1_1_1_services_1_1_base_service.html" target="_top" xlink:title="Klasa bazowa dla wszystkich serwisów aplikacji. Zapewnia dostęp do kontekstu bazy danych oraz mechani...">
<polygon fill="white" stroke="none" points="144.75,-458 0,-458 0,-366 144.75,-366 144.75,-458"/>
<text xml:space="preserve" text-anchor="start" x="44.62" y="-444.5" font-family="Helvetica,sans-Serif" font-size="10.00">BaseService</text>
<text xml:space="preserve" text-anchor="start" x="4" y="-428.5" font-family="Helvetica,sans-Serif" font-size="10.00">#</text>
<text xml:space="preserve" text-anchor="start" x="13.25" y="-428.5" font-family="Helvetica,sans-Serif" font-size="10.00">readonly MyDBContext</text>
<text xml:space="preserve" text-anchor="start" x="13.25" y="-416.5" font-family="Helvetica,sans-Serif" font-size="10.00"> _dbContext</text>
<text xml:space="preserve" text-anchor="start" x="4" y="-400.5" font-family="Helvetica,sans-Serif" font-size="10.00">#</text>
<text xml:space="preserve" text-anchor="start" x="13.25" y="-400.5" font-family="Helvetica,sans-Serif" font-size="10.00">readonly IMapper _mapper</text>
<text xml:space="preserve" text-anchor="start" x="4" y="-384.5" font-family="Helvetica,sans-Serif" font-size="10.00">#</text>
<text xml:space="preserve" text-anchor="start" x="13.25" y="-384.5" font-family="Helvetica,sans-Serif" font-size="10.00">BaseService(MyDBContext</text>
<text xml:space="preserve" text-anchor="start" x="13.25" y="-372.5" font-family="Helvetica,sans-Serif" font-size="10.00"> dbContext, IMapper mapper)</text>
<polygon fill="#666666" stroke="#666666" points="0,-440 0,-440 144.75,-440 144.75,-440 0,-440"/>
<polygon fill="#666666" stroke="#666666" points="0,-396 0,-396 11.25,-396 11.25,-396 0,-396"/>
<polygon fill="#666666" stroke="#666666" points="11.25,-396 11.25,-396 144.75,-396 144.75,-396 11.25,-396"/>
<polygon fill="none" stroke="#666666" points="0,-366 0,-458 144.75,-458 144.75,-366 0,-366"/>
</a>
</g>
</g>
<!-- Node2&#45;&gt;Node1 -->
<g id="edge1_Node000001_Node000002" class="edge">
<title>Node2&#45;&gt;Node1</title>
<g id="a_edge1_Node000001_Node000002"><a xlink:title=" ">
<path fill="none" stroke="#63b8ff" d="M89.63,-355.12C96.79,-331.95 105.43,-303.97 114.09,-275.93"/>
<polygon fill="none" stroke="#63b8ff" points="86.3,-354.05 86.69,-364.64 92.99,-356.12 86.3,-354.05"/>
</a>
</g>
</g>
<!-- Node3 -->
<g id="Node000003" class="node">
<title>Node3</title>
<g id="a_Node000003"><a xlink:href="interfacelab1__gr1_1_1_interfaces_1_1_i_user_service.html" target="_top" xlink:title="Interfejs definiujący metody serwisu obsługującego użytkowników.">
<polygon fill="white" stroke="none" points="318,-512 162.75,-512 162.75,-312 318,-312 318,-512"/>
<text xml:space="preserve" text-anchor="start" x="211.88" y="-498.5" font-family="Helvetica,sans-Serif" font-size="10.00">IUserService</text>
<text xml:space="preserve" text-anchor="start" x="238.88" y="-482.5" font-family="Helvetica,sans-Serif" font-size="10.00"> </text>
<text xml:space="preserve" text-anchor="start" x="166.75" y="-466.5" font-family="Helvetica,sans-Serif" font-size="10.00">+</text>
<text xml:space="preserve" text-anchor="start" x="176.75" y="-466.5" font-family="Helvetica,sans-Serif" font-size="10.00">Task&lt; bool &gt; RegisterAsync</text>
<text xml:space="preserve" text-anchor="start" x="176.75" y="-454.5" font-family="Helvetica,sans-Serif" font-size="10.00">(RegisterVM model)</text>
<text xml:space="preserve" text-anchor="start" x="166.75" y="-438.5" font-family="Helvetica,sans-Serif" font-size="10.00">+</text>
<text xml:space="preserve" text-anchor="start" x="176.75" y="-438.5" font-family="Helvetica,sans-Serif" font-size="10.00">Task&lt; User?&gt; LoginAsync</text>
<text xml:space="preserve" text-anchor="start" x="176.75" y="-426.5" font-family="Helvetica,sans-Serif" font-size="10.00">(LoginVM model)</text>
<text xml:space="preserve" text-anchor="start" x="166.75" y="-410.5" font-family="Helvetica,sans-Serif" font-size="10.00">+</text>
<text xml:space="preserve" text-anchor="start" x="176.75" y="-410.5" font-family="Helvetica,sans-Serif" font-size="10.00">void Logout(HttpContext</text>
<text xml:space="preserve" text-anchor="start" x="176.75" y="-398.5" font-family="Helvetica,sans-Serif" font-size="10.00"> httpContext)</text>
<text xml:space="preserve" text-anchor="start" x="166.75" y="-382.5" font-family="Helvetica,sans-Serif" font-size="10.00">+</text>
<text xml:space="preserve" text-anchor="start" x="176.75" y="-382.5" font-family="Helvetica,sans-Serif" font-size="10.00">Task&lt; bool &gt; DeleteAccount</text>
<text xml:space="preserve" text-anchor="start" x="176.75" y="-370.5" font-family="Helvetica,sans-Serif" font-size="10.00">Async(int userId)</text>
<text xml:space="preserve" text-anchor="start" x="166.75" y="-354.5" font-family="Helvetica,sans-Serif" font-size="10.00">+</text>
<text xml:space="preserve" text-anchor="start" x="176.75" y="-354.5" font-family="Helvetica,sans-Serif" font-size="10.00">Task&lt; bool &gt; ChangePassword</text>
<text xml:space="preserve" text-anchor="start" x="176.75" y="-342.5" font-family="Helvetica,sans-Serif" font-size="10.00">Async(int userId, string</text>
<text xml:space="preserve" text-anchor="start" x="176.75" y="-330.5" font-family="Helvetica,sans-Serif" font-size="10.00"> currentPassword, string</text>
<text xml:space="preserve" text-anchor="start" x="176.75" y="-318.5" font-family="Helvetica,sans-Serif" font-size="10.00"> newPassword)</text>
<polygon fill="#666666" stroke="#666666" points="162.75,-494 162.75,-494 318,-494 318,-494 162.75,-494"/>
<polygon fill="#666666" stroke="#666666" points="162.75,-478 162.75,-478 318,-478 318,-478 162.75,-478"/>
<polygon fill="none" stroke="#666666" points="162.75,-312 162.75,-512 318,-512 318,-312 162.75,-312"/>
</a>
</g>
</g>
<!-- Node3&#45;&gt;Node1 -->
<g id="edge2_Node000001_Node000003" class="edge">
<title>Node3&#45;&gt;Node1</title>
<g id="a_edge2_Node000001_Node000003"><a xlink:title=" ">
<path fill="none" stroke="#63b8ff" d="M206.44,-301.1C203.85,-292.72 201.21,-284.19 198.58,-275.67"/>
<polygon fill="none" stroke="#63b8ff" points="203.07,-302.06 209.36,-310.59 209.76,-300 203.07,-302.06"/>
</a>
</g>
</g>
</g>
</svg>

<g id="navigator" transform="translate(0 0)" fill="#404254">
  <rect fill="#f2f5e9" fill-opacity="0.5" stroke="#606060" stroke-width=".5" x="0" y="0" width="60" height="60"/>
  <use id="zoomplus" xlink:href="#zoomPlus" x="17" y="9" onmousedown="handleZoom(evt,'in')"/>
  <use id="zoomminus" xlink:href="#zoomMin" x="42" y="9" onmousedown="handleZoom(evt,'out')"/>
  <use id="reset" xlink:href="#resetDef" x="30" y="36" onmousedown="handleReset()"/>
   <use id="arrowup" xlink:href="#arrowUp" x="0" y="0" onmousedown="handlePan(0,-1)"/>
  <use id="arrowright" xlink:href="#arrowRight" x="0" y="0" onmousedown="handlePan(1,0)"/>
  <use id="arrowdown" xlink:href="#arrowDown" x="0" y="0" onmousedown="handlePan(0,1)"/>
  <use id="arrowleft" xlink:href="#arrowLeft" x="0" y="0" onmousedown="handlePan(-1,0)"/>
</g>
<svg viewBox="0 0 15 15" width="100%" height="30px" preserveAspectRatio="xMaxYMin meet">
 <g id="arrow_out" transform="scale(0.3 0.3)">
  <a xlink:href="classlab1__gr1_1_1_services_1_1_user_service__inherit__graph_org.svg" target="_base">
   <rect id="button" ry="5" rx="5" y="6" x="6" height="38" width="38"
        fill="#f2f5e9" fill-opacity="0.5" stroke="#606060" stroke-width="1.0"/>
   <path id="arrow"
     d="M 11.500037,31.436501 C 11.940474,20.09759 22.043105,11.32322 32.158766,21.979434 L 37.068811,17.246167 C 37.068811,17.246167 37.088388,32 37.088388,32 L 22.160133,31.978069 C 22.160133,31.978069 26.997745,27.140456 26.997745,27.140456 C 18.528582,18.264221 13.291696,25.230495 11.500037,31.436501 z"
     style="fill:#404040;"/>
  </a>
 </g>
</svg>

<style type='text/css'>
<![CDATA[
[data-mouse-over-selected='false'] { opacity: 0.7; }
[data-mouse-over-selected='true']  { opacity: 1.0; }
]]>
</style>
<script type="application/ecmascript"><![CDATA[
document.addEventListener('DOMContentLoaded', (event) => {
  highlightEdges();
  highlightAdjacentNodes();
});
]]></script>
</svg>
