<?xml version="1.0" encoding="UTF-8" standalone="no"?>
<!DOCTYPE svg PUBLIC "-//W3C//DTD SVG 1.1//EN"
 "http://www.w3.org/Graphics/SVG/1.1/DTD/svg11.dtd">
<!-- Generated by graphviz version 14.1.1 (20251213.1925)
 -->
<!-- Title: ListaZakupow.Model.DataModels.ShoppingList Pages: 1 -->
<svg width="164pt" height="148pt"
 viewBox="0.00 0.00 164.00 148.00" xmlns="http://www.w3.org/2000/svg" xmlns:xlink="http://www.w3.org/1999/xlink">
<g id="graph0" class="graph" transform="scale(1 1) rotate(0) translate(4 144)">
<title>ListaZakupow.Model.DataModels.ShoppingList</title>
<!-- Node1 -->
<g id="Node000001" class="node">
<title>Node1</title>
<g id="a_Node000001"><a xlink:title="Reprezentuje listę zakupów użytkownika.">
<polygon fill="#999999" stroke="none" points="155.75,-140 0,-140 0,0 155.75,0 155.75,-140"/>
<text xml:space="preserve" text-anchor="start" x="4" y="-126.5" font-family="Helvetica,sans-Serif" font-size="10.00">ListaZakupow.Model.DataModels.</text>
<text xml:space="preserve" text-anchor="start" x="49.75" y="-114.5" font-family="Helvetica,sans-Serif" font-size="10.00">ShoppingList</text>
<text xml:space="preserve" text-anchor="start" x="10.5" y="-98.5" font-family="Helvetica,sans-Serif" font-size="10.00">+</text>
<text xml:space="preserve" text-anchor="start" x="27" y="-98.5" font-family="Helvetica,sans-Serif" font-size="10.00">int Id</text>
<text xml:space="preserve" text-anchor="start" x="10.5" y="-82.5" font-family="Helvetica,sans-Serif" font-size="10.00">+</text>
<text xml:space="preserve" text-anchor="start" x="27" y="-82.5" font-family="Helvetica,sans-Serif" font-size="10.00">int UserId</text>
<text xml:space="preserve" text-anchor="start" x="10.5" y="-66.5" font-family="Helvetica,sans-Serif" font-size="10.00">+</text>
<text xml:space="preserve" text-anchor="start" x="27" y="-66.5" font-family="Helvetica,sans-Serif" font-size="10.00">DateTime CreatedAt</text>
<text xml:space="preserve" text-anchor="start" x="10.5" y="-50.5" font-family="Helvetica,sans-Serif" font-size="10.00">+</text>
<text xml:space="preserve" text-anchor="start" x="27" y="-50.5" font-family="Helvetica,sans-Serif" font-size="10.00">User User</text>
<text xml:space="preserve" text-anchor="start" x="10.5" y="-34.5" font-family="Helvetica,sans-Serif" font-size="10.00">+</text>
<text xml:space="preserve" text-anchor="start" x="27" y="-34.5" font-family="Helvetica,sans-Serif" font-size="10.00">ICollection&lt; ShoppingList</text>
<text xml:space="preserve" text-anchor="start" x="27" y="-22.5" font-family="Helvetica,sans-Serif" font-size="10.00">Item &gt; Items</text>
<text xml:space="preserve" text-anchor="start" x="76.38" y="-6.5" font-family="Helvetica,sans-Serif" font-size="10.00"> </text>
<polygon fill="#666666" stroke="#666666" points="0,-110 0,-110 155.75,-110 155.75,-110 0,-110"/>
<polygon fill="#666666" stroke="#666666" points="0,-18 0,-18 25,-18 25,-18 0,-18"/>
<polygon fill="#666666" stroke="#666666" points="25,-18 25,-18 155.75,-18 155.75,-18 25,-18"/>
<polygon fill="none" stroke="#666666" points="0,0 0,-140 155.75,-140 155.75,0 0,0"/>
</a>
</g>
</g>
</g>
</svg>
