<?xml version="1.0" encoding="UTF-8" standalone="no"?>
<!DOCTYPE svg PUBLIC "-//W3C//DTD SVG 1.1//EN"
 "http://www.w3.org/Graphics/SVG/1.1/DTD/svg11.dtd">
<!-- Generated by graphviz version 14.1.1 (20251213.1925)
 -->
<!-- Title: lab1_gr1.ViewModels.UserVM.LoginVM Pages: 1 -->
<svg width="133pt" height="88pt"
 viewBox="0.00 0.00 133.00 88.00" xmlns="http://www.w3.org/2000/svg" xmlns:xlink="http://www.w3.org/1999/xlink">
<g id="graph0" class="graph" transform="scale(1 1) rotate(0) translate(4 84)">
<title>lab1_gr1.ViewModels.UserVM.LoginVM</title>
<!-- Node1 -->
<g id="Node000001" class="node">
<title>Node1</title>
<g id="a_Node000001"><a xlink:title="ViewModel używany do logowania użytkownika.">
<polygon fill="#999999" stroke="none" points="125,-80 0,-80 0,0 125,0 125,-80"/>
<text xml:space="preserve" text-anchor="start" x="4" y="-66.5" font-family="Helvetica,sans-Serif" font-size="10.00">lab1_gr1.ViewModels.User</text>
<text xml:space="preserve" text-anchor="start" x="34.38" y="-54.5" font-family="Helvetica,sans-Serif" font-size="10.00">VM.LoginVM</text>
<text xml:space="preserve" text-anchor="start" x="12.75" y="-38.5" font-family="Helvetica,sans-Serif" font-size="10.00">+</text>
<text xml:space="preserve" text-anchor="start" x="31.5" y="-38.5" font-family="Helvetica,sans-Serif" font-size="10.00">string Username</text>
<text xml:space="preserve" text-anchor="start" x="12.75" y="-22.5" font-family="Helvetica,sans-Serif" font-size="10.00">+</text>
<text xml:space="preserve" text-anchor="start" x="31.5" y="-22.5" font-family="Helvetica,sans-Serif" font-size="10.00">string Password</text>
<text xml:space="preserve" text-anchor="start" x="61" y="-6.5" font-family="Helvetica,sans-Serif" font-size="10.00"> </text>
<polygon fill="#666666" stroke="#666666" points="0,-50 0,-50 125,-50 125,-50 0,-50"/>
<polygon fill="#666666" stroke="#666666" points="0,-18 0,-18 29.5,-18 29.5,-18 0,-18"/>
<polygon fill="#666666" stroke="#666666" points="29.5,-18 29.5,-18 125,-18 125,-18 29.5,-18"/>
<polygon fill="none" stroke="#666666" points="0,0 0,-80 125,-80 125,0 0,0"/>
</a>
</g>
</g>
</g>
</svg>
