<?xml version="1.0" encoding="UTF-8" standalone="no"?>
<!DOCTYPE svg PUBLIC "-//W3C//DTD SVG 1.1//EN"
 "http://www.w3.org/Graphics/SVG/1.1/DTD/svg11.dtd">
<!-- Generated by graphviz version 14.1.1 (20251213.1925)
 -->
<!-- Title: lab1_gr1.ViewModels.RecipeVM.RecipeListFilterVM Pages: 1 -->
<svg width="168pt" height="160pt"
 viewBox="0.00 0.00 168.00 160.00" xmlns="http://www.w3.org/2000/svg" xmlns:xlink="http://www.w3.org/1999/xlink">
<g id="graph0" class="graph" transform="scale(1 1) rotate(0) translate(4 156)">
<title>lab1_gr1.ViewModels.RecipeVM.RecipeListFilterVM</title>
<!-- Node1 -->
<g id="Node000001" class="node">
<title>Node1</title>
<g id="a_Node000001"><a xlink:title="ViewModel używany do filtrowania i wyświetlania listy przepisów.">
<polygon fill="#999999" stroke="none" points="159.75,-152 0,-152 0,0 159.75,0 159.75,-152"/>
<text xml:space="preserve" text-anchor="start" x="16.5" y="-138.5" font-family="Helvetica,sans-Serif" font-size="10.00">lab1_gr1.ViewModels.Recipe</text>
<text xml:space="preserve" text-anchor="start" x="29.25" y="-126.5" font-family="Helvetica,sans-Serif" font-size="10.00">VM.RecipeListFilterVM</text>
<text xml:space="preserve" text-anchor="start" x="4" y="-110.5" font-family="Helvetica,sans-Serif" font-size="10.00">+</text>
<text xml:space="preserve" text-anchor="start" x="14" y="-110.5" font-family="Helvetica,sans-Serif" font-size="10.00">List&lt; int &gt; SelectedIngredientIds</text>
<text xml:space="preserve" text-anchor="start" x="4" y="-94.5" font-family="Helvetica,sans-Serif" font-size="10.00">+</text>
<text xml:space="preserve" text-anchor="start" x="14" y="-94.5" font-family="Helvetica,sans-Serif" font-size="10.00">bool ShowMyRecipes</text>
<text xml:space="preserve" text-anchor="start" x="4" y="-78.5" font-family="Helvetica,sans-Serif" font-size="10.00">+</text>
<text xml:space="preserve" text-anchor="start" x="14" y="-78.5" font-family="Helvetica,sans-Serif" font-size="10.00">bool ShowOthersRecipes</text>
<text xml:space="preserve" text-anchor="start" x="4" y="-62.5" font-family="Helvetica,sans-Serif" font-size="10.00">+</text>
<text xml:space="preserve" text-anchor="start" x="14" y="-62.5" font-family="Helvetica,sans-Serif" font-size="10.00">List&lt; RecipeListVM</text>
<text xml:space="preserve" text-anchor="start" x="14" y="-50.5" font-family="Helvetica,sans-Serif" font-size="10.00"> &gt; Recipes</text>
<text xml:space="preserve" text-anchor="start" x="4" y="-34.5" font-family="Helvetica,sans-Serif" font-size="10.00">+</text>
<text xml:space="preserve" text-anchor="start" x="14" y="-34.5" font-family="Helvetica,sans-Serif" font-size="10.00">List&lt; IngredientListVM</text>
<text xml:space="preserve" text-anchor="start" x="14" y="-22.5" font-family="Helvetica,sans-Serif" font-size="10.00"> &gt; AvailableIngredients</text>
<text xml:space="preserve" text-anchor="start" x="78.38" y="-6.5" font-family="Helvetica,sans-Serif" font-size="10.00"> </text>
<polygon fill="#666666" stroke="#666666" points="0,-122 0,-122 159.75,-122 159.75,-122 0,-122"/>
<polygon fill="#666666" stroke="#666666" points="0,-18 0,-18 12,-18 12,-18 0,-18"/>
<polygon fill="#666666" stroke="#666666" points="12,-18 12,-18 159.75,-18 159.75,-18 12,-18"/>
<polygon fill="none" stroke="#666666" points="0,0 0,-152 159.75,-152 159.75,0 0,0"/>
</a>
</g>
</g>
</g>
</svg>
