<?xml version="1.0" encoding="UTF-8" standalone="no"?>
<!DOCTYPE svg PUBLIC "-//W3C//DTD SVG 1.1//EN"
 "http://www.w3.org/Graphics/SVG/1.1/DTD/svg11.dtd">
<!-- Generated by graphviz version 14.1.1 (20251213.1925)
 -->
<!-- Title: lab1_gr1.ViewModels.RecipeScheduleVM.AddRecipeToScheduleVM Pages: 1 -->
<svg width="189pt" height="104pt"
 viewBox="0.00 0.00 189.00 104.00" xmlns="http://www.w3.org/2000/svg" xmlns:xlink="http://www.w3.org/1999/xlink">
<g id="graph0" class="graph" transform="scale(1 1) rotate(0) translate(4 100)">
<title>lab1_gr1.ViewModels.RecipeScheduleVM.AddRecipeToScheduleVM</title>
<!-- Node1 -->
<g id="Node000001" class="node">
<title>Node1</title>
<g id="a_Node000001"><a xlink:title="ViewModel używany do dodawania istniejącego przepisu do harmonogramu użytkownika.">
<polygon fill="#999999" stroke="none" points="180.5,-96 0,-96 0,0 180.5,0 180.5,-96"/>
<text xml:space="preserve" text-anchor="start" x="4" y="-82.5" font-family="Helvetica,sans-Serif" font-size="10.00">lab1_gr1.ViewModels.Recipe</text>
<text xml:space="preserve" text-anchor="start" x="4" y="-70.5" font-family="Helvetica,sans-Serif" font-size="10.00">ScheduleVM.AddRecipeToScheduleVM</text>
<text xml:space="preserve" text-anchor="start" x="23.62" y="-54.5" font-family="Helvetica,sans-Serif" font-size="10.00">+</text>
<text xml:space="preserve" text-anchor="start" x="53.25" y="-54.5" font-family="Helvetica,sans-Serif" font-size="10.00">int RecipeId</text>
<text xml:space="preserve" text-anchor="start" x="23.62" y="-38.5" font-family="Helvetica,sans-Serif" font-size="10.00">+</text>
<text xml:space="preserve" text-anchor="start" x="53.25" y="-38.5" font-family="Helvetica,sans-Serif" font-size="10.00">string RecipeName</text>
<text xml:space="preserve" text-anchor="start" x="23.62" y="-22.5" font-family="Helvetica,sans-Serif" font-size="10.00">+</text>
<text xml:space="preserve" text-anchor="start" x="53.25" y="-22.5" font-family="Helvetica,sans-Serif" font-size="10.00">int SelectedDay</text>
<text xml:space="preserve" text-anchor="start" x="88.75" y="-6.5" font-family="Helvetica,sans-Serif" font-size="10.00"> </text>
<polygon fill="#666666" stroke="#666666" points="0,-66 0,-66 180.5,-66 180.5,-66 0,-66"/>
<polygon fill="#666666" stroke="#666666" points="0,-18 0,-18 51.25,-18 51.25,-18 0,-18"/>
<polygon fill="#666666" stroke="#666666" points="51.25,-18 51.25,-18 180.5,-18 180.5,-18 51.25,-18"/>
<polygon fill="none" stroke="#666666" points="0,0 0,-96 180.5,-96 180.5,0 0,0"/>
</a>
</g>
</g>
</g>
</svg>
