<?xml version="1.0" encoding="UTF-8" standalone="no"?>
<!DOCTYPE svg PUBLIC "-//W3C//DTD SVG 1.1//EN"
 "http://www.w3.org/Graphics/SVG/1.1/DTD/svg11.dtd">
<!-- Generated by graphviz version 14.1.1 (20251213.1925)
 -->
<!-- Title: lab1_gr1.Controllers.RecipeController Pages: 1 -->
<svg width="193pt" height="540pt"
 viewBox="0.00 0.00 193.00 540.00" xmlns="http://www.w3.org/2000/svg" xmlns:xlink="http://www.w3.org/1999/xlink">
<g id="graph0" class="graph" transform="scale(1 1) rotate(0) translate(4 536)">
<title>lab1_gr1.Controllers.RecipeController</title>
<!-- Node1 -->
<g id="Node000001" class="node">
<title>Node1</title>
<g id="a_Node000001"><a xlink:title="Kontroler odpowiedzialny za zarządzanie przepisami użytkowników. Umożliwia tworzenie,...">
<polygon fill="#999999" stroke="none" points="184.5,-356 0,-356 0,0 184.5,0 184.5,-356"/>
<text xml:space="preserve" text-anchor="start" x="31.88" y="-342.5" font-family="Helvetica,sans-Serif" font-size="10.00">lab1_gr1.Controllers.Recipe</text>
<text xml:space="preserve" text-anchor="start" x="71.25" y="-330.5" font-family="Helvetica,sans-Serif" font-size="10.00">Controller</text>
<text xml:space="preserve" text-anchor="start" x="90.75" y="-314.5" font-family="Helvetica,sans-Serif" font-size="10.00"> </text>
<text xml:space="preserve" text-anchor="start" x="4" y="-298.5" font-family="Helvetica,sans-Serif" font-size="10.00">+</text>
<text xml:space="preserve" text-anchor="start" x="14" y="-298.5" font-family="Helvetica,sans-Serif" font-size="10.00">RecipeController(IRecipe</text>
<text xml:space="preserve" text-anchor="start" x="14" y="-286.5" font-family="Helvetica,sans-Serif" font-size="10.00">Service recipeService,</text>
<text xml:space="preserve" text-anchor="start" x="14" y="-274.5" font-family="Helvetica,sans-Serif" font-size="10.00"> IIngredientService ingredientService)</text>
<text xml:space="preserve" text-anchor="start" x="4" y="-258.5" font-family="Helvetica,sans-Serif" font-size="10.00">+</text>
<text xml:space="preserve" text-anchor="start" x="14" y="-258.5" font-family="Helvetica,sans-Serif" font-size="10.00">async Task&lt; IActionResult</text>
<text xml:space="preserve" text-anchor="start" x="14" y="-246.5" font-family="Helvetica,sans-Serif" font-size="10.00"> &gt; Index()</text>
<text xml:space="preserve" text-anchor="start" x="4" y="-230.5" font-family="Helvetica,sans-Serif" font-size="10.00">+</text>
<text xml:space="preserve" text-anchor="start" x="14" y="-230.5" font-family="Helvetica,sans-Serif" font-size="10.00">async Task&lt; IActionResult</text>
<text xml:space="preserve" text-anchor="start" x="14" y="-218.5" font-family="Helvetica,sans-Serif" font-size="10.00"> &gt; Details(int id)</text>
<text xml:space="preserve" text-anchor="start" x="4" y="-202.5" font-family="Helvetica,sans-Serif" font-size="10.00">+</text>
<text xml:space="preserve" text-anchor="start" x="14" y="-202.5" font-family="Helvetica,sans-Serif" font-size="10.00">IActionResult Create()</text>
<text xml:space="preserve" text-anchor="start" x="4" y="-186.5" font-family="Helvetica,sans-Serif" font-size="10.00">+</text>
<text xml:space="preserve" text-anchor="start" x="14" y="-186.5" font-family="Helvetica,sans-Serif" font-size="10.00">async Task&lt; IActionResult</text>
<text xml:space="preserve" text-anchor="start" x="14" y="-174.5" font-family="Helvetica,sans-Serif" font-size="10.00"> &gt; Create(CreateRecipeVM model)</text>
<text xml:space="preserve" text-anchor="start" x="4" y="-158.5" font-family="Helvetica,sans-Serif" font-size="10.00">+</text>
<text xml:space="preserve" text-anchor="start" x="14" y="-158.5" font-family="Helvetica,sans-Serif" font-size="10.00">async Task&lt; IActionResult</text>
<text xml:space="preserve" text-anchor="start" x="14" y="-146.5" font-family="Helvetica,sans-Serif" font-size="10.00"> &gt; Delete(int id)</text>
<text xml:space="preserve" text-anchor="start" x="4" y="-130.5" font-family="Helvetica,sans-Serif" font-size="10.00">+</text>
<text xml:space="preserve" text-anchor="start" x="14" y="-130.5" font-family="Helvetica,sans-Serif" font-size="10.00">async Task&lt; IActionResult</text>
<text xml:space="preserve" text-anchor="start" x="14" y="-118.5" font-family="Helvetica,sans-Serif" font-size="10.00"> &gt; Edit(int id)</text>
<text xml:space="preserve" text-anchor="start" x="4" y="-102.5" font-family="Helvetica,sans-Serif" font-size="10.00">+</text>
<text xml:space="preserve" text-anchor="start" x="14" y="-102.5" font-family="Helvetica,sans-Serif" font-size="10.00">async Task&lt; IActionResult</text>
<text xml:space="preserve" text-anchor="start" x="14" y="-90.5" font-family="Helvetica,sans-Serif" font-size="10.00"> &gt; Edit(int id, CreateRecipeVM model)</text>
<text xml:space="preserve" text-anchor="start" x="4" y="-74.5" font-family="Helvetica,sans-Serif" font-size="10.00">+</text>
<text xml:space="preserve" text-anchor="start" x="14" y="-74.5" font-family="Helvetica,sans-Serif" font-size="10.00">IActionResult Error</text>
<text xml:space="preserve" text-anchor="start" x="14" y="-62.5" font-family="Helvetica,sans-Serif" font-size="10.00">(string message)</text>
<text xml:space="preserve" text-anchor="start" x="4" y="-46.5" font-family="Helvetica,sans-Serif" font-size="10.00">+</text>
<text xml:space="preserve" text-anchor="start" x="14" y="-46.5" font-family="Helvetica,sans-Serif" font-size="10.00">async Task&lt; IActionResult</text>
<text xml:space="preserve" text-anchor="start" x="14" y="-34.5" font-family="Helvetica,sans-Serif" font-size="10.00"> &gt; Browse()</text>
<text xml:space="preserve" text-anchor="start" x="4" y="-18.5" font-family="Helvetica,sans-Serif" font-size="10.00">+</text>
<text xml:space="preserve" text-anchor="start" x="14" y="-18.5" font-family="Helvetica,sans-Serif" font-size="10.00">async Task&lt; IActionResult</text>
<text xml:space="preserve" text-anchor="start" x="14" y="-6.5" font-family="Helvetica,sans-Serif" font-size="10.00"> &gt; Browse(RecipeListFilterVM model)</text>
<polygon fill="#666666" stroke="#666666" points="0,-326 0,-326 184.5,-326 184.5,-326 0,-326"/>
<polygon fill="#666666" stroke="#666666" points="0,-310 0,-310 184.5,-310 184.5,-310 0,-310"/>
<polygon fill="none" stroke="#666666" points="0,0 0,-356 184.5,-356 184.5,0 0,0"/>
</a>
</g>
</g>
<!-- Node2 -->
<g id="Node000002" class="node">
<title>Node2</title>
<g id="a_Node000002"><a xlink:href="classlab1__gr1_1_1_controllers_1_1_base_controller.html" target="_top" xlink:title="Klasa bazowa dla kontrolerów aplikacji. Zawiera wspólne metody pomocnicze związane z sesją użytkownik...">
<polygon fill="white" stroke="none" points="133.5,-444 51,-444 51,-392 133.5,-392 133.5,-444"/>
<text xml:space="preserve" text-anchor="start" x="60" y="-430.5" font-family="Helvetica,sans-Serif" font-size="10.00">BaseController</text>
<text xml:space="preserve" text-anchor="start" x="90.75" y="-414.5" font-family="Helvetica,sans-Serif" font-size="10.00"> </text>
<text xml:space="preserve" text-anchor="start" x="55" y="-398.5" font-family="Helvetica,sans-Serif" font-size="10.00">+</text>
<text xml:space="preserve" text-anchor="start" x="65" y="-398.5" font-family="Helvetica,sans-Serif" font-size="10.00">int GetUserId()</text>
<polygon fill="#666666" stroke="#666666" points="51,-426 51,-426 133.5,-426 133.5,-426 51,-426"/>
<polygon fill="#666666" stroke="#666666" points="51,-410 51,-410 133.5,-410 133.5,-410 51,-410"/>
<polygon fill="none" stroke="#666666" points="51,-392 51,-444 133.5,-444 133.5,-392 51,-392"/>
</a>
</g>
</g>
<!-- Node2&#45;&gt;Node1 -->
<g id="edge1_Node000001_Node000002" class="edge">
<title>Node2&#45;&gt;Node1</title>
<g id="a_edge1_Node000001_Node000002"><a xlink:title=" ">
<path fill="none" stroke="#63b8ff" d="M92.25,-381.16C92.25,-373.48 92.25,-364.88 92.25,-355.67"/>
<polygon fill="none" stroke="#63b8ff" points="88.75,-380.91 92.25,-390.91 95.75,-380.91 88.75,-380.91"/>
</a>
</g>
</g>
<!-- Node3 -->
<g id="Node000003" class="node">
<title>Node3</title>
<g id="a_Node000003"><a xlink:title=" ">
<polygon fill="white" stroke="none" points="117.25,-532 67.25,-532 67.25,-480 117.25,-480 117.25,-532"/>
<text xml:space="preserve" text-anchor="start" x="71.25" y="-518.5" font-family="Helvetica,sans-Serif" font-size="10.00">Controller</text>
<text xml:space="preserve" text-anchor="start" x="90.75" y="-502.5" font-family="Helvetica,sans-Serif" font-size="10.00"> </text>
<text xml:space="preserve" text-anchor="start" x="90.75" y="-486.5" font-family="Helvetica,sans-Serif" font-size="10.00"> </text>
<polygon fill="#666666" stroke="#666666" points="67.25,-514 67.25,-514 117.25,-514 117.25,-514 67.25,-514"/>
<polygon fill="#666666" stroke="#666666" points="67.25,-498 67.25,-498 117.25,-498 117.25,-498 67.25,-498"/>
<polygon fill="none" stroke="#666666" points="67.25,-480 67.25,-532 117.25,-532 117.25,-480 67.25,-480"/>
</a>
</g>
</g>
<!-- Node3&#45;&gt;Node2 -->
<g id="edge2_Node000002_Node000003" class="edge">
<title>Node3&#45;&gt;Node2</title>
<g id="a_edge2_Node000002_Node000003"><a xlink:title=" ">
<path fill="none" stroke="#63b8ff" d="M92.25,-468.66C92.25,-460.29 92.25,-451.57 92.25,-443.82"/>
<polygon fill="none" stroke="#63b8ff" points="88.75,-468.61 92.25,-478.61 95.75,-468.61 88.75,-468.61"/>
</a>
</g>
</g>
</g>
</svg>
