<?xml version="1.0" encoding="UTF-8" standalone="no"?>
<!DOCTYPE svg PUBLIC "-//W3C//DTD SVG 1.1//EN"
 "http://www.w3.org/Graphics/SVG/1.1/DTD/svg11.dtd">
<!-- Generated by graphviz version 14.1.1 (20251213.1925)
 -->
<!-- Title: lab1_gr1.Controllers.BaseController.GetUserId Pages: 1 -->
<!--zoomable 540 -->

<svg id="main" version="1.1" xmlns="http://www.w3.org/2000/svg" xmlns:xlink="http://www.w3.org/1999/xlink" xml:space="preserve" onload="init(evt)">
<style type="text/css"><![CDATA[
.node, .edge {opacity: 0.7;}
.node.selected, .edge.selected {opacity: 1;}
.edge:hover path { stroke: red; }
.edge:hover polygon { stroke: red; fill: red; }
]]></style>

<defs>
  <circle id="rim" cx="0" cy="0" r="7"/>
  <circle id="rim2" cx="0" cy="0" r="3.5"/>
  <g id="zoomPlus">
    <use xlink:href="#rim" fill="#404040"><set attributeName="fill" to="#808080" begin="zoomplus.mouseover" end="zoomplus.mouseout"/></use>
    <path d="M-4,0h8M0,-4v8" fill="none" stroke="white" stroke-width="1.5" pointer-events="none"/>
  </g>
  <g id="zoomMin">
    <use xlink:href="#rim" fill="#404040"><set attributeName="fill" to="#808080" begin="zoomminus.mouseover" end="zoomminus.mouseout"/></use>
    <path d="M-4,0h8" fill="none" stroke="white" stroke-width="1.5" pointer-events="none"/>
  </g>
  <g id="arrowUp" transform="translate(30 24)">
    <use xlink:href="#rim"/>
    <path pointer-events="none" fill="none" stroke="white" stroke-width="1.5" d="M0,-3.0v7 M-2.5,-0.5L0,-3.0L2.5,-0.5"/>
  </g>
  <g id="arrowRight" transform="rotate(90) translate(36 -43)">
    <use xlink:href="#rim"/>
    <path pointer-events="none" fill="none" stroke="white" stroke-width="1.5" d="M0,-3.0v7 M-2.5,-0.5L0,-3.0L2.5,-0.5"/>
  </g>
  <g id="arrowDown" transform="rotate(180) translate(-30 -48)">
    <use xlink:href="#rim"/>
    <path pointer-events="none" fill="none" stroke="white" stroke-width="1.5" d="M0,-3.0v7 M-2.5,-0.5L0,-3.0L2.5,-0.5"/>
  </g>
  <g id="arrowLeft" transform="rotate(270) translate(-36 17)">
    <use xlink:href="#rim"/>
    <path pointer-events="none" fill="none" stroke="white" stroke-width="1.5" d="M0,-3.0v7 M-2.5,-0.5L0,-3.0L2.5,-0.5"/>
  </g>
  <g id="resetDef">
    <use xlink:href="#rim2" fill="#404040"><set attributeName="fill" to="#808080" begin="reset.mouseover" end="reset.mouseout"/></use>
  </g>
</defs>
<script type="application/ecmascript">
var viewWidth = 331;
var viewHeight = 540;
var sectionId = 'dynsection-2';
</script>
<script type="application/ecmascript" xlink:href="svg.min.js"/>
<svg id="graph" class="graph">
<g id="viewport">
<title>lab1_gr1.Controllers.BaseController.GetUserId</title>
<!-- Node1 -->
<g id="Node000001" class="node">
<title>Node1</title>
<g id="a_Node000001"><a xlink:title="Zwraca identyfikator aktualnie zalogowanego użytkownika zapisany w sesji HTTP.">
<polygon fill="#999999" stroke="#666666" points="323,-282 194.5,-282 194.5,-250 323,-250 323,-282"/>
<text xml:space="preserve" text-anchor="start" x="202.5" y="-268.5" font-family="Helvetica,sans-Serif" font-size="10.00">lab1_gr1.Controllers.Base</text>
<text xml:space="preserve" text-anchor="middle" x="258.75" y="-256.5" font-family="Helvetica,sans-Serif" font-size="10.00">Controller.GetUserId</text>
</a>
</g>
</g>
<!-- Node2 -->
<g id="Node000002" class="node">
<title>Node2</title>
<g id="a_Node000002"><a xlink:href="classlab1__gr1_1_1_controllers_1_1_recipe_schedule_controller.html#a4202fdcf9f82ae7b7b1bde3b5248cc29" target="_top" xlink:title="Dodaje istniejący przepis do harmonogramu użytkownika w wybranym dniu tygodnia.">
<polygon fill="white" stroke="#666666" points="156.25,-532 2.25,-532 2.25,-500 156.25,-500 156.25,-532"/>
<text xml:space="preserve" text-anchor="start" x="10.25" y="-518.5" font-family="Helvetica,sans-Serif" font-size="10.00">lab1_gr1.Controllers.Recipe</text>
<text xml:space="preserve" text-anchor="middle" x="79.25" y="-506.5" font-family="Helvetica,sans-Serif" font-size="10.00">ScheduleController.AddExisting</text>
</a>
</g>
</g>
<!-- Node1&#45;&gt;Node2 -->
<g id="edge1_Node000001_Node000002" class="edge">
<title>Node1&#45;&gt;Node2</title>
<g id="a_edge1_Node000001_Node000002"><a xlink:title=" ">
<path fill="none" stroke="#63b8ff" d="M253.18,-293.39C243.89,-340.55 218.37,-437.17 158.5,-491 154.89,-494.24 150.87,-497.06 146.59,-499.52"/>
<polygon fill="#63b8ff" stroke="#63b8ff" points="256.59,-294.22 254.98,-283.75 249.71,-292.94 256.59,-294.22"/>
</a>
</g>
</g>
<!-- Node3 -->
<g id="Node000003" class="node">
<title>Node3</title>
<g id="a_Node000003"><a xlink:href="classlab1__gr1_1_1_controllers_1_1_recipe_controller.html#a4be77987708676f3305c5a259a89286d" target="_top" xlink:title="Wyświetla widok przeglądania i filtrowania przepisów.">
<polygon fill="white" stroke="#666666" points="147.62,-482 10.88,-482 10.88,-450 147.62,-450 147.62,-482"/>
<text xml:space="preserve" text-anchor="start" x="18.88" y="-468.5" font-family="Helvetica,sans-Serif" font-size="10.00">lab1_gr1.Controllers.Recipe</text>
<text xml:space="preserve" text-anchor="middle" x="79.25" y="-456.5" font-family="Helvetica,sans-Serif" font-size="10.00">Controller.Browse</text>
</a>
</g>
</g>
<!-- Node1&#45;&gt;Node3 -->
<g id="edge2_Node000001_Node000003" class="edge">
<title>Node1&#45;&gt;Node3</title>
<g id="a_edge2_Node000001_Node000003"><a xlink:title=" ">
<path fill="none" stroke="#63b8ff" d="M249.38,-293.29C236.21,-331.74 207.03,-401.59 158.5,-441 154.51,-444.24 150.1,-447.06 145.46,-449.51"/>
<polygon fill="#63b8ff" stroke="#63b8ff" points="252.68,-294.46 252.49,-283.86 246.03,-292.27 252.68,-294.46"/>
</a>
</g>
</g>
<!-- Node4 -->
<g id="Node000004" class="node">
<title>Node4</title>
<g id="a_Node000004"><a xlink:href="classlab1__gr1_1_1_controllers_1_1_recipe_controller.html#a3d7baf2b8a06b61547d0099a1ffb6b87" target="_top" xlink:title="Obsługuje filtrowanie przepisów na podstawie wybranych składników oraz preferencji użytkownika.">
<polygon fill="white" stroke="#666666" points="147.62,-432 10.88,-432 10.88,-400 147.62,-400 147.62,-432"/>
<text xml:space="preserve" text-anchor="start" x="18.88" y="-418.5" font-family="Helvetica,sans-Serif" font-size="10.00">lab1_gr1.Controllers.Recipe</text>
<text xml:space="preserve" text-anchor="middle" x="79.25" y="-406.5" font-family="Helvetica,sans-Serif" font-size="10.00">Controller.Browse</text>
</a>
</g>
</g>
<!-- Node1&#45;&gt;Node4 -->
<g id="edge3_Node000001_Node000004" class="edge">
<title>Node1&#45;&gt;Node4</title>
<g id="a_edge3_Node000001_Node000004"><a xlink:title=" ">
<path fill="none" stroke="#63b8ff" d="M243.5,-291.97C226.72,-320.24 196.27,-364.91 158.5,-391 153.81,-394.24 148.67,-397.08 143.34,-399.56"/>
<polygon fill="#63b8ff" stroke="#63b8ff" points="246.33,-294.08 248.3,-283.67 240.27,-290.57 246.33,-294.08"/>
</a>
</g>
</g>
<!-- Node5 -->
<g id="Node000005" class="node">
<title>Node5</title>
<g id="a_Node000005"><a xlink:href="class_lista_zakupow_1_1_controllers_1_1_auth_controller.html#acce7f696e1a5d18fde24187b697bf6e7" target="_top" xlink:title="Obsługuje zmianę hasła aktualnie zalogowanego użytkownika.">
<polygon fill="white" stroke="#666666" points="158.5,-382 0,-382 0,-350 158.5,-350 158.5,-382"/>
<text xml:space="preserve" text-anchor="start" x="8" y="-368.5" font-family="Helvetica,sans-Serif" font-size="10.00">ListaZakupow.Controllers.</text>
<text xml:space="preserve" text-anchor="middle" x="79.25" y="-356.5" font-family="Helvetica,sans-Serif" font-size="10.00">AuthController.ChangePassword</text>
</a>
</g>
</g>
<!-- Node1&#45;&gt;Node5 -->
<g id="edge4_Node000001_Node000005" class="edge">
<title>Node1&#45;&gt;Node5</title>
<g id="a_edge4_Node000001_Node000005"><a xlink:title=" ">
<path fill="none" stroke="#63b8ff" d="M231.56,-289.72C212.45,-306.01 185.32,-327.1 158.5,-341 152.42,-344.15 145.87,-347 139.24,-349.55"/>
<polygon fill="#63b8ff" stroke="#63b8ff" points="233.6,-292.59 238.85,-283.39 229.01,-287.3 233.6,-292.59"/>
</a>
</g>
</g>
<!-- Node6 -->
<g id="Node000006" class="node">
<title>Node6</title>
<g id="a_Node000006"><a xlink:href="classlab1__gr1_1_1_controllers_1_1_recipe_controller.html#a2f7159cc655a6e9f981d855c07716cfe" target="_top" xlink:title="Obsługuje wysłanie formularza tworzenia nowego przepisu. Przepis zostaje przypisany do aktualnie zalo...">
<polygon fill="white" stroke="#666666" points="147.62,-332 10.88,-332 10.88,-300 147.62,-300 147.62,-332"/>
<text xml:space="preserve" text-anchor="start" x="18.88" y="-318.5" font-family="Helvetica,sans-Serif" font-size="10.00">lab1_gr1.Controllers.Recipe</text>
<text xml:space="preserve" text-anchor="middle" x="79.25" y="-306.5" font-family="Helvetica,sans-Serif" font-size="10.00">Controller.Create</text>
</a>
</g>
</g>
<!-- Node1&#45;&gt;Node6 -->
<g id="edge5_Node000001_Node000006" class="edge">
<title>Node1&#45;&gt;Node6</title>
<g id="a_edge5_Node000001_Node000006"><a xlink:title=" ">
<path fill="none" stroke="#63b8ff" d="M188.92,-285.39C172.37,-290.05 154.84,-294.99 138.8,-299.51"/>
<polygon fill="#63b8ff" stroke="#63b8ff" points="189.5,-288.86 198.17,-282.78 187.6,-282.12 189.5,-288.86"/>
</a>
</g>
</g>
<!-- Node7 -->
<g id="Node000007" class="node">
<title>Node7</title>
<g id="a_Node000007"><a xlink:href="class_lista_zakupow_1_1_controllers_1_1_auth_controller.html#a757ae32713c6fb83ee6b8cb7a6b5ec73" target="_top" xlink:title="Usuwa konto aktualnie zalogowanego użytkownika oraz czyści dane sesji.">
<polygon fill="white" stroke="#666666" points="152.12,-282 6.38,-282 6.38,-250 152.12,-250 152.12,-282"/>
<text xml:space="preserve" text-anchor="start" x="14.38" y="-268.5" font-family="Helvetica,sans-Serif" font-size="10.00">ListaZakupow.Controllers.</text>
<text xml:space="preserve" text-anchor="middle" x="79.25" y="-256.5" font-family="Helvetica,sans-Serif" font-size="10.00">AuthController.DeleteAccount</text>
</a>
</g>
</g>
<!-- Node1&#45;&gt;Node7 -->
<g id="edge6_Node000001_Node000007" class="edge">
<title>Node1&#45;&gt;Node7</title>
<g id="a_edge6_Node000001_Node000007"><a xlink:title=" ">
<path fill="none" stroke="#63b8ff" d="M182.91,-266C172.82,-266 162.48,-266 152.44,-266"/>
<polygon fill="#63b8ff" stroke="#63b8ff" points="182.66,-269.5 192.66,-266 182.66,-262.5 182.66,-269.5"/>
</a>
</g>
</g>
<!-- Node8 -->
<g id="Node000008" class="node">
<title>Node8</title>
<g id="a_Node000008"><a xlink:href="classlab1__gr1_1_1_controllers_1_1_shopping_list_controller.html#a134078598b30300cc78da04cc0d60246" target="_top" xlink:title="Generuje plik PDF z listą zakupów i udostępnia go do pobrania.">
<polygon fill="white" stroke="#666666" points="152.5,-232 6,-232 6,-200 152.5,-200 152.5,-232"/>
<text xml:space="preserve" text-anchor="start" x="14" y="-218.5" font-family="Helvetica,sans-Serif" font-size="10.00">lab1_gr1.Controllers.Shopping</text>
<text xml:space="preserve" text-anchor="middle" x="79.25" y="-206.5" font-family="Helvetica,sans-Serif" font-size="10.00">ListController.DownloadPdf</text>
</a>
</g>
</g>
<!-- Node1&#45;&gt;Node8 -->
<g id="edge7_Node000001_Node000008" class="edge">
<title>Node1&#45;&gt;Node8</title>
<g id="a_edge7_Node000001_Node000008"><a xlink:title=" ">
<path fill="none" stroke="#63b8ff" d="M188.92,-246.61C172.37,-241.95 154.84,-237.01 138.8,-232.49"/>
<polygon fill="#63b8ff" stroke="#63b8ff" points="187.6,-249.88 198.17,-249.22 189.5,-243.14 187.6,-249.88"/>
</a>
</g>
</g>
<!-- Node9 -->
<g id="Node000009" class="node">
<title>Node9</title>
<g id="a_Node000009"><a xlink:href="classlab1__gr1_1_1_controllers_1_1_recipe_controller.html#aad62652e6d4a701cf01afbfa2e12e744" target="_top" xlink:title="Wyświetla formularz edycji istniejącego przepisu. Dostęp tylko dla właściciela przepisu.">
<polygon fill="white" stroke="#666666" points="147.62,-182 10.88,-182 10.88,-150 147.62,-150 147.62,-182"/>
<text xml:space="preserve" text-anchor="start" x="18.88" y="-168.5" font-family="Helvetica,sans-Serif" font-size="10.00">lab1_gr1.Controllers.Recipe</text>
<text xml:space="preserve" text-anchor="middle" x="79.25" y="-156.5" font-family="Helvetica,sans-Serif" font-size="10.00">Controller.Edit</text>
</a>
</g>
</g>
<!-- Node1&#45;&gt;Node9 -->
<g id="edge8_Node000001_Node000009" class="edge">
<title>Node1&#45;&gt;Node9</title>
<g id="a_edge8_Node000001_Node000009"><a xlink:title=" ">
<path fill="none" stroke="#63b8ff" d="M231.56,-242.28C212.45,-225.99 185.32,-204.9 158.5,-191 152.42,-187.85 145.87,-185 139.24,-182.45"/>
<polygon fill="#63b8ff" stroke="#63b8ff" points="229.01,-244.7 238.85,-248.61 233.6,-239.41 229.01,-244.7"/>
</a>
</g>
</g>
<!-- Node10 -->
<g id="Node000010" class="node">
<title>Node10</title>
<g id="a_Node000010"><a xlink:href="classlab1__gr1_1_1_controllers_1_1_recipe_controller.html#a4e037cc52a4176d94220b8a285b2f088" target="_top" xlink:title="Obsługuje zapis zmian edytowanego przepisu.">
<polygon fill="white" stroke="#666666" points="147.62,-132 10.88,-132 10.88,-100 147.62,-100 147.62,-132"/>
<text xml:space="preserve" text-anchor="start" x="18.88" y="-118.5" font-family="Helvetica,sans-Serif" font-size="10.00">lab1_gr1.Controllers.Recipe</text>
<text xml:space="preserve" text-anchor="middle" x="79.25" y="-106.5" font-family="Helvetica,sans-Serif" font-size="10.00">Controller.Edit</text>
</a>
</g>
</g>
<!-- Node1&#45;&gt;Node10 -->
<g id="edge9_Node000001_Node000010" class="edge">
<title>Node1&#45;&gt;Node10</title>
<g id="a_edge9_Node000001_Node000010"><a xlink:title=" ">
<path fill="none" stroke="#63b8ff" d="M243.5,-240.03C226.72,-211.76 196.27,-167.09 158.5,-141 153.81,-137.76 148.67,-134.92 143.34,-132.44"/>
<polygon fill="#63b8ff" stroke="#63b8ff" points="240.27,-241.43 248.3,-248.33 246.33,-237.92 240.27,-241.43"/>
</a>
</g>
</g>
<!-- Node11 -->
<g id="Node000011" class="node">
<title>Node11</title>
<g id="a_Node000011"><a xlink:href="classlab1__gr1_1_1_controllers_1_1_recipe_controller.html#a081d66acdba93cf386db4deaac138a85" target="_top" xlink:title="Wyświetla listę przepisów zalogowanego użytkownika.">
<polygon fill="white" stroke="#666666" points="147.62,-82 10.88,-82 10.88,-50 147.62,-50 147.62,-82"/>
<text xml:space="preserve" text-anchor="start" x="18.88" y="-68.5" font-family="Helvetica,sans-Serif" font-size="10.00">lab1_gr1.Controllers.Recipe</text>
<text xml:space="preserve" text-anchor="middle" x="79.25" y="-56.5" font-family="Helvetica,sans-Serif" font-size="10.00">Controller.Index</text>
</a>
</g>
</g>
<!-- Node1&#45;&gt;Node11 -->
<g id="edge10_Node000001_Node000011" class="edge">
<title>Node1&#45;&gt;Node11</title>
<g id="a_edge10_Node000001_Node000011"><a xlink:title=" ">
<path fill="none" stroke="#63b8ff" d="M249.38,-238.71C236.21,-200.26 207.03,-130.41 158.5,-91 154.51,-87.76 150.1,-84.94 145.46,-82.49"/>
<polygon fill="#63b8ff" stroke="#63b8ff" points="246.03,-239.73 252.49,-248.14 252.68,-237.54 246.03,-239.73"/>
</a>
</g>
</g>
<!-- Node12 -->
<g id="Node000012" class="node">
<title>Node12</title>
<g id="a_Node000012"><a xlink:href="classlab1__gr1_1_1_controllers_1_1_recipe_schedule_controller.html#a889c765ba6b71bf8202ffe70b6be5c3d" target="_top" xlink:title="Wyświetla tygodniowy harmonogram przepisów użytkownika.">
<polygon fill="white" stroke="#666666" points="147.62,-32 10.88,-32 10.88,0 147.62,0 147.62,-32"/>
<text xml:space="preserve" text-anchor="start" x="18.88" y="-18.5" font-family="Helvetica,sans-Serif" font-size="10.00">lab1_gr1.Controllers.Recipe</text>
<text xml:space="preserve" text-anchor="middle" x="79.25" y="-6.5" font-family="Helvetica,sans-Serif" font-size="10.00">ScheduleController.Week</text>
</a>
</g>
</g>
<!-- Node1&#45;&gt;Node12 -->
<g id="edge11_Node000001_Node000012" class="edge">
<title>Node1&#45;&gt;Node12</title>
<g id="a_edge11_Node000001_Node000012"><a xlink:title=" ">
<path fill="none" stroke="#63b8ff" d="M253.18,-238.61C243.89,-191.45 218.37,-94.83 158.5,-41 154.89,-37.76 150.87,-34.94 146.59,-32.48"/>
<polygon fill="#63b8ff" stroke="#63b8ff" points="249.71,-239.06 254.98,-248.25 256.59,-237.78 249.71,-239.06"/>
</a>
</g>
</g>
</g>
</svg>

<g id="navigator" transform="translate(0 0)" fill="#404254">
  <rect fill="#f2f5e9" fill-opacity="0.5" stroke="#606060" stroke-width=".5" x="0" y="0" width="60" height="60"/>
  <use id="zoomplus" xlink:href="#zoomPlus" x="17" y="9" onmousedown="handleZoom(evt,'in')"/>
  <use id="zoomminus" xlink:href="#zoomMin" x="42" y="9" onmousedown="handleZoom(evt,'out')"/>
  <use id="reset" xlink:href="#resetDef" x="30" y="36" onmousedown="handleReset()"/>
   <use id="arrowup" xlink:href="#arrowUp" x="0" y="0" onmousedown="handlePan(0,-1)"/>
  <use id="arrowright" xlink:href="#arrowRight" x="0" y="0" onmousedown="handlePan(1,0)"/>
  <use id="arrowdown" xlink:href="#arrowDown" x="0" y="0" onmousedown="handlePan(0,1)"/>
  <use id="arrowleft" xlink:href="#arrowLeft" x="0" y="0" onmousedown="handlePan(-1,0)"/>
</g>
<svg viewBox="0 0 15 15" width="100%" height="30px" preserveAspectRatio="xMaxYMin meet">
 <g id="arrow_out" transform="scale(0.3 0.3)">
  <a xlink:href="classlab1__gr1_1_1_controllers_1_1_base_controller_ad8f09323227f3c479729ca3710f85136_icgraph_org.svg" target="_base">
   <rect id="button" ry="5" rx="5" y="6" x="6" height="38" width="38"
        fill="#f2f5e9" fill-opacity="0.5" stroke="#606060" stroke-width="1.0"/>
   <path id="arrow"
     d="M 11.500037,31.436501 C 11.940474,20.09759 22.043105,11.32322 32.158766,21.979434 L 37.068811,17.246167 C 37.068811,17.246167 37.088388,32 37.088388,32 L 22.160133,31.978069 C 22.160133,31.978069 26.997745,27.140456 26.997745,27.140456 C 18.528582,18.264221 13.291696,25.230495 11.500037,31.436501 z"
     style="fill:#404040;"/>
  </a>
 </g>
</svg>

<style type='text/css'>
<![CDATA[
[data-mouse-over-selected='false'] { opacity: 0.7; }
[data-mouse-over-selected='true']  { opacity: 1.0; }
]]>
</style>
<script type="application/ecmascript"><![CDATA[
document.addEventListener('DOMContentLoaded', (event) => {
  highlightEdges();
  highlightAdjacentNodes();
});
]]></script>
</svg>
