<?xml version="1.0" encoding="UTF-8" standalone="no"?>
<!DOCTYPE svg PUBLIC "-//W3C//DTD SVG 1.1//EN"
 "http://www.w3.org/Graphics/SVG/1.1/DTD/svg11.dtd">
<!-- Generated by graphviz version 14.1.1 (20251213.1925)
 -->
<!-- Title: lab1_gr1.Services.UserService Pages: 1 -->
<svg width="336pt" height="930pt"
 viewBox="0.00 0.00 336.00 930.00" xmlns="http://www.w3.org/2000/svg" xmlns:xlink="http://www.w3.org/1999/xlink">
<g id="graph0" class="graph" transform="scale(1 1) rotate(0) translate(4 926)">
<title>lab1_gr1.Services.UserService</title>
<!-- Node1 -->
<g id="Node000001" class="node">
<title>Node1</title>
<g id="a_Node000001"><a xlink:title="Serwis odpowiedzialny za obsługę użytkowników systemu, w tym rejestrację, logowanie,...">
<polygon fill="#999999" stroke="none" points="315.38,-276 100.88,-276 100.88,0 315.38,0 315.38,-276"/>
<text xml:space="preserve" text-anchor="start" x="140.62" y="-262.5" font-family="Helvetica,sans-Serif" font-size="10.00">lab1_gr1.Services.UserService</text>
<text xml:space="preserve" text-anchor="start" x="206.62" y="-246.5" font-family="Helvetica,sans-Serif" font-size="10.00"> </text>
<text xml:space="preserve" text-anchor="start" x="104.88" y="-230.5" font-family="Helvetica,sans-Serif" font-size="10.00">+</text>
<text xml:space="preserve" text-anchor="start" x="114.88" y="-230.5" font-family="Helvetica,sans-Serif" font-size="10.00">UserService(MyDBContext</text>
<text xml:space="preserve" text-anchor="start" x="114.88" y="-218.5" font-family="Helvetica,sans-Serif" font-size="10.00"> dbContext, IMapper mapper,</text>
<text xml:space="preserve" text-anchor="start" x="114.88" y="-206.5" font-family="Helvetica,sans-Serif" font-size="10.00"> PasswordHasher&lt; User &gt; passwordHasher)</text>
<text xml:space="preserve" text-anchor="start" x="104.88" y="-190.5" font-family="Helvetica,sans-Serif" font-size="10.00">+</text>
<text xml:space="preserve" text-anchor="start" x="114.88" y="-190.5" font-family="Helvetica,sans-Serif" font-size="10.00">async Task&lt; bool &gt;</text>
<text xml:space="preserve" text-anchor="start" x="114.88" y="-178.5" font-family="Helvetica,sans-Serif" font-size="10.00"> RegisterAsync(RegisterVM</text>
<text xml:space="preserve" text-anchor="start" x="114.88" y="-166.5" font-family="Helvetica,sans-Serif" font-size="10.00"> model)</text>
<text xml:space="preserve" text-anchor="start" x="104.88" y="-150.5" font-family="Helvetica,sans-Serif" font-size="10.00">+</text>
<text xml:space="preserve" text-anchor="start" x="114.88" y="-150.5" font-family="Helvetica,sans-Serif" font-size="10.00">async Task&lt; User?&gt;</text>
<text xml:space="preserve" text-anchor="start" x="114.88" y="-138.5" font-family="Helvetica,sans-Serif" font-size="10.00"> LoginAsync(LoginVM</text>
<text xml:space="preserve" text-anchor="start" x="114.88" y="-126.5" font-family="Helvetica,sans-Serif" font-size="10.00"> model)</text>
<text xml:space="preserve" text-anchor="start" x="104.88" y="-110.5" font-family="Helvetica,sans-Serif" font-size="10.00">+</text>
<text xml:space="preserve" text-anchor="start" x="114.88" y="-110.5" font-family="Helvetica,sans-Serif" font-size="10.00">void Logout(HttpContext</text>
<text xml:space="preserve" text-anchor="start" x="114.88" y="-98.5" font-family="Helvetica,sans-Serif" font-size="10.00"> httpContext)</text>
<text xml:space="preserve" text-anchor="start" x="104.88" y="-82.5" font-family="Helvetica,sans-Serif" font-size="10.00">+</text>
<text xml:space="preserve" text-anchor="start" x="114.88" y="-82.5" font-family="Helvetica,sans-Serif" font-size="10.00">async Task&lt; bool &gt;</text>
<text xml:space="preserve" text-anchor="start" x="114.88" y="-70.5" font-family="Helvetica,sans-Serif" font-size="10.00"> ChangePasswordAsync</text>
<text xml:space="preserve" text-anchor="start" x="114.88" y="-58.5" font-family="Helvetica,sans-Serif" font-size="10.00">(int userId, string current</text>
<text xml:space="preserve" text-anchor="start" x="114.88" y="-46.5" font-family="Helvetica,sans-Serif" font-size="10.00">Password, string newPassword)</text>
<text xml:space="preserve" text-anchor="start" x="104.88" y="-30.5" font-family="Helvetica,sans-Serif" font-size="10.00">+</text>
<text xml:space="preserve" text-anchor="start" x="114.88" y="-30.5" font-family="Helvetica,sans-Serif" font-size="10.00">async Task&lt; bool &gt;</text>
<text xml:space="preserve" text-anchor="start" x="114.88" y="-18.5" font-family="Helvetica,sans-Serif" font-size="10.00"> DeleteAccountAsync</text>
<text xml:space="preserve" text-anchor="start" x="114.88" y="-6.5" font-family="Helvetica,sans-Serif" font-size="10.00">(int userId)</text>
<polygon fill="#666666" stroke="#666666" points="100.88,-258 100.88,-258 315.38,-258 315.38,-258 100.88,-258"/>
<polygon fill="#666666" stroke="#666666" points="100.88,-242 100.88,-242 315.38,-242 315.38,-242 100.88,-242"/>
<polygon fill="none" stroke="#666666" points="100.88,0 100.88,-276 315.38,-276 315.38,0 100.88,0"/>
</a>
</g>
</g>
<!-- Node2 -->
<g id="Node000002" class="node">
<title>Node2</title>
<g id="a_Node000002"><a xlink:href="classlab1__gr1_1_1_services_1_1_base_service.html" target="_top" xlink:title="Klasa bazowa dla wszystkich serwisów aplikacji. Zapewnia dostęp do kontekstu bazy danych oraz mechani...">
<polygon fill="white" stroke="none" points="154.5,-445 9.75,-445 9.75,-381 154.5,-381 154.5,-445"/>
<text xml:space="preserve" text-anchor="start" x="54.38" y="-431.5" font-family="Helvetica,sans-Serif" font-size="10.00">BaseService</text>
<text xml:space="preserve" text-anchor="start" x="13.75" y="-415.5" font-family="Helvetica,sans-Serif" font-size="10.00">#</text>
<text xml:space="preserve" text-anchor="start" x="23" y="-415.5" font-family="Helvetica,sans-Serif" font-size="10.00">readonly IMapper _mapper</text>
<text xml:space="preserve" text-anchor="start" x="13.75" y="-399.5" font-family="Helvetica,sans-Serif" font-size="10.00">#</text>
<text xml:space="preserve" text-anchor="start" x="23" y="-399.5" font-family="Helvetica,sans-Serif" font-size="10.00">BaseService(MyDBContext</text>
<text xml:space="preserve" text-anchor="start" x="23" y="-387.5" font-family="Helvetica,sans-Serif" font-size="10.00"> dbContext, IMapper mapper)</text>
<polygon fill="#666666" stroke="#666666" points="9.75,-427 9.75,-427 154.5,-427 154.5,-427 9.75,-427"/>
<polygon fill="#666666" stroke="#666666" points="9.75,-411 9.75,-411 21,-411 21,-411 9.75,-411"/>
<polygon fill="#666666" stroke="#666666" points="21,-411 21,-411 154.5,-411 154.5,-411 21,-411"/>
<polygon fill="none" stroke="#666666" points="9.75,-381 9.75,-445 154.5,-445 154.5,-381 9.75,-381"/>
</a>
</g>
</g>
<!-- Node2&#45;&gt;Node1 -->
<g id="edge1_Node000001_Node000002" class="edge">
<title>Node2&#45;&gt;Node1</title>
<g id="a_edge1_Node000001_Node000002"><a xlink:title=" ">
<path fill="none" stroke="#63b8ff" d="M101.15,-370.78C113.01,-345.09 129.01,-310.42 145.02,-275.73"/>
<polygon fill="none" stroke="#63b8ff" points="97.98,-369.29 96.97,-379.84 104.34,-372.23 97.98,-369.29"/>
</a>
</g>
</g>
<!-- Node3 -->
<g id="Node000003" class="node">
<title>Node3</title>
<g id="a_Node000003"><a xlink:href="classlab1__gr1_1_1_models_1_1_my_d_b_context.html" target="_top" xlink:title="Kontekst bazy danych dla aplikacji ListaZakupow. Zawiera DbSet&#45;y dla użytkowników,...">
<polygon fill="white" stroke="none" points="164.25,-833 0,-833 0,-561 164.25,-561 164.25,-833"/>
<text xml:space="preserve" text-anchor="start" x="13.88" y="-819.5" font-family="Helvetica,sans-Serif" font-size="10.00">lab1_gr1.Models.MyDBContext</text>
<text xml:space="preserve" text-anchor="start" x="4" y="-803.5" font-family="Helvetica,sans-Serif" font-size="10.00">+</text>
<text xml:space="preserve" text-anchor="start" x="14" y="-803.5" font-family="Helvetica,sans-Serif" font-size="10.00">virtual DbSet&lt; User</text>
<text xml:space="preserve" text-anchor="start" x="14" y="-791.5" font-family="Helvetica,sans-Serif" font-size="10.00"> &gt; Users</text>
<text xml:space="preserve" text-anchor="start" x="4" y="-775.5" font-family="Helvetica,sans-Serif" font-size="10.00">+</text>
<text xml:space="preserve" text-anchor="start" x="14" y="-775.5" font-family="Helvetica,sans-Serif" font-size="10.00">virtual DbSet&lt; Recipe</text>
<text xml:space="preserve" text-anchor="start" x="14" y="-763.5" font-family="Helvetica,sans-Serif" font-size="10.00"> &gt; Recipes</text>
<text xml:space="preserve" text-anchor="start" x="4" y="-747.5" font-family="Helvetica,sans-Serif" font-size="10.00">+</text>
<text xml:space="preserve" text-anchor="start" x="14" y="-747.5" font-family="Helvetica,sans-Serif" font-size="10.00">virtual DbSet&lt; Ingredient</text>
<text xml:space="preserve" text-anchor="start" x="14" y="-735.5" font-family="Helvetica,sans-Serif" font-size="10.00"> &gt; Ingredients</text>
<text xml:space="preserve" text-anchor="start" x="4" y="-719.5" font-family="Helvetica,sans-Serif" font-size="10.00">+</text>
<text xml:space="preserve" text-anchor="start" x="14" y="-719.5" font-family="Helvetica,sans-Serif" font-size="10.00">virtual DbSet&lt; RecipeIngredient</text>
<text xml:space="preserve" text-anchor="start" x="14" y="-707.5" font-family="Helvetica,sans-Serif" font-size="10.00"> &gt; RecipeIngredients</text>
<text xml:space="preserve" text-anchor="start" x="4" y="-691.5" font-family="Helvetica,sans-Serif" font-size="10.00">+</text>
<text xml:space="preserve" text-anchor="start" x="14" y="-691.5" font-family="Helvetica,sans-Serif" font-size="10.00">virtual DbSet&lt; RecipeSchedule</text>
<text xml:space="preserve" text-anchor="start" x="14" y="-679.5" font-family="Helvetica,sans-Serif" font-size="10.00"> &gt; RecipeSchedules</text>
<text xml:space="preserve" text-anchor="start" x="4" y="-663.5" font-family="Helvetica,sans-Serif" font-size="10.00">+</text>
<text xml:space="preserve" text-anchor="start" x="14" y="-663.5" font-family="Helvetica,sans-Serif" font-size="10.00">virtual DbSet&lt; ShoppingList</text>
<text xml:space="preserve" text-anchor="start" x="14" y="-651.5" font-family="Helvetica,sans-Serif" font-size="10.00"> &gt; ShoppingLists</text>
<text xml:space="preserve" text-anchor="start" x="4" y="-635.5" font-family="Helvetica,sans-Serif" font-size="10.00">+</text>
<text xml:space="preserve" text-anchor="start" x="14" y="-635.5" font-family="Helvetica,sans-Serif" font-size="10.00">virtual DbSet&lt; ShoppingList</text>
<text xml:space="preserve" text-anchor="start" x="14" y="-623.5" font-family="Helvetica,sans-Serif" font-size="10.00">Item &gt; ShoppingListItems</text>
<text xml:space="preserve" text-anchor="start" x="4" y="-607.5" font-family="Helvetica,sans-Serif" font-size="10.00">+</text>
<text xml:space="preserve" text-anchor="start" x="14" y="-607.5" font-family="Helvetica,sans-Serif" font-size="10.00">MyDBContext(DbContextOptions</text>
<text xml:space="preserve" text-anchor="start" x="14" y="-595.5" font-family="Helvetica,sans-Serif" font-size="10.00">&lt; MyDBContext &gt; options)</text>
<text xml:space="preserve" text-anchor="start" x="4.38" y="-579.5" font-family="Helvetica,sans-Serif" font-size="10.00">#</text>
<text xml:space="preserve" text-anchor="start" x="14" y="-579.5" font-family="Helvetica,sans-Serif" font-size="10.00">override void OnModelCreating</text>
<text xml:space="preserve" text-anchor="start" x="14" y="-567.5" font-family="Helvetica,sans-Serif" font-size="10.00">(ModelBuilder modelBuilder)</text>
<polygon fill="#666666" stroke="#666666" points="0,-815 0,-815 164.25,-815 164.25,-815 0,-815"/>
<polygon fill="#666666" stroke="#666666" points="0,-619 0,-619 12,-619 12,-619 0,-619"/>
<polygon fill="#666666" stroke="#666666" points="12,-619 12,-619 164.25,-619 164.25,-619 12,-619"/>
<polygon fill="none" stroke="#666666" points="0,-561 0,-833 164.25,-833 164.25,-561 0,-561"/>
</a>
</g>
</g>
<!-- Node3&#45;&gt;Node2 -->
<g id="edge2_Node000002_Node000003" class="edge">
<title>Node3&#45;&gt;Node2</title>
<g id="a_edge2_Node000002_Node000003"><a xlink:title=" ">
<path fill="none" stroke="#63b8ff" d="M82.12,-561.19C82.12,-523.83 82.12,-485.89 82.12,-457.89"/>
<polygon fill="none" stroke="#63b8ff" points="82.13,-457.89 78.13,-451.89 82.13,-445.89 86.13,-451.89 82.13,-457.89"/>
</a>
</g>
<text xml:space="preserve" text-anchor="middle" x="111.38" y="-533.5" font-family="Helvetica,sans-Serif" font-size="10.00" fill="grey"> #_dbContext</text>
</g>
<!-- Node4 -->
<g id="Node000004" class="node">
<title>Node4</title>
<g id="a_Node000004"><a xlink:title=" ">
<polygon fill="white" stroke="none" points="109.75,-922 54.5,-922 54.5,-870 109.75,-870 109.75,-922"/>
<text xml:space="preserve" text-anchor="start" x="58.5" y="-908.5" font-family="Helvetica,sans-Serif" font-size="10.00">DbContext</text>
<text xml:space="preserve" text-anchor="start" x="80.62" y="-892.5" font-family="Helvetica,sans-Serif" font-size="10.00"> </text>
<text xml:space="preserve" text-anchor="start" x="80.62" y="-876.5" font-family="Helvetica,sans-Serif" font-size="10.00"> </text>
<polygon fill="#666666" stroke="#666666" points="54.5,-904 54.5,-904 109.75,-904 109.75,-904 54.5,-904"/>
<polygon fill="#666666" stroke="#666666" points="54.5,-888 54.5,-888 109.75,-888 109.75,-888 54.5,-888"/>
<polygon fill="none" stroke="#666666" points="54.5,-870 54.5,-922 109.75,-922 109.75,-870 54.5,-870"/>
</a>
</g>
</g>
<!-- Node4&#45;&gt;Node3 -->
<g id="edge3_Node000003_Node000004" class="edge">
<title>Node4&#45;&gt;Node3</title>
<g id="a_edge3_Node000003_Node000004"><a xlink:title=" ">
<path fill="none" stroke="#63b8ff" d="M82.12,-858.81C82.12,-850.92 82.12,-842.12 82.12,-832.81"/>
<polygon fill="none" stroke="#63b8ff" points="78.63,-858.54 82.13,-868.54 85.63,-858.54 78.63,-858.54"/>
</a>
</g>
</g>
<!-- Node5 -->
<g id="Node000005" class="node">
<title>Node5</title>
<g id="a_Node000005"><a xlink:href="interfacelab1__gr1_1_1_interfaces_1_1_i_user_service.html" target="_top" xlink:title="Interfejs definiujący metody serwisu obsługującego użytkowników.">
<polygon fill="white" stroke="none" points="327.75,-513 172.5,-513 172.5,-313 327.75,-313 327.75,-513"/>
<text xml:space="preserve" text-anchor="start" x="221.62" y="-499.5" font-family="Helvetica,sans-Serif" font-size="10.00">IUserService</text>
<text xml:space="preserve" text-anchor="start" x="248.62" y="-483.5" font-family="Helvetica,sans-Serif" font-size="10.00"> </text>
<text xml:space="preserve" text-anchor="start" x="176.5" y="-467.5" font-family="Helvetica,sans-Serif" font-size="10.00">+</text>
<text xml:space="preserve" text-anchor="start" x="186.5" y="-467.5" font-family="Helvetica,sans-Serif" font-size="10.00">Task&lt; bool &gt; RegisterAsync</text>
<text xml:space="preserve" text-anchor="start" x="186.5" y="-455.5" font-family="Helvetica,sans-Serif" font-size="10.00">(RegisterVM model)</text>
<text xml:space="preserve" text-anchor="start" x="176.5" y="-439.5" font-family="Helvetica,sans-Serif" font-size="10.00">+</text>
<text xml:space="preserve" text-anchor="start" x="186.5" y="-439.5" font-family="Helvetica,sans-Serif" font-size="10.00">Task&lt; User?&gt; LoginAsync</text>
<text xml:space="preserve" text-anchor="start" x="186.5" y="-427.5" font-family="Helvetica,sans-Serif" font-size="10.00">(LoginVM model)</text>
<text xml:space="preserve" text-anchor="start" x="176.5" y="-411.5" font-family="Helvetica,sans-Serif" font-size="10.00">+</text>
<text xml:space="preserve" text-anchor="start" x="186.5" y="-411.5" font-family="Helvetica,sans-Serif" font-size="10.00">void Logout(HttpContext</text>
<text xml:space="preserve" text-anchor="start" x="186.5" y="-399.5" font-family="Helvetica,sans-Serif" font-size="10.00"> httpContext)</text>
<text xml:space="preserve" text-anchor="start" x="176.5" y="-383.5" font-family="Helvetica,sans-Serif" font-size="10.00">+</text>
<text xml:space="preserve" text-anchor="start" x="186.5" y="-383.5" font-family="Helvetica,sans-Serif" font-size="10.00">Task&lt; bool &gt; DeleteAccount</text>
<text xml:space="preserve" text-anchor="start" x="186.5" y="-371.5" font-family="Helvetica,sans-Serif" font-size="10.00">Async(int userId)</text>
<text xml:space="preserve" text-anchor="start" x="176.5" y="-355.5" font-family="Helvetica,sans-Serif" font-size="10.00">+</text>
<text xml:space="preserve" text-anchor="start" x="186.5" y="-355.5" font-family="Helvetica,sans-Serif" font-size="10.00">Task&lt; bool &gt; ChangePassword</text>
<text xml:space="preserve" text-anchor="start" x="186.5" y="-343.5" font-family="Helvetica,sans-Serif" font-size="10.00">Async(int userId, string</text>
<text xml:space="preserve" text-anchor="start" x="186.5" y="-331.5" font-family="Helvetica,sans-Serif" font-size="10.00"> currentPassword, string</text>
<text xml:space="preserve" text-anchor="start" x="186.5" y="-319.5" font-family="Helvetica,sans-Serif" font-size="10.00"> newPassword)</text>
<polygon fill="#666666" stroke="#666666" points="172.5,-495 172.5,-495 327.75,-495 327.75,-495 172.5,-495"/>
<polygon fill="#666666" stroke="#666666" points="172.5,-479 172.5,-479 327.75,-479 327.75,-479 172.5,-479"/>
<polygon fill="none" stroke="#666666" points="172.5,-313 172.5,-513 327.75,-513 327.75,-313 172.5,-313"/>
</a>
</g>
</g>
<!-- Node5&#45;&gt;Node1 -->
<g id="edge4_Node000001_Node000005" class="edge">
<title>Node5&#45;&gt;Node1</title>
<g id="a_edge4_Node000001_Node000005"><a xlink:title=" ">
<path fill="none" stroke="#63b8ff" d="M233.17,-301.79C231.84,-293.14 230.49,-284.35 229.13,-275.56"/>
<polygon fill="none" stroke="#63b8ff" points="229.69,-302.21 234.67,-311.56 236.61,-301.14 229.69,-302.21"/>
</a>
</g>
</g>
</g>
</svg>
