<?xml version="1.0" encoding="UTF-8" standalone="no"?>
<!DOCTYPE svg PUBLIC "-//W3C//DTD SVG 1.1//EN"
 "http://www.w3.org/Graphics/SVG/1.1/DTD/svg11.dtd">
<!-- Generated by graphviz version 14.1.1 (20251213.1925)
 -->
<!-- Title: lab1_gr1.ViewModels.ShoppingListVM.CreateShoppingListFromDaysVM Pages: 1 -->
<svg width="196pt" height="72pt"
 viewBox="0.00 0.00 196.00 72.00" xmlns="http://www.w3.org/2000/svg" xmlns:xlink="http://www.w3.org/1999/xlink">
<g id="graph0" class="graph" transform="scale(1 1) rotate(0) translate(4 68)">
<title>lab1_gr1.ViewModels.ShoppingListVM.CreateShoppingListFromDaysVM</title>
<!-- Node1 -->
<g id="Node000001" class="node">
<title>Node1</title>
<g id="a_Node000001"><a xlink:title="ViewModel używany do tworzenia listy zakupów na podstawie wybranych dni tygodnia.">
<polygon fill="#999999" stroke="none" points="188,-64 0,-64 0,0 188,0 188,-64"/>
<text xml:space="preserve" text-anchor="start" x="4" y="-50.5" font-family="Helvetica,sans-Serif" font-size="10.00">lab1_gr1.ViewModels.Shopping</text>
<text xml:space="preserve" text-anchor="start" x="4" y="-38.5" font-family="Helvetica,sans-Serif" font-size="10.00">ListVM.CreateShoppingListFromDaysVM</text>
<text xml:space="preserve" text-anchor="start" x="19.31" y="-22.5" font-family="Helvetica,sans-Serif" font-size="10.00">+</text>
<text xml:space="preserve" text-anchor="start" x="44.62" y="-22.5" font-family="Helvetica,sans-Serif" font-size="10.00">List&lt; int &gt; SelectedDays</text>
<text xml:space="preserve" text-anchor="start" x="92.5" y="-6.5" font-family="Helvetica,sans-Serif" font-size="10.00"> </text>
<polygon fill="#666666" stroke="#666666" points="0,-34 0,-34 188,-34 188,-34 0,-34"/>
<polygon fill="#666666" stroke="#666666" points="0,-18 0,-18 42.62,-18 42.62,-18 0,-18"/>
<polygon fill="#666666" stroke="#666666" points="42.62,-18 42.62,-18 188,-18 188,-18 42.62,-18"/>
<polygon fill="none" stroke="#666666" points="0,0 0,-64 188,-64 188,0 0,0"/>
</a>
</g>
</g>
</g>
</svg>
