<?xml version="1.0" encoding="UTF-8" standalone="no"?>
<!DOCTYPE svg PUBLIC "-//W3C//DTD SVG 1.1//EN"
 "http://www.w3.org/Graphics/SVG/1.1/DTD/svg11.dtd">
<!-- Generated by graphviz version 14.1.1 (20251213.1925)
 -->
<!-- Title: lab1_gr1.Services.UserService Pages: 1 -->
<!--zoomable 930 -->

<svg id="main" version="1.1" xmlns="http://www.w3.org/2000/svg" xmlns:xlink="http://www.w3.org/1999/xlink" xml:space="preserve" onload="init(evt)">
<style type="text/css"><![CDATA[
.node, .edge {opacity: 0.7;}
.node.selected, .edge.selected {opacity: 1;}
.edge:hover path { stroke: red; }
.edge:hover polygon { stroke: red; fill: red; }
]]></style>

<defs>
  <circle id="rim" cx="0" cy="0" r="7"/>
  <circle id="rim2" cx="0" cy="0" r="3.5"/>
  <g id="zoomPlus">
    <use xlink:href="#rim" fill="#404040"><set attributeName="fill" to="#808080" begin="zoomplus.mouseover" end="zoomplus.mouseout"/></use>
    <path d="M-4,0h8M0,-4v8" fill="none" stroke="white" stroke-width="1.5" pointer-events="none"/>
  </g>
  <g id="zoomMin">
    <use xlink:href="#rim" fill="#404040"><set attributeName="fill" to="#808080" begin="zoomminus.mouseover" end="zoomminus.mouseout"/></use>
    <path d="M-4,0h8" fill="none" stroke="white" stroke-width="1.5" pointer-events="none"/>
  </g>
  <g id="arrowUp" transform="translate(30 24)">
    <use xlink:href="#rim"/>
    <path pointer-events="none" fill="none" stroke="white" stroke-width="1.5" d="M0,-3.0v7 M-2.5,-0.5L0,-3.0L2.5,-0.5"/>
  </g>
  <g id="arrowRight" transform="rotate(90) translate(36 -43)">
    <use xlink:href="#rim"/>
    <path pointer-events="none" fill="none" stroke="white" stroke-width="1.5" d="M0,-3.0v7 M-2.5,-0.5L0,-3.0L2.5,-0.5"/>
  </g>
  <g id="arrowDown" transform="rotate(180) translate(-30 -48)">
    <use xlink:href="#rim"/>
    <path pointer-events="none" fill="none" stroke="white" stroke-width="1.5" d="M0,-3.0v7 M-2.5,-0.5L0,-3.0L2.5,-0.5"/>
  </g>
  <g id="arrowLeft" transform="rotate(270) translate(-36 17)">
    <use xlink:href="#rim"/>
    <path pointer-events="none" fill="none" stroke="white" stroke-width="1.5" d="M0,-3.0v7 M-2.5,-0.5L0,-3.0L2.5,-0.5"/>
  </g>
  <g id="resetDef">
    <use xlink:href="#rim2" fill="#404040"><set attributeName="fill" to="#808080" begin="reset.mouseover" end="reset.mouseout"/></use>
  </g>
</defs>
<script type="application/ecmascript">
var viewWidth = 336;
var viewHeight = 930;
var sectionId = 'dynsection-1';
</script>
<script type="application/ecmascript" xlink:href="svg.min.js"/>
<svg id="graph" class="graph">
<g id="viewport">
<title>lab1_gr1.Services.UserService</title>
<!-- Node1 -->
<g id="Node000001" class="node">
<title>Node1</title>
<g id="a_Node000001"><a xlink:title="Serwis odpowiedzialny za obsługę użytkowników systemu, w tym rejestrację, logowanie,...">
<polygon fill="#999999" stroke="none" points="315.38,-276 100.88,-276 100.88,0 315.38,0 315.38,-276"/>
<text xml:space="preserve" text-anchor="start" x="140.62" y="-262.5" font-family="Helvetica,sans-Serif" font-size="10.00">lab1_gr1.Services.UserService</text>
<text xml:space="preserve" text-anchor="start" x="206.62" y="-246.5" font-family="Helvetica,sans-Serif" font-size="10.00"> </text>
<text xml:space="preserve" text-anchor="start" x="104.88" y="-230.5" font-family="Helvetica,sans-Serif" font-size="10.00">+</text>
<text xml:space="preserve" text-anchor="start" x="114.88" y="-230.5" font-family="Helvetica,sans-Serif" font-size="10.00">UserService(MyDBContext</text>
<text xml:space="preserve" text-anchor="start" x="114.88" y="-218.5" font-family="Helvetica,sans-Serif" font-size="10.00"> dbContext, IMapper mapper,</text>
<text xml:space="preserve" text-anchor="start" x="114.88" y="-206.5" font-family="Helvetica,sans-Serif" font-size="10.00"> PasswordHasher&lt; User &gt; passwordHasher)</text>
<text xml:space="preserve" text-anchor="start" x="104.88" y="-190.5" font-family="Helvetica,sans-Serif" font-size="10.00">+</text>
<text xml:space="preserve" text-anchor="start" x="114.88" y="-190.5" font-family="Helvetica,sans-Serif" font-size="10.00">async Task&lt; bool &gt;</text>
<text xml:space="preserve" text-anchor="start" x="114.88" y="-178.5" font-family="Helvetica,sans-Serif" font-size="10.00"> RegisterAsync(RegisterVM</text>
<text xml:space="preserve" text-anchor="start" x="114.88" y="-166.5" font-family="Helvetica,sans-Serif" font-size="10.00"> model)</text>
<text xml:space="preserve" text-anchor="start" x="104.88" y="-150.5" font-family="Helvetica,sans-Serif" font-size="10.00">+</text>
<text xml:space="preserve" text-anchor="start" x="114.88" y="-150.5" font-family="Helvetica,sans-Serif" font-size="10.00">async Task&lt; User?&gt;</text>
<text xml:space="preserve" text-anchor="start" x="114.88" y="-138.5" font-family="Helvetica,sans-Serif" font-size="10.00"> LoginAsync(LoginVM</text>
<text xml:space="preserve" text-anchor="start" x="114.88" y="-126.5" font-family="Helvetica,sans-Serif" font-size="10.00"> model)</text>
<text xml:space="preserve" text-anchor="start" x="104.88" y="-110.5" font-family="Helvetica,sans-Serif" font-size="10.00">+</text>
<text xml:space="preserve" text-anchor="start" x="114.88" y="-110.5" font-family="Helvetica,sans-Serif" font-size="10.00">void Logout(HttpContext</text>
<text xml:space="preserve" text-anchor="start" x="114.88" y="-98.5" font-family="Helvetica,sans-Serif" font-size="10.00"> httpContext)</text>
<text xml:space="preserve" text-anchor="start" x="104.88" y="-82.5" font-family="Helvetica,sans-Serif" font-size="10.00">+</text>
<text xml:space="preserve" text-anchor="start" x="114.88" y="-82.5" font-family="Helvetica,sans-Serif" font-size="10.00">async Task&lt; bool &gt;</text>
<text xml:space="preserve" text-anchor="start" x="114.88" y="-70.5" font-family="Helvetica,sans-Serif" font-size="10.00"> ChangePasswordAsync</text>
<text xml:space="preserve" text-anchor="start" x="114.88" y="-58.5" font-family="Helvetica,sans-Serif" font-size="10.00">(int userId, string current</text>
<text xml:space="preserve" text-anchor="start" x="114.88" y="-46.5" font-family="Helvetica,sans-Serif" font-size="10.00">Password, string newPassword)</text>
<text xml:space="preserve" text-anchor="start" x="104.88" y="-30.5" font-family="Helvetica,sans-Serif" font-size="10.00">+</text>
<text xml:space="preserve" text-anchor="start" x="114.88" y="-30.5" font-family="Helvetica,sans-Serif" font-size="10.00">async Task&lt; bool &gt;</text>
<text xml:space="preserve" text-anchor="start" x="114.88" y="-18.5" font-family="Helvetica,sans-Serif" font-size="10.00"> DeleteAccountAsync</text>
<text xml:space="preserve" text-anchor="start" x="114.88" y="-6.5" font-family="Helvetica,sans-Serif" font-size="10.00">(int userId)</text>
<polygon fill="#666666" stroke="#666666" points="100.88,-258 100.88,-258 315.38,-258 315.38,-258 100.88,-258"/>
<polygon fill="#666666" stroke="#666666" points="100.88,-242 100.88,-242 315.38,-242 315.38,-242 100.88,-242"/>
<polygon fill="none" stroke="#666666" points="100.88,0 100.88,-276 315.38,-276 315.38,0 100.88,0"/>
</a>
</g>
</g>
<!-- Node2 -->
<g id="Node000002" class="node">
<title>Node2</title>
<g id="a_Node000002"><a xlink:href="classlab1__gr1_1_1_services_1_1_base_service.html" target="_top" xlink:title="Klasa bazowa dla wszystkich serwisów aplikacji. Zapewnia dostęp do kontekstu bazy danych oraz mechani...">
<polygon fill="white" stroke="none" points="154.5,-445 9.75,-445 9.75,-381 154.5,-381 154.5,-445"/>
<text xml:space="preserve" text-anchor="start" x="54.38" y="-431.5" font-family="Helvetica,sans-Serif" font-size="10.00">BaseService</text>
<text xml:space="preserve" text-anchor="start" x="13.75" y="-415.5" font-family="Helvetica,sans-Serif" font-size="10.00">#</text>
<text xml:space="preserve" text-anchor="start" x="23" y="-415.5" font-family="Helvetica,sans-Serif" font-size="10.00">readonly IMapper _mapper</text>
<text xml:space="preserve" text-anchor="start" x="13.75" y="-399.5" font-family="Helvetica,sans-Serif" font-size="10.00">#</text>
<text xml:space="preserve" text-anchor="start" x="23" y="-399.5" font-family="Helvetica,sans-Serif" font-size="10.00">BaseService(MyDBContext</text>
<text xml:space="preserve" text-anchor="start" x="23" y="-387.5" font-family="Helvetica,sans-Serif" font-size="10.00"> dbContext, IMapper mapper)</text>
<polygon fill="#666666" stroke="#666666" points="9.75,-427 9.75,-427 154.5,-427 154.5,-427 9.75,-427"/>
<polygon fill="#666666" stroke="#666666" points="9.75,-411 9.75,-411 21,-411 21,-411 9.75,-411"/>
<polygon fill="#666666" stroke="#666666" points="21,-411 21,-411 154.5,-411 154.5,-411 21,-411"/>
<polygon fill="none" stroke="#666666" points="9.75,-381 9.75,-445 154.5,-445 154.5,-381 9.75,-381"/>
</a>
</g>
</g>
<!-- Node2&#45;&gt;Node1 -->
<g id="edge1_Node000001_Node000002" class="edge">
<title>Node2&#45;&gt;Node1</title>
<g id="a_edge1_Node000001_Node000002"><a xlink:title=" ">
<path fill="none" stroke="#63b8ff" d="M101.15,-370.78C113.01,-345.09 129.01,-310.42 145.02,-275.73"/>
<polygon fill="none" stroke="#63b8ff" points="97.98,-369.29 96.97,-379.84 104.34,-372.23 97.98,-369.29"/>
</a>
</g>
</g>
<!-- Node3 -->
<g id="Node000003" class="node">
<title>Node3</title>
<g id="a_Node000003"><a xlink:href="classlab1__gr1_1_1_models_1_1_my_d_b_context.html" target="_top" xlink:title="Kontekst bazy danych dla aplikacji ListaZakupow. Zawiera DbSet&#45;y dla użytkowników,...">
<polygon fill="white" stroke="none" points="164.25,-833 0,-833 0,-561 164.25,-561 164.25,-833"/>
<text xml:space="preserve" text-anchor="start" x="13.88" y="-819.5" font-family="Helvetica,sans-Serif" font-size="10.00">lab1_gr1.Models.MyDBContext</text>
<text xml:space="preserve" text-anchor="start" x="4" y="-803.5" font-family="Helvetica,sans-Serif" font-size="10.00">+</text>
<text xml:space="preserve" text-anchor="start" x="14" y="-803.5" font-family="Helvetica,sans-Serif" font-size="10.00">virtual DbSet&lt; User</text>
<text xml:space="preserve" text-anchor="start" x="14" y="-791.5" font-family="Helvetica,sans-Serif" font-size="10.00"> &gt; Users</text>
<text xml:space="preserve" text-anchor="start" x="4" y="-775.5" font-family="Helvetica,sans-Serif" font-size="10.00">+</text>
<text xml:space="preserve" text-anchor="start" x="14" y="-775.5" font-family="Helvetica,sans-Serif" font-size="10.00">virtual DbSet&lt; Recipe</text>
<text xml:space="preserve" text-anchor="start" x="14" y="-763.5" font-family="Helvetica,sans-Serif" font-size="10.00"> &gt; Recipes</text>
<text xml:space="preserve" text-anchor="start" x="4" y="-747.5" font-family="Helvetica,sans-Serif" font-size="10.00">+</text>
<text xml:space="preserve" text-anchor="start" x="14" y="-747.5" font-family="Helvetica,sans-Serif" font-size="10.00">virtual DbSet&lt; Ingredient</text>
<text xml:space="preserve" text-anchor="start" x="14" y="-735.5" font-family="Helvetica,sans-Serif" font-size="10.00"> &gt; Ingredients</text>
<text xml:space="preserve" text-anchor="start" x="4" y="-719.5" font-family="Helvetica,sans-Serif" font-size="10.00">+</text>
<text xml:space="preserve" text-anchor="start" x="14" y="-719.5" font-family="Helvetica,sans-Serif" font-size="10.00">virtual DbSet&lt; RecipeIngredient</text>
<text xml:space="preserve" text-anchor="start" x="14" y="-707.5" font-family="Helvetica,sans-Serif" font-size="10.00"> &gt; RecipeIngredients</text>
<text xml:space="preserve" text-anchor="start" x="4" y="-691.5" font-family="Helvetica,sans-Serif" font-size="10.00">+</text>
<text xml:space="preserve" text-anchor="start" x="14" y="-691.5" font-family="Helvetica,sans-Serif" font-size="10.00">virtual DbSet&lt; RecipeSchedule</text>
<text xml:space="preserve" text-anchor="start" x="14" y="-679.5" font-family="Helvetica,sans-Serif" font-size="10.00"> &gt; RecipeSchedules</text>
<text xml:space="preserve" text-anchor="start" x="4" y="-663.5" font-family="Helvetica,sans-Serif" font-size="10.00">+</text>
<text xml:space="preserve" text-anchor="start" x="14" y="-663.5" font-family="Helvetica,sans-Serif" font-size="10.00">virtual DbSet&lt; ShoppingList</text>
<text xml:space="preserve" text-anchor="start" x="14" y="-651.5" font-family="Helvetica,sans-Serif" font-size="10.00"> &gt; ShoppingLists</text>
<text xml:space="preserve" text-anchor="start" x="4" y="-635.5" font-family="Helvetica,sans-Serif" font-size="10.00">+</text>
<text xml:space="preserve" text-anchor="start" x="14" y="-635.5" font-family="Helvetica,sans-Serif" font-size="10.00">virtual DbSet&lt; ShoppingList</text>
<text xml:space="preserve" text-anchor="start" x="14" y="-623.5" font-family="Helvetica,sans-Serif" font-size="10.00">Item &gt; ShoppingListItems</text>
<text xml:space="preserve" text-anchor="start" x="4" y="-607.5" font-family="Helvetica,sans-Serif" font-size="10.00">+</text>
<text xml:space="preserve" text-anchor="start" x="14" y="-607.5" font-family="Helvetica,sans-Serif" font-size="10.00">MyDBContext(DbContextOptions</text>
<text xml:space="preserve" text-anchor="start" x="14" y="-595.5" font-family="Helvetica,sans-Serif" font-size="10.00">&lt; MyDBContext &gt; options)</text>
<text xml:space="preserve" text-anchor="start" x="4.38" y="-579.5" font-family="Helvetica,sans-Serif" font-size="10.00">#</text>
<text xml:space="preserve" text-anchor="start" x="14" y="-579.5" font-family="Helvetica,sans-Serif" font-size="10.00">override void OnModelCreating</text>
<text xml:space="preserve" text-anchor="start" x="14" y="-567.5" font-family="Helvetica,sans-Serif" font-size="10.00">(ModelBuilder modelBuilder)</text>
<polygon fill="#666666" stroke="#666666" points="0,-815 0,-815 164.25,-815 164.25,-815 0,-815"/>
<polygon fill="#666666" stroke="#666666" points="0,-619 0,-619 12,-619 12,-619 0,-619"/>
<polygon fill="#666666" stroke="#666666" points="12,-619 12,-619 164.25,-619 164.25,-619 12,-619"/>
<polygon fill="none" stroke="#666666" points="0,-561 0,-833 164.25,-833 164.25,-561 0,-561"/>
</a>
</g>
</g>
<!-- Node3&#45;&gt;Node2 -->
<g id="edge2_Node000002_Node000003" class="edge">
<title>Node3&#45;&gt;Node2</title>
<g id="a_edge2_Node000002_Node000003"><a xlink:title=" ">
<path fill="none" stroke="#63b8ff" d="M82.12,-561.19C82.12,-523.83 82.12,-485.89 82.12,-457.89"/>
<polygon fill="none" stroke="#63b8ff" points="82.13,-457.89 78.13,-451.89 82.13,-445.89 86.13,-451.89 82.13,-457.89"/>
</a>
</g>
<text xml:space="preserve" text-anchor="middle" x="111.38" y="-533.5" font-family="Helvetica,sans-Serif" font-size="10.00" fill="grey"> #_dbContext</text>
</g>
<!-- Node4 -->
<g id="Node000004" class="node">
<title>Node4</title>
<g id="a_Node000004"><a xlink:title=" ">
<polygon fill="white" stroke="none" points="109.75,-922 54.5,-922 54.5,-870 109.75,-870 109.75,-922"/>
<text xml:space="preserve" text-anchor="start" x="58.5" y="-908.5" font-family="Helvetica,sans-Serif" font-size="10.00">DbContext</text>
<text xml:space="preserve" text-anchor="start" x="80.62" y="-892.5" font-family="Helvetica,sans-Serif" font-size="10.00"> </text>
<text xml:space="preserve" text-anchor="start" x="80.62" y="-876.5" font-family="Helvetica,sans-Serif" font-size="10.00"> </text>
<polygon fill="#666666" stroke="#666666" points="54.5,-904 54.5,-904 109.75,-904 109.75,-904 54.5,-904"/>
<polygon fill="#666666" stroke="#666666" points="54.5,-888 54.5,-888 109.75,-888 109.75,-888 54.5,-888"/>
<polygon fill="none" stroke="#666666" points="54.5,-870 54.5,-922 109.75,-922 109.75,-870 54.5,-870"/>
</a>
</g>
</g>
<!-- Node4&#45;&gt;Node3 -->
<g id="edge3_Node000003_Node000004" class="edge">
<title>Node4&#45;&gt;Node3</title>
<g id="a_edge3_Node000003_Node000004"><a xlink:title=" ">
<path fill="none" stroke="#63b8ff" d="M82.12,-858.81C82.12,-850.92 82.12,-842.12 82.12,-832.81"/>
<polygon fill="none" stroke="#63b8ff" points="78.63,-858.54 82.13,-868.54 85.63,-858.54 78.63,-858.54"/>
</a>
</g>
</g>
<!-- Node5 -->
<g id="Node000005" class="node">
<title>Node5</title>
<g id="a_Node000005"><a xlink:href="interfacelab1__gr1_1_1_interfaces_1_1_i_user_service.html" target="_top" xlink:title="Interfejs definiujący metody serwisu obsługującego użytkowników.">
<polygon fill="white" stroke="none" points="327.75,-513 172.5,-513 172.5,-313 327.75,-313 327.75,-513"/>
<text xml:space="preserve" text-anchor="start" x="221.62" y="-499.5" font-family="Helvetica,sans-Serif" font-size="10.00">IUserService</text>
<text xml:space="preserve" text-anchor="start" x="248.62" y="-483.5" font-family="Helvetica,sans-Serif" font-size="10.00"> </text>
<text xml:space="preserve" text-anchor="start" x="176.5" y="-467.5" font-family="Helvetica,sans-Serif" font-size="10.00">+</text>
<text xml:space="preserve" text-anchor="start" x="186.5" y="-467.5" font-family="Helvetica,sans-Serif" font-size="10.00">Task&lt; bool &gt; RegisterAsync</text>
<text xml:space="preserve" text-anchor="start" x="186.5" y="-455.5" font-family="Helvetica,sans-Serif" font-size="10.00">(RegisterVM model)</text>
<text xml:space="preserve" text-anchor="start" x="176.5" y="-439.5" font-family="Helvetica,sans-Serif" font-size="10.00">+</text>
<text xml:space="preserve" text-anchor="start" x="186.5" y="-439.5" font-family="Helvetica,sans-Serif" font-size="10.00">Task&lt; User?&gt; LoginAsync</text>
<text xml:space="preserve" text-anchor="start" x="186.5" y="-427.5" font-family="Helvetica,sans-Serif" font-size="10.00">(LoginVM model)</text>
<text xml:space="preserve" text-anchor="start" x="176.5" y="-411.5" font-family="Helvetica,sans-Serif" font-size="10.00">+</text>
<text xml:space="preserve" text-anchor="start" x="186.5" y="-411.5" font-family="Helvetica,sans-Serif" font-size="10.00">void Logout(HttpContext</text>
<text xml:space="preserve" text-anchor="start" x="186.5" y="-399.5" font-family="Helvetica,sans-Serif" font-size="10.00"> httpContext)</text>
<text xml:space="preserve" text-anchor="start" x="176.5" y="-383.5" font-family="Helvetica,sans-Serif" font-size="10.00">+</text>
<text xml:space="preserve" text-anchor="start" x="186.5" y="-383.5" font-family="Helvetica,sans-Serif" font-size="10.00">Task&lt; bool &gt; DeleteAccount</text>
<text xml:space="preserve" text-anchor="start" x="186.5" y="-371.5" font-family="Helvetica,sans-Serif" font-size="10.00">Async(int userId)</text>
<text xml:space="preserve" text-anchor="start" x="176.5" y="-355.5" font-family="Helvetica,sans-Serif" font-size="10.00">+</text>
<text xml:space="preserve" text-anchor="start" x="186.5" y="-355.5" font-family="Helvetica,sans-Serif" font-size="10.00">Task&lt; bool &gt; ChangePassword</text>
<text xml:space="preserve" text-anchor="start" x="186.5" y="-343.5" font-family="Helvetica,sans-Serif" font-size="10.00">Async(int userId, string</text>
<text xml:space="preserve" text-anchor="start" x="186.5" y="-331.5" font-family="Helvetica,sans-Serif" font-size="10.00"> currentPassword, string</text>
<text xml:space="preserve" text-anchor="start" x="186.5" y="-319.5" font-family="Helvetica,sans-Serif" font-size="10.00"> newPassword)</text>
<polygon fill="#666666" stroke="#666666" points="172.5,-495 172.5,-495 327.75,-495 327.75,-495 172.5,-495"/>
<polygon fill="#666666" stroke="#666666" points="172.5,-479 172.5,-479 327.75,-479 327.75,-479 172.5,-479"/>
<polygon fill="none" stroke="#666666" points="172.5,-313 172.5,-513 327.75,-513 327.75,-313 172.5,-313"/>
</a>
</g>
</g>
<!-- Node5&#45;&gt;Node1 -->
<g id="edge4_Node000001_Node000005" class="edge">
<title>Node5&#45;&gt;Node1</title>
<g id="a_edge4_Node000001_Node000005"><a xlink:title=" ">
<path fill="none" stroke="#63b8ff" d="M233.17,-301.79C231.84,-293.14 230.49,-284.35 229.13,-275.56"/>
<polygon fill="none" stroke="#63b8ff" points="229.69,-302.21 234.67,-311.56 236.61,-301.14 229.69,-302.21"/>
</a>
</g>
</g>
</g>
</svg>

<g id="navigator" transform="translate(0 0)" fill="#404254">
  <rect fill="#f2f5e9" fill-opacity="0.5" stroke="#606060" stroke-width=".5" x="0" y="0" width="60" height="60"/>
  <use id="zoomplus" xlink:href="#zoomPlus" x="17" y="9" onmousedown="handleZoom(evt,'in')"/>
  <use id="zoomminus" xlink:href="#zoomMin" x="42" y="9" onmousedown="handleZoom(evt,'out')"/>
  <use id="reset" xlink:href="#resetDef" x="30" y="36" onmousedown="handleReset()"/>
   <use id="arrowup" xlink:href="#arrowUp" x="0" y="0" onmousedown="handlePan(0,-1)"/>
  <use id="arrowright" xlink:href="#arrowRight" x="0" y="0" onmousedown="handlePan(1,0)"/>
  <use id="arrowdown" xlink:href="#arrowDown" x="0" y="0" onmousedown="handlePan(0,1)"/>
  <use id="arrowleft" xlink:href="#arrowLeft" x="0" y="0" onmousedown="handlePan(-1,0)"/>
</g>
<svg viewBox="0 0 15 15" width="100%" height="30px" preserveAspectRatio="xMaxYMin meet">
 <g id="arrow_out" transform="scale(0.3 0.3)">
  <a xlink:href="classlab1__gr1_1_1_services_1_1_user_service__coll__graph_org.svg" target="_base">
   <rect id="button" ry="5" rx="5" y="6" x="6" height="38" width="38"
        fill="#f2f5e9" fill-opacity="0.5" stroke="#606060" stroke-width="1.0"/>
   <path id="arrow"
     d="M 11.500037,31.436501 C 11.940474,20.09759 22.043105,11.32322 32.158766,21.979434 L 37.068811,17.246167 C 37.068811,17.246167 37.088388,32 37.088388,32 L 22.160133,31.978069 C 22.160133,31.978069 26.997745,27.140456 26.997745,27.140456 C 18.528582,18.264221 13.291696,25.230495 11.500037,31.436501 z"
     style="fill:#404040;"/>
  </a>
 </g>
</svg>

<style type='text/css'>
<![CDATA[
[data-mouse-over-selected='false'] { opacity: 0.7; }
[data-mouse-over-selected='true']  { opacity: 1.0; }
]]>
</style>
<script type="application/ecmascript"><![CDATA[
document.addEventListener('DOMContentLoaded', (event) => {
  highlightEdges();
  highlightAdjacentNodes();
});
]]></script>
</svg>
