<?xml version="1.0" encoding="UTF-8" standalone="no"?>
<!DOCTYPE svg PUBLIC "-//W3C//DTD SVG 1.1//EN"
 "http://www.w3.org/Graphics/SVG/1.1/DTD/svg11.dtd">
<!-- Generated by graphviz version 14.1.1 (20251213.1925)
 -->
<!-- Title: lab1_gr1.Migrations.MyDBContextModelSnapshot Pages: 1 -->
<svg width="166pt" height="172pt"
 viewBox="0.00 0.00 166.00 172.00" xmlns="http://www.w3.org/2000/svg" xmlns:xlink="http://www.w3.org/1999/xlink">

<svg id="main" version="1.1" xmlns="http://www.w3.org/2000/svg" xmlns:xlink="http://www.w3.org/1999/xlink" xml:space="preserve" onload="init(evt)">
<style type="text/css"><![CDATA[
.node, .edge {opacity: 0.7;}
.node.selected, .edge.selected {opacity: 1;}
.edge:hover path { stroke: red; }
.edge:hover polygon { stroke: red; fill: red; }
]]></style>
<script type="application/ecmascript" xlink:href="svg.min.js"/>
<svg id="graph" class="graph">
<g id="graph0" class="graph" transform="scale(1 1) rotate(0) translate(4 168)">
<title>lab1_gr1.Migrations.MyDBContextModelSnapshot</title>
<!-- Node1 -->
<g id="Node000001" class="node">
<title>Node1</title>
<g id="a_Node000001"><a xlink:title=" ">
<polygon fill="#999999" stroke="none" points="158,-76 0,-76 0,0 158,0 158,-76"/>
<text xml:space="preserve" text-anchor="start" x="4" y="-62.5" font-family="Helvetica,sans-Serif" font-size="10.00">lab1_gr1.Migrations.MyDBContext</text>
<text xml:space="preserve" text-anchor="start" x="45.25" y="-50.5" font-family="Helvetica,sans-Serif" font-size="10.00">ModelSnapshot</text>
<text xml:space="preserve" text-anchor="start" x="77.5" y="-34.5" font-family="Helvetica,sans-Serif" font-size="10.00"> </text>
<text xml:space="preserve" text-anchor="start" x="8.81" y="-18.5" font-family="Helvetica,sans-Serif" font-size="10.00">#</text>
<text xml:space="preserve" text-anchor="start" x="22.88" y="-18.5" font-family="Helvetica,sans-Serif" font-size="10.00">override void BuildModel</text>
<text xml:space="preserve" text-anchor="start" x="22.88" y="-6.5" font-family="Helvetica,sans-Serif" font-size="10.00">(ModelBuilder modelBuilder)</text>
<polygon fill="#666666" stroke="#666666" points="0,-46 0,-46 158,-46 158,-46 0,-46"/>
<polygon fill="#666666" stroke="#666666" points="0,-30 0,-30 158,-30 158,-30 0,-30"/>
<polygon fill="none" stroke="#666666" points="0,0 0,-76 158,-76 158,0 0,0"/>
</a>
</g>
</g>
<!-- Node2 -->
<g id="Node000002" class="node">
<title>Node2</title>
<g id="a_Node000002"><a xlink:title=" ">
<polygon fill="white" stroke="none" points="116.75,-164 41.25,-164 41.25,-112 116.75,-112 116.75,-164"/>
<text xml:space="preserve" text-anchor="start" x="45.25" y="-150.5" font-family="Helvetica,sans-Serif" font-size="10.00">ModelSnapshot</text>
<text xml:space="preserve" text-anchor="start" x="77.5" y="-134.5" font-family="Helvetica,sans-Serif" font-size="10.00"> </text>
<text xml:space="preserve" text-anchor="start" x="77.5" y="-118.5" font-family="Helvetica,sans-Serif" font-size="10.00"> </text>
<polygon fill="#666666" stroke="#666666" points="41.25,-146 41.25,-146 116.75,-146 116.75,-146 41.25,-146"/>
<polygon fill="#666666" stroke="#666666" points="41.25,-130 41.25,-130 116.75,-130 116.75,-130 41.25,-130"/>
<polygon fill="none" stroke="#666666" points="41.25,-112 41.25,-164 116.75,-164 116.75,-112 41.25,-112"/>
</a>
</g>
</g>
<!-- Node2&#45;&gt;Node1 -->
<g id="edge1_Node000001_Node000002" class="edge">
<title>Node2&#45;&gt;Node1</title>
<g id="a_edge1_Node000001_Node000002"><a xlink:title=" ">
<path fill="none" stroke="#63b8ff" d="M79,-100.61C79,-92.5 79,-83.9 79,-75.78"/>
<polygon fill="none" stroke="#63b8ff" points="75.5,-100.5 79,-110.5 82.5,-100.5 75.5,-100.5"/>
</a>
</g>
</g>
</g>
</svg>
</svg>

<style type='text/css'>
<![CDATA[
[data-mouse-over-selected='false'] { opacity: 0.7; }
[data-mouse-over-selected='true']  { opacity: 1.0; }
]]>
</style>
<script type="application/ecmascript"><![CDATA[
document.addEventListener('DOMContentLoaded', (event) => {
  highlightEdges();
  highlightAdjacentNodes();
});
]]></script>
</svg>
