<?xml version="1.0" encoding="UTF-8" standalone="no"?>
<!DOCTYPE svg PUBLIC "-//W3C//DTD SVG 1.1//EN"
 "http://www.w3.org/Graphics/SVG/1.1/DTD/svg11.dtd">
<!-- Generated by graphviz version 14.1.1 (20251213.1925)
 -->
<!-- Title: lab1_gr1.Services.BaseService Pages: 1 -->
<svg width="172pt" height="481pt"
 viewBox="0.00 0.00 172.00 481.00" xmlns="http://www.w3.org/2000/svg" xmlns:xlink="http://www.w3.org/1999/xlink">
<g id="graph0" class="graph" transform="scale(1 1) rotate(0) translate(4 477)">
<title>lab1_gr1.Services.BaseService</title>
<!-- Node1 -->
<g id="Node000001" class="node">
<title>Node1</title>
<g id="a_Node000001"><a xlink:title="Klasa bazowa dla wszystkich serwisów aplikacji. Zapewnia dostęp do kontekstu bazy danych oraz mechani...">
<polygon fill="#999999" stroke="none" points="154.5,-64 9.75,-64 9.75,0 154.5,0 154.5,-64"/>
<text xml:space="preserve" text-anchor="start" x="13.88" y="-50.5" font-family="Helvetica,sans-Serif" font-size="10.00">lab1_gr1.Services.BaseService</text>
<text xml:space="preserve" text-anchor="start" x="13.75" y="-34.5" font-family="Helvetica,sans-Serif" font-size="10.00">#</text>
<text xml:space="preserve" text-anchor="start" x="23" y="-34.5" font-family="Helvetica,sans-Serif" font-size="10.00">readonly IMapper _mapper</text>
<text xml:space="preserve" text-anchor="start" x="13.75" y="-18.5" font-family="Helvetica,sans-Serif" font-size="10.00">#</text>
<text xml:space="preserve" text-anchor="start" x="23" y="-18.5" font-family="Helvetica,sans-Serif" font-size="10.00">BaseService(MyDBContext</text>
<text xml:space="preserve" text-anchor="start" x="23" y="-6.5" font-family="Helvetica,sans-Serif" font-size="10.00"> dbContext, IMapper mapper)</text>
<polygon fill="#666666" stroke="#666666" points="9.75,-46 9.75,-46 154.5,-46 154.5,-46 9.75,-46"/>
<polygon fill="#666666" stroke="#666666" points="9.75,-30 9.75,-30 21,-30 21,-30 9.75,-30"/>
<polygon fill="#666666" stroke="#666666" points="21,-30 21,-30 154.5,-30 154.5,-30 21,-30"/>
<polygon fill="none" stroke="#666666" points="9.75,0 9.75,-64 154.5,-64 154.5,0 9.75,0"/>
</a>
</g>
</g>
<!-- Node2 -->
<g id="Node000002" class="node">
<title>Node2</title>
<g id="a_Node000002"><a xlink:href="classlab1__gr1_1_1_models_1_1_my_d_b_context.html" target="_top" xlink:title="Kontekst bazy danych dla aplikacji ListaZakupow. Zawiera DbSet&#45;y dla użytkowników,...">
<polygon fill="white" stroke="none" points="164.25,-384 0,-384 0,-112 164.25,-112 164.25,-384"/>
<text xml:space="preserve" text-anchor="start" x="13.88" y="-370.5" font-family="Helvetica,sans-Serif" font-size="10.00">lab1_gr1.Models.MyDBContext</text>
<text xml:space="preserve" text-anchor="start" x="4" y="-354.5" font-family="Helvetica,sans-Serif" font-size="10.00">+</text>
<text xml:space="preserve" text-anchor="start" x="14" y="-354.5" font-family="Helvetica,sans-Serif" font-size="10.00">virtual DbSet&lt; User</text>
<text xml:space="preserve" text-anchor="start" x="14" y="-342.5" font-family="Helvetica,sans-Serif" font-size="10.00"> &gt; Users</text>
<text xml:space="preserve" text-anchor="start" x="4" y="-326.5" font-family="Helvetica,sans-Serif" font-size="10.00">+</text>
<text xml:space="preserve" text-anchor="start" x="14" y="-326.5" font-family="Helvetica,sans-Serif" font-size="10.00">virtual DbSet&lt; Recipe</text>
<text xml:space="preserve" text-anchor="start" x="14" y="-314.5" font-family="Helvetica,sans-Serif" font-size="10.00"> &gt; Recipes</text>
<text xml:space="preserve" text-anchor="start" x="4" y="-298.5" font-family="Helvetica,sans-Serif" font-size="10.00">+</text>
<text xml:space="preserve" text-anchor="start" x="14" y="-298.5" font-family="Helvetica,sans-Serif" font-size="10.00">virtual DbSet&lt; Ingredient</text>
<text xml:space="preserve" text-anchor="start" x="14" y="-286.5" font-family="Helvetica,sans-Serif" font-size="10.00"> &gt; Ingredients</text>
<text xml:space="preserve" text-anchor="start" x="4" y="-270.5" font-family="Helvetica,sans-Serif" font-size="10.00">+</text>
<text xml:space="preserve" text-anchor="start" x="14" y="-270.5" font-family="Helvetica,sans-Serif" font-size="10.00">virtual DbSet&lt; RecipeIngredient</text>
<text xml:space="preserve" text-anchor="start" x="14" y="-258.5" font-family="Helvetica,sans-Serif" font-size="10.00"> &gt; RecipeIngredients</text>
<text xml:space="preserve" text-anchor="start" x="4" y="-242.5" font-family="Helvetica,sans-Serif" font-size="10.00">+</text>
<text xml:space="preserve" text-anchor="start" x="14" y="-242.5" font-family="Helvetica,sans-Serif" font-size="10.00">virtual DbSet&lt; RecipeSchedule</text>
<text xml:space="preserve" text-anchor="start" x="14" y="-230.5" font-family="Helvetica,sans-Serif" font-size="10.00"> &gt; RecipeSchedules</text>
<text xml:space="preserve" text-anchor="start" x="4" y="-214.5" font-family="Helvetica,sans-Serif" font-size="10.00">+</text>
<text xml:space="preserve" text-anchor="start" x="14" y="-214.5" font-family="Helvetica,sans-Serif" font-size="10.00">virtual DbSet&lt; ShoppingList</text>
<text xml:space="preserve" text-anchor="start" x="14" y="-202.5" font-family="Helvetica,sans-Serif" font-size="10.00"> &gt; ShoppingLists</text>
<text xml:space="preserve" text-anchor="start" x="4" y="-186.5" font-family="Helvetica,sans-Serif" font-size="10.00">+</text>
<text xml:space="preserve" text-anchor="start" x="14" y="-186.5" font-family="Helvetica,sans-Serif" font-size="10.00">virtual DbSet&lt; ShoppingList</text>
<text xml:space="preserve" text-anchor="start" x="14" y="-174.5" font-family="Helvetica,sans-Serif" font-size="10.00">Item &gt; ShoppingListItems</text>
<text xml:space="preserve" text-anchor="start" x="4" y="-158.5" font-family="Helvetica,sans-Serif" font-size="10.00">+</text>
<text xml:space="preserve" text-anchor="start" x="14" y="-158.5" font-family="Helvetica,sans-Serif" font-size="10.00">MyDBContext(DbContextOptions</text>
<text xml:space="preserve" text-anchor="start" x="14" y="-146.5" font-family="Helvetica,sans-Serif" font-size="10.00">&lt; MyDBContext &gt; options)</text>
<text xml:space="preserve" text-anchor="start" x="4.38" y="-130.5" font-family="Helvetica,sans-Serif" font-size="10.00">#</text>
<text xml:space="preserve" text-anchor="start" x="14" y="-130.5" font-family="Helvetica,sans-Serif" font-size="10.00">override void OnModelCreating</text>
<text xml:space="preserve" text-anchor="start" x="14" y="-118.5" font-family="Helvetica,sans-Serif" font-size="10.00">(ModelBuilder modelBuilder)</text>
<polygon fill="#666666" stroke="#666666" points="0,-366 0,-366 164.25,-366 164.25,-366 0,-366"/>
<polygon fill="#666666" stroke="#666666" points="0,-170 0,-170 12,-170 12,-170 0,-170"/>
<polygon fill="#666666" stroke="#666666" points="12,-170 12,-170 164.25,-170 164.25,-170 12,-170"/>
<polygon fill="none" stroke="#666666" points="0,-112 0,-384 164.25,-384 164.25,-112 0,-112"/>
</a>
</g>
</g>
<!-- Node2&#45;&gt;Node1 -->
<g id="edge1_Node000001_Node000002" class="edge">
<title>Node2&#45;&gt;Node1</title>
<g id="a_edge1_Node000001_Node000002"><a xlink:title=" ">
<path fill="none" stroke="#63b8ff" d="M82.12,-112.08C82.12,-99.4 82.12,-87.29 82.12,-76.52"/>
<polygon fill="none" stroke="#63b8ff" points="82.13,-76.56 78.13,-70.56 82.13,-64.56 86.13,-70.56 82.13,-76.56"/>
</a>
</g>
<text xml:space="preserve" text-anchor="middle" x="111.38" y="-84.5" font-family="Helvetica,sans-Serif" font-size="10.00" fill="grey"> #_dbContext</text>
</g>
<!-- Node3 -->
<g id="Node000003" class="node">
<title>Node3</title>
<g id="a_Node000003"><a xlink:title=" ">
<polygon fill="white" stroke="none" points="109.75,-473 54.5,-473 54.5,-421 109.75,-421 109.75,-473"/>
<text xml:space="preserve" text-anchor="start" x="58.5" y="-459.5" font-family="Helvetica,sans-Serif" font-size="10.00">DbContext</text>
<text xml:space="preserve" text-anchor="start" x="80.62" y="-443.5" font-family="Helvetica,sans-Serif" font-size="10.00"> </text>
<text xml:space="preserve" text-anchor="start" x="80.62" y="-427.5" font-family="Helvetica,sans-Serif" font-size="10.00"> </text>
<polygon fill="#666666" stroke="#666666" points="54.5,-455 54.5,-455 109.75,-455 109.75,-455 54.5,-455"/>
<polygon fill="#666666" stroke="#666666" points="54.5,-439 54.5,-439 109.75,-439 109.75,-439 54.5,-439"/>
<polygon fill="none" stroke="#666666" points="54.5,-421 54.5,-473 109.75,-473 109.75,-421 54.5,-421"/>
</a>
</g>
</g>
<!-- Node3&#45;&gt;Node2 -->
<g id="edge2_Node000002_Node000003" class="edge">
<title>Node3&#45;&gt;Node2</title>
<g id="a_edge2_Node000002_Node000003"><a xlink:title=" ">
<path fill="none" stroke="#63b8ff" d="M82.12,-409.81C82.12,-401.92 82.12,-393.12 82.12,-383.81"/>
<polygon fill="none" stroke="#63b8ff" points="78.63,-409.54 82.13,-419.54 85.63,-409.54 78.63,-409.54"/>
</a>
</g>
</g>
</g>
</svg>
