<?xml version="1.0" encoding="UTF-8" standalone="no"?>
<!DOCTYPE svg PUBLIC "-//W3C//DTD SVG 1.1//EN"
 "http://www.w3.org/Graphics/SVG/1.1/DTD/svg11.dtd">
<!-- Generated by graphviz version 14.1.1 (20251213.1925)
 -->
<!-- Title: lab1_gr1.Controllers.RecipeIngredientController Pages: 1 -->
<svg width="189pt" height="304pt"
 viewBox="0.00 0.00 189.00 304.00" xmlns="http://www.w3.org/2000/svg" xmlns:xlink="http://www.w3.org/1999/xlink">
<g id="graph0" class="graph" transform="scale(1 1) rotate(0) translate(4 300)">
<title>lab1_gr1.Controllers.RecipeIngredientController</title>
<!-- Node1 -->
<g id="Node000001" class="node">
<title>Node1</title>
<g id="a_Node000001"><a xlink:title="Kontroler odpowiedzialny za zarządzanie relacją pomiędzy przepisami a składnikami....">
<polygon fill="#999999" stroke="none" points="180.75,-208 0,-208 0,0 180.75,0 180.75,-208"/>
<text xml:space="preserve" text-anchor="start" x="30" y="-194.5" font-family="Helvetica,sans-Serif" font-size="10.00">lab1_gr1.Controllers.Recipe</text>
<text xml:space="preserve" text-anchor="start" x="48" y="-182.5" font-family="Helvetica,sans-Serif" font-size="10.00">IngredientController</text>
<text xml:space="preserve" text-anchor="start" x="88.88" y="-166.5" font-family="Helvetica,sans-Serif" font-size="10.00"> </text>
<text xml:space="preserve" text-anchor="start" x="4" y="-150.5" font-family="Helvetica,sans-Serif" font-size="10.00">+</text>
<text xml:space="preserve" text-anchor="start" x="14" y="-150.5" font-family="Helvetica,sans-Serif" font-size="10.00">RecipeIngredientController</text>
<text xml:space="preserve" text-anchor="start" x="14" y="-138.5" font-family="Helvetica,sans-Serif" font-size="10.00">(IRecipeIngredientService</text>
<text xml:space="preserve" text-anchor="start" x="14" y="-126.5" font-family="Helvetica,sans-Serif" font-size="10.00"> recipeIngredientService,</text>
<text xml:space="preserve" text-anchor="start" x="14" y="-114.5" font-family="Helvetica,sans-Serif" font-size="10.00"> IIngredientService ingredientService)</text>
<text xml:space="preserve" text-anchor="start" x="4" y="-98.5" font-family="Helvetica,sans-Serif" font-size="10.00">+</text>
<text xml:space="preserve" text-anchor="start" x="14" y="-98.5" font-family="Helvetica,sans-Serif" font-size="10.00">async Task&lt; IActionResult</text>
<text xml:space="preserve" text-anchor="start" x="14" y="-86.5" font-family="Helvetica,sans-Serif" font-size="10.00"> &gt; Add(int recipeId)</text>
<text xml:space="preserve" text-anchor="start" x="4" y="-70.5" font-family="Helvetica,sans-Serif" font-size="10.00">+</text>
<text xml:space="preserve" text-anchor="start" x="14" y="-70.5" font-family="Helvetica,sans-Serif" font-size="10.00">async Task&lt; IActionResult</text>
<text xml:space="preserve" text-anchor="start" x="14" y="-58.5" font-family="Helvetica,sans-Serif" font-size="10.00"> &gt; Add(int recipeId, int</text>
<text xml:space="preserve" text-anchor="start" x="14" y="-46.5" font-family="Helvetica,sans-Serif" font-size="10.00"> ingredientId, string quantity)</text>
<text xml:space="preserve" text-anchor="start" x="4" y="-30.5" font-family="Helvetica,sans-Serif" font-size="10.00">+</text>
<text xml:space="preserve" text-anchor="start" x="14" y="-30.5" font-family="Helvetica,sans-Serif" font-size="10.00">async Task&lt; IActionResult</text>
<text xml:space="preserve" text-anchor="start" x="14" y="-18.5" font-family="Helvetica,sans-Serif" font-size="10.00"> &gt; Remove(int recipeId,</text>
<text xml:space="preserve" text-anchor="start" x="14" y="-6.5" font-family="Helvetica,sans-Serif" font-size="10.00"> int ingredientId)</text>
<polygon fill="#666666" stroke="#666666" points="0,-178 0,-178 180.75,-178 180.75,-178 0,-178"/>
<polygon fill="#666666" stroke="#666666" points="0,-162 0,-162 180.75,-162 180.75,-162 0,-162"/>
<polygon fill="none" stroke="#666666" points="0,0 0,-208 180.75,-208 180.75,0 0,0"/>
</a>
</g>
</g>
<!-- Node2 -->
<g id="Node000002" class="node">
<title>Node2</title>
<g id="a_Node000002"><a xlink:title=" ">
<polygon fill="white" stroke="none" points="115.38,-296 65.38,-296 65.38,-244 115.38,-244 115.38,-296"/>
<text xml:space="preserve" text-anchor="start" x="69.38" y="-282.5" font-family="Helvetica,sans-Serif" font-size="10.00">Controller</text>
<text xml:space="preserve" text-anchor="start" x="88.88" y="-266.5" font-family="Helvetica,sans-Serif" font-size="10.00"> </text>
<text xml:space="preserve" text-anchor="start" x="88.88" y="-250.5" font-family="Helvetica,sans-Serif" font-size="10.00"> </text>
<polygon fill="#666666" stroke="#666666" points="65.38,-278 65.38,-278 115.38,-278 115.38,-278 65.38,-278"/>
<polygon fill="#666666" stroke="#666666" points="65.38,-262 65.38,-262 115.38,-262 115.38,-262 65.38,-262"/>
<polygon fill="none" stroke="#666666" points="65.38,-244 65.38,-296 115.38,-296 115.38,-244 65.38,-244"/>
</a>
</g>
</g>
<!-- Node2&#45;&gt;Node1 -->
<g id="edge1_Node000001_Node000002" class="edge">
<title>Node2&#45;&gt;Node1</title>
<g id="a_edge1_Node000001_Node000002"><a xlink:title=" ">
<path fill="none" stroke="#63b8ff" d="M90.38,-232.79C90.38,-225.15 90.38,-216.72 90.38,-207.96"/>
<polygon fill="none" stroke="#63b8ff" points="86.88,-232.58 90.38,-242.58 93.88,-232.58 86.88,-232.58"/>
</a>
</g>
</g>
</g>
</svg>
