<?xml version="1.0" encoding="UTF-8" standalone="no"?>
<!DOCTYPE svg PUBLIC "-//W3C//DTD SVG 1.1//EN"
 "http://www.w3.org/Graphics/SVG/1.1/DTD/svg11.dtd">
<!-- Generated by graphviz version 14.1.1 (20251213.1925)
 -->
<!-- Title: lab1_gr1.ViewModels.RecipeVM.CreateRecipeScheduleVM Pages: 1 -->
<svg width="150pt" height="72pt"
 viewBox="0.00 0.00 150.00 72.00" xmlns="http://www.w3.org/2000/svg" xmlns:xlink="http://www.w3.org/1999/xlink">
<g id="graph0" class="graph" transform="scale(1 1) rotate(0) translate(4 68)">
<title>lab1_gr1.ViewModels.RecipeVM.CreateRecipeScheduleVM</title>
<!-- Node1 -->
<g id="Node000001" class="node">
<title>Node1</title>
<g id="a_Node000001"><a xlink:title="ViewModel reprezentuj¹cy pojedynczy wpis harmonogramu przepisu.">
<polygon fill="#999999" stroke="none" points="141.5,-64 0,-64 0,0 141.5,0 141.5,-64"/>
<text xml:space="preserve" text-anchor="start" x="4" y="-50.5" font-family="Helvetica,sans-Serif" font-size="10.00">lab1_gr1.ViewModels.Recipe</text>
<text xml:space="preserve" text-anchor="start" x="4" y="-38.5" font-family="Helvetica,sans-Serif" font-size="10.00">VM.CreateRecipeScheduleVM</text>
<text xml:space="preserve" text-anchor="start" x="18.19" y="-22.5" font-family="Helvetica,sans-Serif" font-size="10.00">+</text>
<text xml:space="preserve" text-anchor="start" x="42.38" y="-22.5" font-family="Helvetica,sans-Serif" font-size="10.00">int DayOfWeek</text>
<text xml:space="preserve" text-anchor="start" x="69.25" y="-6.5" font-family="Helvetica,sans-Serif" font-size="10.00">Â </text>
<polygon fill="#666666" stroke="#666666" points="0,-34 0,-34 141.5,-34 141.5,-34 0,-34"/>
<polygon fill="#666666" stroke="#666666" points="0,-18 0,-18 40.38,-18 40.38,-18 0,-18"/>
<polygon fill="#666666" stroke="#666666" points="40.38,-18 40.38,-18 141.5,-18 141.5,-18 40.38,-18"/>
<polygon fill="none" stroke="#666666" points="0,0 0,-64 141.5,-64 141.5,0 0,0"/>
</a>
</g>
</g>
</g>
</svg>
