<?xml version="1.0" encoding="UTF-8" standalone="no"?>
<!DOCTYPE svg PUBLIC "-//W3C//DTD SVG 1.1//EN"
 "http://www.w3.org/Graphics/SVG/1.1/DTD/svg11.dtd">
<!-- Generated by graphviz version 14.1.1 (20251213.1925)
 -->
<!-- Title: ListaZakupow.Model.DataModels.RecipeIngredient Pages: 1 -->
<svg width="164pt" height="136pt"
 viewBox="0.00 0.00 164.00 136.00" xmlns="http://www.w3.org/2000/svg" xmlns:xlink="http://www.w3.org/1999/xlink">
<g id="graph0" class="graph" transform="scale(1 1) rotate(0) translate(4 132)">
<title>ListaZakupow.Model.DataModels.RecipeIngredient</title>
<!-- Node1 -->
<g id="Node000001" class="node">
<title>Node1</title>
<g id="a_Node000001"><a xlink:title="Reprezentuje powiązanie między przepisem a składnikiem (relacja wiele&#45;do&#45;wielu) wraz z określoną iloś...">
<polygon fill="#999999" stroke="none" points="155.75,-128 0,-128 0,0 155.75,0 155.75,-128"/>
<text xml:space="preserve" text-anchor="start" x="4" y="-114.5" font-family="Helvetica,sans-Serif" font-size="10.00">ListaZakupow.Model.DataModels.</text>
<text xml:space="preserve" text-anchor="start" x="41.12" y="-102.5" font-family="Helvetica,sans-Serif" font-size="10.00">RecipeIngredient</text>
<text xml:space="preserve" text-anchor="start" x="16.31" y="-86.5" font-family="Helvetica,sans-Serif" font-size="10.00">+</text>
<text xml:space="preserve" text-anchor="start" x="38.62" y="-86.5" font-family="Helvetica,sans-Serif" font-size="10.00">int RecipeId</text>
<text xml:space="preserve" text-anchor="start" x="16.31" y="-70.5" font-family="Helvetica,sans-Serif" font-size="10.00">+</text>
<text xml:space="preserve" text-anchor="start" x="38.62" y="-70.5" font-family="Helvetica,sans-Serif" font-size="10.00">int IngredientId</text>
<text xml:space="preserve" text-anchor="start" x="16.31" y="-54.5" font-family="Helvetica,sans-Serif" font-size="10.00">+</text>
<text xml:space="preserve" text-anchor="start" x="38.62" y="-54.5" font-family="Helvetica,sans-Serif" font-size="10.00">string Quantity</text>
<text xml:space="preserve" text-anchor="start" x="16.31" y="-38.5" font-family="Helvetica,sans-Serif" font-size="10.00">+</text>
<text xml:space="preserve" text-anchor="start" x="38.62" y="-38.5" font-family="Helvetica,sans-Serif" font-size="10.00">Recipe Recipe</text>
<text xml:space="preserve" text-anchor="start" x="16.31" y="-22.5" font-family="Helvetica,sans-Serif" font-size="10.00">+</text>
<text xml:space="preserve" text-anchor="start" x="38.62" y="-22.5" font-family="Helvetica,sans-Serif" font-size="10.00">Ingredient Ingredient</text>
<text xml:space="preserve" text-anchor="start" x="76.38" y="-6.5" font-family="Helvetica,sans-Serif" font-size="10.00"> </text>
<polygon fill="#666666" stroke="#666666" points="0,-98 0,-98 155.75,-98 155.75,-98 0,-98"/>
<polygon fill="#666666" stroke="#666666" points="0,-18 0,-18 36.62,-18 36.62,-18 0,-18"/>
<polygon fill="#666666" stroke="#666666" points="36.62,-18 36.62,-18 155.75,-18 155.75,-18 36.62,-18"/>
<polygon fill="none" stroke="#666666" points="0,0 0,-128 155.75,-128 155.75,0 0,0"/>
</a>
</g>
</g>
</g>
</svg>
