<?xml version="1.0" encoding="UTF-8" standalone="no"?>
<!DOCTYPE svg PUBLIC "-//W3C//DTD SVG 1.1//EN"
 "http://www.w3.org/Graphics/SVG/1.1/DTD/svg11.dtd">
<!-- Generated by graphviz version 14.1.1 (20251213.1925)
 -->
<!-- Title: ListaZakupow.Controllers.AuthController Pages: 1 -->
<svg width="172pt" height="504pt"
 viewBox="0.00 0.00 172.00 504.00" xmlns="http://www.w3.org/2000/svg" xmlns:xlink="http://www.w3.org/1999/xlink">
<g id="graph0" class="graph" transform="scale(1 1) rotate(0) translate(4 500)">
<title>ListaZakupow.Controllers.AuthController</title>
<!-- Node1 -->
<g id="Node000001" class="node">
<title>Node1</title>
<g id="a_Node000001"><a xlink:title="Kontroler odpowiedzialny za uwierzytelnianie użytkowników. Obsługuje rejestrację, logowanie,...">
<polygon fill="#999999" stroke="none" points="163.5,-320 0,-320 0,0 163.5,0 163.5,-320"/>
<text xml:space="preserve" text-anchor="start" x="25.12" y="-306.5" font-family="Helvetica,sans-Serif" font-size="10.00">ListaZakupow.Controllers.</text>
<text xml:space="preserve" text-anchor="start" x="50.62" y="-294.5" font-family="Helvetica,sans-Serif" font-size="10.00">AuthController</text>
<text xml:space="preserve" text-anchor="start" x="80.25" y="-278.5" font-family="Helvetica,sans-Serif" font-size="10.00"> </text>
<text xml:space="preserve" text-anchor="start" x="4" y="-262.5" font-family="Helvetica,sans-Serif" font-size="10.00">+</text>
<text xml:space="preserve" text-anchor="start" x="14" y="-262.5" font-family="Helvetica,sans-Serif" font-size="10.00">AuthController(MyDBContext</text>
<text xml:space="preserve" text-anchor="start" x="14" y="-250.5" font-family="Helvetica,sans-Serif" font-size="10.00"> dbContext, IUserService</text>
<text xml:space="preserve" text-anchor="start" x="14" y="-238.5" font-family="Helvetica,sans-Serif" font-size="10.00"> userService)</text>
<text xml:space="preserve" text-anchor="start" x="4" y="-222.5" font-family="Helvetica,sans-Serif" font-size="10.00">+</text>
<text xml:space="preserve" text-anchor="start" x="14" y="-222.5" font-family="Helvetica,sans-Serif" font-size="10.00">IActionResult Index()</text>
<text xml:space="preserve" text-anchor="start" x="4" y="-206.5" font-family="Helvetica,sans-Serif" font-size="10.00">+</text>
<text xml:space="preserve" text-anchor="start" x="14" y="-206.5" font-family="Helvetica,sans-Serif" font-size="10.00">IActionResult Register()</text>
<text xml:space="preserve" text-anchor="start" x="4" y="-190.5" font-family="Helvetica,sans-Serif" font-size="10.00">+</text>
<text xml:space="preserve" text-anchor="start" x="14" y="-190.5" font-family="Helvetica,sans-Serif" font-size="10.00">async Task&lt; IActionResult</text>
<text xml:space="preserve" text-anchor="start" x="14" y="-178.5" font-family="Helvetica,sans-Serif" font-size="10.00"> &gt; Register(RegisterVM model)</text>
<text xml:space="preserve" text-anchor="start" x="4" y="-162.5" font-family="Helvetica,sans-Serif" font-size="10.00">+</text>
<text xml:space="preserve" text-anchor="start" x="14" y="-162.5" font-family="Helvetica,sans-Serif" font-size="10.00">IActionResult Login()</text>
<text xml:space="preserve" text-anchor="start" x="4" y="-146.5" font-family="Helvetica,sans-Serif" font-size="10.00">+</text>
<text xml:space="preserve" text-anchor="start" x="14" y="-146.5" font-family="Helvetica,sans-Serif" font-size="10.00">async Task&lt; IActionResult</text>
<text xml:space="preserve" text-anchor="start" x="14" y="-134.5" font-family="Helvetica,sans-Serif" font-size="10.00"> &gt; Login(LoginVM model)</text>
<text xml:space="preserve" text-anchor="start" x="4" y="-118.5" font-family="Helvetica,sans-Serif" font-size="10.00">+</text>
<text xml:space="preserve" text-anchor="start" x="14" y="-118.5" font-family="Helvetica,sans-Serif" font-size="10.00">IActionResult LoggedIn()</text>
<text xml:space="preserve" text-anchor="start" x="4" y="-102.5" font-family="Helvetica,sans-Serif" font-size="10.00">+</text>
<text xml:space="preserve" text-anchor="start" x="14" y="-102.5" font-family="Helvetica,sans-Serif" font-size="10.00">IActionResult Logout()</text>
<text xml:space="preserve" text-anchor="start" x="4" y="-86.5" font-family="Helvetica,sans-Serif" font-size="10.00">+</text>
<text xml:space="preserve" text-anchor="start" x="14" y="-86.5" font-family="Helvetica,sans-Serif" font-size="10.00">IActionResult ChangePassword()</text>
<text xml:space="preserve" text-anchor="start" x="4" y="-70.5" font-family="Helvetica,sans-Serif" font-size="10.00">+</text>
<text xml:space="preserve" text-anchor="start" x="14" y="-70.5" font-family="Helvetica,sans-Serif" font-size="10.00">async Task&lt; IActionResult</text>
<text xml:space="preserve" text-anchor="start" x="14" y="-58.5" font-family="Helvetica,sans-Serif" font-size="10.00"> &gt; ChangePassword(string</text>
<text xml:space="preserve" text-anchor="start" x="14" y="-46.5" font-family="Helvetica,sans-Serif" font-size="10.00"> currentPassword, string</text>
<text xml:space="preserve" text-anchor="start" x="14" y="-34.5" font-family="Helvetica,sans-Serif" font-size="10.00"> newPassword)</text>
<text xml:space="preserve" text-anchor="start" x="4" y="-18.5" font-family="Helvetica,sans-Serif" font-size="10.00">+</text>
<text xml:space="preserve" text-anchor="start" x="14" y="-18.5" font-family="Helvetica,sans-Serif" font-size="10.00">async Task&lt; IActionResult</text>
<text xml:space="preserve" text-anchor="start" x="14" y="-6.5" font-family="Helvetica,sans-Serif" font-size="10.00"> &gt; DeleteAccount()</text>
<polygon fill="#666666" stroke="#666666" points="0,-290 0,-290 163.5,-290 163.5,-290 0,-290"/>
<polygon fill="#666666" stroke="#666666" points="0,-274 0,-274 163.5,-274 163.5,-274 0,-274"/>
<polygon fill="none" stroke="#666666" points="0,0 0,-320 163.5,-320 163.5,0 0,0"/>
</a>
</g>
</g>
<!-- Node2 -->
<g id="Node000002" class="node">
<title>Node2</title>
<g id="a_Node000002"><a xlink:href="classlab1__gr1_1_1_controllers_1_1_base_controller.html" target="_top" xlink:title="Klasa bazowa dla kontrolerów aplikacji. Zawiera wspólne metody pomocnicze związane z sesją użytkownik...">
<polygon fill="white" stroke="none" points="123,-408 40.5,-408 40.5,-356 123,-356 123,-408"/>
<text xml:space="preserve" text-anchor="start" x="49.5" y="-394.5" font-family="Helvetica,sans-Serif" font-size="10.00">BaseController</text>
<text xml:space="preserve" text-anchor="start" x="80.25" y="-378.5" font-family="Helvetica,sans-Serif" font-size="10.00"> </text>
<text xml:space="preserve" text-anchor="start" x="44.5" y="-362.5" font-family="Helvetica,sans-Serif" font-size="10.00">+</text>
<text xml:space="preserve" text-anchor="start" x="54.5" y="-362.5" font-family="Helvetica,sans-Serif" font-size="10.00">int GetUserId()</text>
<polygon fill="#666666" stroke="#666666" points="40.5,-390 40.5,-390 123,-390 123,-390 40.5,-390"/>
<polygon fill="#666666" stroke="#666666" points="40.5,-374 40.5,-374 123,-374 123,-374 40.5,-374"/>
<polygon fill="none" stroke="#666666" points="40.5,-356 40.5,-408 123,-408 123,-356 40.5,-356"/>
</a>
</g>
</g>
<!-- Node2&#45;&gt;Node1 -->
<g id="edge1_Node000001_Node000002" class="edge">
<title>Node2&#45;&gt;Node1</title>
<g id="a_edge1_Node000001_Node000002"><a xlink:title=" ">
<path fill="none" stroke="#63b8ff" d="M81.75,-344.93C81.75,-337.27 81.75,-328.72 81.75,-319.61"/>
<polygon fill="none" stroke="#63b8ff" points="78.25,-344.68 81.75,-354.68 85.25,-344.68 78.25,-344.68"/>
</a>
</g>
</g>
<!-- Node3 -->
<g id="Node000003" class="node">
<title>Node3</title>
<g id="a_Node000003"><a xlink:title=" ">
<polygon fill="white" stroke="none" points="106.75,-496 56.75,-496 56.75,-444 106.75,-444 106.75,-496"/>
<text xml:space="preserve" text-anchor="start" x="60.75" y="-482.5" font-family="Helvetica,sans-Serif" font-size="10.00">Controller</text>
<text xml:space="preserve" text-anchor="start" x="80.25" y="-466.5" font-family="Helvetica,sans-Serif" font-size="10.00"> </text>
<text xml:space="preserve" text-anchor="start" x="80.25" y="-450.5" font-family="Helvetica,sans-Serif" font-size="10.00"> </text>
<polygon fill="#666666" stroke="#666666" points="56.75,-478 56.75,-478 106.75,-478 106.75,-478 56.75,-478"/>
<polygon fill="#666666" stroke="#666666" points="56.75,-462 56.75,-462 106.75,-462 106.75,-462 56.75,-462"/>
<polygon fill="none" stroke="#666666" points="56.75,-444 56.75,-496 106.75,-496 106.75,-444 56.75,-444"/>
</a>
</g>
</g>
<!-- Node3&#45;&gt;Node2 -->
<g id="edge2_Node000002_Node000003" class="edge">
<title>Node3&#45;&gt;Node2</title>
<g id="a_edge2_Node000002_Node000003"><a xlink:title=" ">
<path fill="none" stroke="#63b8ff" d="M81.75,-432.66C81.75,-424.29 81.75,-415.57 81.75,-407.82"/>
<polygon fill="none" stroke="#63b8ff" points="78.25,-432.61 81.75,-442.61 85.25,-432.61 78.25,-432.61"/>
</a>
</g>
</g>
</g>
</svg>
