<?xml version="1.0" encoding="UTF-8" standalone="no"?>
<!DOCTYPE svg PUBLIC "-//W3C//DTD SVG 1.1//EN"
 "http://www.w3.org/Graphics/SVG/1.1/DTD/svg11.dtd">
<!-- Generated by graphviz version 14.1.1 (20251213.1925)
 -->
<!-- Title: lab1_gr1.ViewModels.RecipeScheduleVM.WeekVM Pages: 1 -->
<svg width="143pt" height="84pt"
 viewBox="0.00 0.00 143.00 84.00" xmlns="http://www.w3.org/2000/svg" xmlns:xlink="http://www.w3.org/1999/xlink">
<g id="graph0" class="graph" transform="scale(1 1) rotate(0) translate(4 80)">
<title>lab1_gr1.ViewModels.RecipeScheduleVM.WeekVM</title>
<!-- Node1 -->
<g id="Node000001" class="node">
<title>Node1</title>
<g id="a_Node000001"><a xlink:title="ViewModel reprezentujący cały tydzień przepisów.">
<polygon fill="#999999" stroke="none" points="134.75,-76 0,-76 0,0 134.75,0 134.75,-76"/>
<text xml:space="preserve" text-anchor="start" x="4" y="-62.5" font-family="Helvetica,sans-Serif" font-size="10.00">lab1_gr1.ViewModels.Recipe</text>
<text xml:space="preserve" text-anchor="start" x="18.25" y="-50.5" font-family="Helvetica,sans-Serif" font-size="10.00">ScheduleVM.WeekVM</text>
<text xml:space="preserve" text-anchor="start" x="9.75" y="-34.5" font-family="Helvetica,sans-Serif" font-size="10.00">+</text>
<text xml:space="preserve" text-anchor="start" x="25.5" y="-34.5" font-family="Helvetica,sans-Serif" font-size="10.00">List&lt; DayRecipesVM</text>
<text xml:space="preserve" text-anchor="start" x="25.5" y="-22.5" font-family="Helvetica,sans-Serif" font-size="10.00"> &gt; Days</text>
<text xml:space="preserve" text-anchor="start" x="65.88" y="-6.5" font-family="Helvetica,sans-Serif" font-size="10.00"> </text>
<polygon fill="#666666" stroke="#666666" points="0,-46 0,-46 134.75,-46 134.75,-46 0,-46"/>
<polygon fill="#666666" stroke="#666666" points="0,-18 0,-18 23.5,-18 23.5,-18 0,-18"/>
<polygon fill="#666666" stroke="#666666" points="23.5,-18 23.5,-18 134.75,-18 134.75,-18 23.5,-18"/>
<polygon fill="none" stroke="#666666" points="0,0 0,-76 134.75,-76 134.75,0 0,0"/>
</a>
</g>
</g>
</g>
</svg>
