<?xml version="1.0" encoding="UTF-8" standalone="no"?>
<!DOCTYPE svg PUBLIC "-//W3C//DTD SVG 1.1//EN"
 "http://www.w3.org/Graphics/SVG/1.1/DTD/svg11.dtd">
<!-- Generated by graphviz version 14.1.1 (20251213.1925)
 -->
<!-- Title: C:/Users/olhat/source/repos/ProjektZespolowyPAI/ViewModels Pages: 1 -->
<!--zoomable 96 -->

<svg id="main" version="1.1" xmlns="http://www.w3.org/2000/svg" xmlns:xlink="http://www.w3.org/1999/xlink" xml:space="preserve" onload="init(evt)">
<style type="text/css"><![CDATA[
.node, .edge {opacity: 0.7;}
.node.selected, .edge.selected {opacity: 1;}
.edge:hover path { stroke: red; }
.edge:hover polygon { stroke: red; fill: red; }
]]></style>

<defs>
  <circle id="rim" cx="0" cy="0" r="7"/>
  <circle id="rim2" cx="0" cy="0" r="3.5"/>
  <g id="zoomPlus">
    <use xlink:href="#rim" fill="#404040"><set attributeName="fill" to="#808080" begin="zoomplus.mouseover" end="zoomplus.mouseout"/></use>
    <path d="M-4,0h8M0,-4v8" fill="none" stroke="white" stroke-width="1.5" pointer-events="none"/>
  </g>
  <g id="zoomMin">
    <use xlink:href="#rim" fill="#404040"><set attributeName="fill" to="#808080" begin="zoomminus.mouseover" end="zoomminus.mouseout"/></use>
    <path d="M-4,0h8" fill="none" stroke="white" stroke-width="1.5" pointer-events="none"/>
  </g>
  <g id="arrowUp" transform="translate(30 24)">
    <use xlink:href="#rim"/>
    <path pointer-events="none" fill="none" stroke="white" stroke-width="1.5" d="M0,-3.0v7 M-2.5,-0.5L0,-3.0L2.5,-0.5"/>
  </g>
  <g id="arrowRight" transform="rotate(90) translate(36 -43)">
    <use xlink:href="#rim"/>
    <path pointer-events="none" fill="none" stroke="white" stroke-width="1.5" d="M0,-3.0v7 M-2.5,-0.5L0,-3.0L2.5,-0.5"/>
  </g>
  <g id="arrowDown" transform="rotate(180) translate(-30 -48)">
    <use xlink:href="#rim"/>
    <path pointer-events="none" fill="none" stroke="white" stroke-width="1.5" d="M0,-3.0v7 M-2.5,-0.5L0,-3.0L2.5,-0.5"/>
  </g>
  <g id="arrowLeft" transform="rotate(270) translate(-36 17)">
    <use xlink:href="#rim"/>
    <path pointer-events="none" fill="none" stroke="white" stroke-width="1.5" d="M0,-3.0v7 M-2.5,-0.5L0,-3.0L2.5,-0.5"/>
  </g>
  <g id="resetDef">
    <use xlink:href="#rim2" fill="#404040"><set attributeName="fill" to="#808080" begin="reset.mouseover" end="reset.mouseout"/></use>
  </g>
</defs>
<script type="application/ecmascript">
var viewWidth = 840;
var viewHeight = 96;
var sectionId = 'dynsection-0';
</script>
<script type="application/ecmascript" xlink:href="svg.min.js"/>
<svg id="graph" class="graph">
<g id="viewport">
<title>C:/Users/olhat/source/repos/ProjektZespolowyPAI/ViewModels</title>
<g id="clust1" class="cluster">
<title>clusterdir_89545c6cd1c89c68a3e80d4490fb43e9</title>
<g id="a_clust1"><a xlink:href="dir_89545c6cd1c89c68a3e80d4490fb43e9.html" target="_top" xlink:title="ProjektZespolowyPAI">
<polygon fill="#edf0f7" stroke="#7f7f7f" stroke-dasharray="5,2" points="8,-8 8,-80 824,-80 824,-8 8,-8"/>
<text xml:space="preserve" text-anchor="middle" x="416" y="-66.5" font-family="Helvetica,sans-Serif" font-size="10.00">ProjektZespolowyPAI</text>
</a>
</g>
</g>
<g id="clust2" class="cluster">
<title>clusterdir_3a78d2a49017adf5955d070668dc8b2b</title>
<g id="a_clust2"><a xlink:href="dir_3a78d2a49017adf5955d070668dc8b2b.html" target="_top">
<polygon fill="#edf0f7" stroke="#404040" stroke-width="2" points="16,-16 16,-52 816,-52 816,-16 16,-16"/>
</a>
</g>
</g>
<!-- dir_3a78d2a49017adf5955d070668dc8b2b -->
<g id="node1" class="node">
<title>dir_3a78d2a49017adf5955d070668dc8b2b</title>
<text xml:space="preserve" text-anchor="middle" x="59" y="-30.5" font-family="Helvetica,sans-Serif" font-size="10.00">ViewModels</text>
</g>
<!-- dir_d26809262816fc9211f93a612b86a391 -->
<g id="node2" class="node">
<title>dir_d26809262816fc9211f93a612b86a391</title>
<g id="a_node2"><a xlink:href="dir_d26809262816fc9211f93a612b86a391.html" target="_top" xlink:title="IngredientVM">
<polygon fill="#dfe5f1" stroke="#404040" points="185.88,-44 112.12,-44 112.12,-24 185.88,-24 185.88,-44"/>
<text xml:space="preserve" text-anchor="middle" x="149" y="-30.5" font-family="Helvetica,sans-Serif" font-size="10.00">IngredientVM</text>
</a>
</g>
</g>
<!-- dir_4ad164741430bbefe5655ad84e40acf1 -->
<g id="node3" class="node">
<title>dir_4ad164741430bbefe5655ad84e40acf1</title>
<g id="a_node3"><a xlink:href="dir_4ad164741430bbefe5655ad84e40acf1.html" target="_top" xlink:title="RecipeIngredientVm">
<polygon fill="#dfe5f1" stroke="#404040" points="308.25,-44 203.75,-44 203.75,-24 308.25,-24 308.25,-44"/>
<text xml:space="preserve" text-anchor="middle" x="256" y="-30.5" font-family="Helvetica,sans-Serif" font-size="10.00">RecipeIngredientVm</text>
</a>
</g>
</g>
<!-- dir_af88dd44c7c12134e245828b50cbb602 -->
<g id="node4" class="node">
<title>dir_af88dd44c7c12134e245828b50cbb602</title>
<g id="a_node4"><a xlink:href="dir_af88dd44c7c12134e245828b50cbb602.html" target="_top" xlink:title="RecipeScheduleVM">
<polygon fill="#dfe5f1" stroke="#404040" points="428.12,-44 325.88,-44 325.88,-24 428.12,-24 428.12,-44"/>
<text xml:space="preserve" text-anchor="middle" x="377" y="-30.5" font-family="Helvetica,sans-Serif" font-size="10.00">RecipeScheduleVM</text>
</a>
</g>
</g>
<!-- dir_95a0c82745bf620d5452cc2786e306d2 -->
<g id="node5" class="node">
<title>dir_95a0c82745bf620d5452cc2786e306d2</title>
<g id="a_node5"><a xlink:href="dir_95a0c82745bf620d5452cc2786e306d2.html" target="_top" xlink:title="RecipeVM">
<polygon fill="#dfe5f1" stroke="#404040" points="507.88,-44 446.12,-44 446.12,-24 507.88,-24 507.88,-44"/>
<text xml:space="preserve" text-anchor="middle" x="477" y="-30.5" font-family="Helvetica,sans-Serif" font-size="10.00">RecipeVM</text>
</a>
</g>
</g>
<!-- dir_43a12cd91346610bbbc644f575ba92d9 -->
<g id="node6" class="node">
<title>dir_43a12cd91346610bbbc644f575ba92d9</title>
<g id="a_node6"><a xlink:href="dir_43a12cd91346610bbbc644f575ba92d9.html" target="_top" xlink:title="ShoppingListItemVM">
<polygon fill="#dfe5f1" stroke="#404040" points="632.38,-44 525.62,-44 525.62,-24 632.38,-24 632.38,-44"/>
<text xml:space="preserve" text-anchor="middle" x="579" y="-30.5" font-family="Helvetica,sans-Serif" font-size="10.00">ShoppingListItemVM</text>
</a>
</g>
</g>
<!-- dir_6e7b2cbbec3510603db45fb89a970862 -->
<g id="node7" class="node">
<title>dir_6e7b2cbbec3510603db45fb89a970862</title>
<g id="a_node7"><a xlink:href="dir_6e7b2cbbec3510603db45fb89a970862.html" target="_top" xlink:title="ShoppingListVM">
<polygon fill="#dfe5f1" stroke="#404040" points="737.62,-44 650.38,-44 650.38,-24 737.62,-24 737.62,-44"/>
<text xml:space="preserve" text-anchor="middle" x="694" y="-30.5" font-family="Helvetica,sans-Serif" font-size="10.00">ShoppingListVM</text>
</a>
</g>
</g>
<!-- dir_c3633539a8634b04bc3867b92cbbd864 -->
<g id="node8" class="node">
<title>dir_c3633539a8634b04bc3867b92cbbd864</title>
<g id="a_node8"><a xlink:href="dir_c3633539a8634b04bc3867b92cbbd864.html" target="_top" xlink:title="UserVM">
<polygon fill="#dfe5f1" stroke="#404040" points="808,-44 756,-44 756,-24 808,-24 808,-44"/>
<text xml:space="preserve" text-anchor="middle" x="782" y="-30.5" font-family="Helvetica,sans-Serif" font-size="10.00">UserVM</text>
</a>
</g>
</g>
</g>
</svg>

<g id="navigator" transform="translate(0 0)" fill="#404254">
  <rect fill="#f2f5e9" fill-opacity="0.5" stroke="#606060" stroke-width=".5" x="0" y="0" width="60" height="60"/>
  <use id="zoomplus" xlink:href="#zoomPlus" x="17" y="9" onmousedown="handleZoom(evt,'in')"/>
  <use id="zoomminus" xlink:href="#zoomMin" x="42" y="9" onmousedown="handleZoom(evt,'out')"/>
  <use id="reset" xlink:href="#resetDef" x="30" y="36" onmousedown="handleReset()"/>
   <use id="arrowup" xlink:href="#arrowUp" x="0" y="0" onmousedown="handlePan(0,-1)"/>
  <use id="arrowright" xlink:href="#arrowRight" x="0" y="0" onmousedown="handlePan(1,0)"/>
  <use id="arrowdown" xlink:href="#arrowDown" x="0" y="0" onmousedown="handlePan(0,1)"/>
  <use id="arrowleft" xlink:href="#arrowLeft" x="0" y="0" onmousedown="handlePan(-1,0)"/>
</g>
<svg viewBox="0 0 15 15" width="100%" height="30px" preserveAspectRatio="xMaxYMin meet">
 <g id="arrow_out" transform="scale(0.3 0.3)">
  <a xlink:href="dir_3a78d2a49017adf5955d070668dc8b2b_dep_org.svg" target="_base">
   <rect id="button" ry="5" rx="5" y="6" x="6" height="38" width="38"
        fill="#f2f5e9" fill-opacity="0.5" stroke="#606060" stroke-width="1.0"/>
   <path id="arrow"
     d="M 11.500037,31.436501 C 11.940474,20.09759 22.043105,11.32322 32.158766,21.979434 L 37.068811,17.246167 C 37.068811,17.246167 37.088388,32 37.088388,32 L 22.160133,31.978069 C 22.160133,31.978069 26.997745,27.140456 26.997745,27.140456 C 18.528582,18.264221 13.291696,25.230495 11.500037,31.436501 z"
     style="fill:#404040;"/>
  </a>
 </g>
</svg>

<style type='text/css'>
<![CDATA[
[data-mouse-over-selected='false'] { opacity: 0.7; }
[data-mouse-over-selected='true']  { opacity: 1.0; }
]]>
</style>
<script type="application/ecmascript"><![CDATA[
document.addEventListener('DOMContentLoaded', (event) => {
  highlightEdges();
  highlightAdjacentNodes();
});
]]></script>
</svg>
