<?xml version="1.0" encoding="UTF-8" standalone="no"?>
<!DOCTYPE svg PUBLIC "-//W3C//DTD SVG 1.1//EN"
 "http://www.w3.org/Graphics/SVG/1.1/DTD/svg11.dtd">
<!-- Generated by graphviz version 14.1.1 (20251213.1925)
 -->
<!-- Title: Graphical Class Hierarchy Pages: 1 -->
<svg width="433pt" height="215pt"
 viewBox="0.00 0.00 433.00 215.00" xmlns="http://www.w3.org/2000/svg" xmlns:xlink="http://www.w3.org/1999/xlink">
<g id="graph0" class="graph" transform="scale(1 1) rotate(0) translate(4 211)">
<title>Graphical Class Hierarchy</title>
<!-- Node0 -->
<g id="Node000000" class="node">
<title>Node0</title>
<g id="a_Node000000"><a xlink:title=" ">
<polygon fill="#e0e0e0" stroke="#999999" points="58,-76 0,-76 0,-56 58,-56 58,-76"/>
<text xml:space="preserve" text-anchor="middle" x="29" y="-62.5" font-family="Helvetica,sans-Serif" font-size="10.00">Controller</text>
</a>
</g>
</g>
<!-- Node1 -->
<g id="Node000001" class="node">
<title>Node1</title>
<g id="a_Node000001"><a xlink:href="classlab1__gr1_1_1_controllers_1_1_base_controller.html" target="_top" xlink:title="Klasa bazowa dla kontrolerów aplikacji. Zawiera wspólne metody pomocnicze związane z sesją użytkownik...">
<polygon fill="white" stroke="#666666" points="232.62,-132 104.12,-132 104.12,-100 232.62,-100 232.62,-132"/>
<text xml:space="preserve" text-anchor="start" x="112.12" y="-118.5" font-family="Helvetica,sans-Serif" font-size="10.00">lab1_gr1.Controllers.Base</text>
<text xml:space="preserve" text-anchor="middle" x="168.38" y="-106.5" font-family="Helvetica,sans-Serif" font-size="10.00">Controller</text>
</a>
</g>
</g>
<!-- Node0&#45;&gt;Node1 -->
<g id="edge1_Node000000_Node000001" class="edge">
<title>Node0&#45;&gt;Node1</title>
<g id="a_edge1_Node000000_Node000001"><a xlink:title=" ">
<path fill="none" stroke="#63b8ff" d="M66.57,-80.61C75.52,-84.09 85.08,-87.74 94,-91 101.84,-93.86 110.18,-96.81 118.33,-99.62"/>
<polygon fill="#63b8ff" stroke="#63b8ff" points="68.05,-77.43 57.47,-77.03 65.5,-83.94 68.05,-77.43"/>
</a>
</g>
</g>
<!-- Node6 -->
<g id="Node000006" class="node">
<title>Node6</title>
<g id="a_Node000006"><a xlink:href="classlab1__gr1_1_1_controllers_1_1_ingredient_controller.html" target="_top" xlink:title="Kontroler odpowiedzialny za zarządzanie składnikami. Udostępnia operacje CRUD: wyświetlanie,...">
<polygon fill="white" stroke="#666666" points="242.75,-82 94,-82 94,-50 242.75,-50 242.75,-82"/>
<text xml:space="preserve" text-anchor="start" x="102" y="-68.5" font-family="Helvetica,sans-Serif" font-size="10.00">lab1_gr1.Controllers.Ingredient</text>
<text xml:space="preserve" text-anchor="middle" x="168.38" y="-56.5" font-family="Helvetica,sans-Serif" font-size="10.00">Controller</text>
</a>
</g>
</g>
<!-- Node0&#45;&gt;Node6 -->
<g id="edge6_Node000000_Node000006" class="edge">
<title>Node0&#45;&gt;Node6</title>
<g id="a_edge6_Node000000_Node000006"><a xlink:title=" ">
<path fill="none" stroke="#63b8ff" d="M69.76,-66C77.3,-66 85.4,-66 93.59,-66"/>
<polygon fill="#63b8ff" stroke="#63b8ff" points="69.98,-62.5 59.98,-66 69.98,-69.5 69.98,-62.5"/>
</a>
</g>
</g>
<!-- Node7 -->
<g id="Node000007" class="node">
<title>Node7</title>
<g id="a_Node000007"><a xlink:href="classlab1__gr1_1_1_controllers_1_1_recipe_ingredient_controller.html" target="_top" xlink:title="Kontroler odpowiedzialny za zarządzanie relacją pomiędzy przepisami a składnikami....">
<polygon fill="white" stroke="#666666" points="236.75,-32 100,-32 100,0 236.75,0 236.75,-32"/>
<text xml:space="preserve" text-anchor="start" x="108" y="-18.5" font-family="Helvetica,sans-Serif" font-size="10.00">lab1_gr1.Controllers.Recipe</text>
<text xml:space="preserve" text-anchor="middle" x="168.38" y="-6.5" font-family="Helvetica,sans-Serif" font-size="10.00">IngredientController</text>
</a>
</g>
</g>
<!-- Node0&#45;&gt;Node7 -->
<g id="edge7_Node000000_Node000007" class="edge">
<title>Node0&#45;&gt;Node7</title>
<g id="a_edge7_Node000000_Node000007"><a xlink:title=" ">
<path fill="none" stroke="#63b8ff" d="M66.57,-51.39C75.52,-47.91 85.08,-44.26 94,-41 101.84,-38.14 110.18,-35.19 118.33,-32.38"/>
<polygon fill="#63b8ff" stroke="#63b8ff" points="65.5,-48.06 57.47,-54.97 68.05,-54.57 65.5,-48.06"/>
</a>
</g>
</g>
<!-- Node2 -->
<g id="Node000002" class="node">
<title>Node2</title>
<g id="a_Node000002"><a xlink:href="class_lista_zakupow_1_1_controllers_1_1_auth_controller.html" target="_top" xlink:title="Kontroler odpowiedzialny za uwierzytelnianie użytkowników. Obsługuje rejestrację, logowanie,...">
<polygon fill="white" stroke="#666666" points="416.62,-207 287.38,-207 287.38,-175 416.62,-175 416.62,-207"/>
<text xml:space="preserve" text-anchor="start" x="295.38" y="-193.5" font-family="Helvetica,sans-Serif" font-size="10.00">ListaZakupow.Controllers.</text>
<text xml:space="preserve" text-anchor="middle" x="352" y="-181.5" font-family="Helvetica,sans-Serif" font-size="10.00">AuthController</text>
</a>
</g>
</g>
<!-- Node1&#45;&gt;Node2 -->
<g id="edge2_Node000001_Node000002" class="edge">
<title>Node1&#45;&gt;Node2</title>
<g id="a_edge2_Node000001_Node000002"><a xlink:title=" ">
<path fill="none" stroke="#63b8ff" d="M213.27,-137.23C233.08,-146.51 256.9,-157.25 278.75,-166 286.02,-168.91 293.78,-171.81 301.41,-174.54"/>
<polygon fill="#63b8ff" stroke="#63b8ff" points="214.91,-134.13 204.38,-133.03 211.93,-140.46 214.91,-134.13"/>
</a>
</g>
</g>
<!-- Node3 -->
<g id="Node000003" class="node">
<title>Node3</title>
<g id="a_Node000003"><a xlink:href="classlab1__gr1_1_1_controllers_1_1_recipe_controller.html" target="_top" xlink:title="Kontroler odpowiedzialny za zarządzanie przepisami użytkowników. Umożliwia tworzenie,...">
<polygon fill="white" stroke="#666666" points="420.38,-157 283.62,-157 283.62,-125 420.38,-125 420.38,-157"/>
<text xml:space="preserve" text-anchor="start" x="291.62" y="-143.5" font-family="Helvetica,sans-Serif" font-size="10.00">lab1_gr1.Controllers.Recipe</text>
<text xml:space="preserve" text-anchor="middle" x="352" y="-131.5" font-family="Helvetica,sans-Serif" font-size="10.00">Controller</text>
</a>
</g>
</g>
<!-- Node1&#45;&gt;Node3 -->
<g id="edge3_Node000001_Node000003" class="edge">
<title>Node1&#45;&gt;Node3</title>
<g id="a_edge3_Node000001_Node000003"><a xlink:title=" ">
<path fill="none" stroke="#63b8ff" d="M244.12,-126.29C257.06,-128.07 270.45,-129.91 283.19,-131.67"/>
<polygon fill="#63b8ff" stroke="#63b8ff" points="244.78,-122.85 234.4,-124.95 243.83,-129.78 244.78,-122.85"/>
</a>
</g>
</g>
<!-- Node4 -->
<g id="Node000004" class="node">
<title>Node4</title>
<g id="a_Node000004"><a xlink:href="classlab1__gr1_1_1_controllers_1_1_recipe_schedule_controller.html" target="_top" xlink:title="Kontroler odpowiedzialny za zarządzanie harmonogramem przepisów użytkownika w ujęciu tygodniowym.">
<polygon fill="white" stroke="#666666" points="420.38,-107 283.62,-107 283.62,-75 420.38,-75 420.38,-107"/>
<text xml:space="preserve" text-anchor="start" x="291.62" y="-93.5" font-family="Helvetica,sans-Serif" font-size="10.00">lab1_gr1.Controllers.Recipe</text>
<text xml:space="preserve" text-anchor="middle" x="352" y="-81.5" font-family="Helvetica,sans-Serif" font-size="10.00">ScheduleController</text>
</a>
</g>
</g>
<!-- Node1&#45;&gt;Node4 -->
<g id="edge4_Node000001_Node000004" class="edge">
<title>Node1&#45;&gt;Node4</title>
<g id="a_edge4_Node000001_Node000004"><a xlink:title=" ">
<path fill="none" stroke="#63b8ff" d="M244.12,-105.71C257.06,-103.93 270.45,-102.09 283.19,-100.33"/>
<polygon fill="#63b8ff" stroke="#63b8ff" points="243.83,-102.22 234.4,-107.05 244.78,-109.15 243.83,-102.22"/>
</a>
</g>
</g>
<!-- Node5 -->
<g id="Node000005" class="node">
<title>Node5</title>
<g id="a_Node000005"><a xlink:href="classlab1__gr1_1_1_controllers_1_1_shopping_list_controller.html" target="_top" xlink:title="Kontroler odpowiedzialny za zarządzanie listami zakupów użytkownika. Umożliwia tworzenie,...">
<polygon fill="white" stroke="#666666" points="425.25,-57 278.75,-57 278.75,-25 425.25,-25 425.25,-57"/>
<text xml:space="preserve" text-anchor="start" x="286.75" y="-43.5" font-family="Helvetica,sans-Serif" font-size="10.00">lab1_gr1.Controllers.Shopping</text>
<text xml:space="preserve" text-anchor="middle" x="352" y="-31.5" font-family="Helvetica,sans-Serif" font-size="10.00">ListController</text>
</a>
</g>
</g>
<!-- Node1&#45;&gt;Node5 -->
<g id="edge5_Node000001_Node000005" class="edge">
<title>Node1&#45;&gt;Node5</title>
<g id="a_edge5_Node000001_Node000005"><a xlink:title=" ">
<path fill="none" stroke="#63b8ff" d="M233.87,-95.19C236.9,-93.85 239.88,-92.45 242.75,-91 260.14,-82.22 261.38,-74.82 278.75,-66 284.9,-62.87 291.54,-59.99 298.2,-57.37"/>
<polygon fill="#63b8ff" stroke="#63b8ff" points="232.68,-91.89 224.79,-98.95 235.36,-98.36 232.68,-91.89"/>
</a>
</g>
</g>
</g>
</svg>
