<?xml version="1.0" encoding="UTF-8" standalone="no"?>
<!DOCTYPE svg PUBLIC "-//W3C//DTD SVG 1.1//EN"
 "http://www.w3.org/Graphics/SVG/1.1/DTD/svg11.dtd">
<!-- Generated by graphviz version 14.1.1 (20251213.1925)
 -->
<!-- Title: lab1_gr1.Interfaces.IRecipeIngredientService Pages: 1 -->
<!--zoomable 456 -->

<svg id="main" version="1.1" xmlns="http://www.w3.org/2000/svg" xmlns:xlink="http://www.w3.org/1999/xlink" xml:space="preserve" onload="init(evt)">
<style type="text/css"><![CDATA[
.node, .edge {opacity: 0.7;}
.node.selected, .edge.selected {opacity: 1;}
.edge:hover path { stroke: red; }
.edge:hover polygon { stroke: red; fill: red; }
]]></style>

<defs>
  <circle id="rim" cx="0" cy="0" r="7"/>
  <circle id="rim2" cx="0" cy="0" r="3.5"/>
  <g id="zoomPlus">
    <use xlink:href="#rim" fill="#404040"><set attributeName="fill" to="#808080" begin="zoomplus.mouseover" end="zoomplus.mouseout"/></use>
    <path d="M-4,0h8M0,-4v8" fill="none" stroke="white" stroke-width="1.5" pointer-events="none"/>
  </g>
  <g id="zoomMin">
    <use xlink:href="#rim" fill="#404040"><set attributeName="fill" to="#808080" begin="zoomminus.mouseover" end="zoomminus.mouseout"/></use>
    <path d="M-4,0h8" fill="none" stroke="white" stroke-width="1.5" pointer-events="none"/>
  </g>
  <g id="arrowUp" transform="translate(30 24)">
    <use xlink:href="#rim"/>
    <path pointer-events="none" fill="none" stroke="white" stroke-width="1.5" d="M0,-3.0v7 M-2.5,-0.5L0,-3.0L2.5,-0.5"/>
  </g>
  <g id="arrowRight" transform="rotate(90) translate(36 -43)">
    <use xlink:href="#rim"/>
    <path pointer-events="none" fill="none" stroke="white" stroke-width="1.5" d="M0,-3.0v7 M-2.5,-0.5L0,-3.0L2.5,-0.5"/>
  </g>
  <g id="arrowDown" transform="rotate(180) translate(-30 -48)">
    <use xlink:href="#rim"/>
    <path pointer-events="none" fill="none" stroke="white" stroke-width="1.5" d="M0,-3.0v7 M-2.5,-0.5L0,-3.0L2.5,-0.5"/>
  </g>
  <g id="arrowLeft" transform="rotate(270) translate(-36 17)">
    <use xlink:href="#rim"/>
    <path pointer-events="none" fill="none" stroke="white" stroke-width="1.5" d="M0,-3.0v7 M-2.5,-0.5L0,-3.0L2.5,-0.5"/>
  </g>
  <g id="resetDef">
    <use xlink:href="#rim2" fill="#404040"><set attributeName="fill" to="#808080" begin="reset.mouseover" end="reset.mouseout"/></use>
  </g>
</defs>
<script type="application/ecmascript">
var viewWidth = 184;
var viewHeight = 456;
var sectionId = 'dynsection-0';
</script>
<script type="application/ecmascript" xlink:href="svg.min.js"/>
<svg id="graph" class="graph">
<g id="viewport">
<title>lab1_gr1.Interfaces.IRecipeIngredientService</title>
<!-- Node1 -->
<g id="Node000001" class="node">
<title>Node1</title>
<g id="a_Node000001"><a xlink:title="Interfejs definiujący metody serwisu obsługującego relację między przepisami a składnikami (wiele&#45;do&#45;...">
<polygon fill="#999999" stroke="none" points="175.5,-448 0,-448 0,-268 175.5,-268 175.5,-448"/>
<text xml:space="preserve" text-anchor="start" x="27.75" y="-434.5" font-family="Helvetica,sans-Serif" font-size="10.00">lab1_gr1.Interfaces.IRecipe</text>
<text xml:space="preserve" text-anchor="start" x="49.88" y="-422.5" font-family="Helvetica,sans-Serif" font-size="10.00">IngredientService</text>
<text xml:space="preserve" text-anchor="start" x="86.25" y="-406.5" font-family="Helvetica,sans-Serif" font-size="10.00"> </text>
<text xml:space="preserve" text-anchor="start" x="4" y="-390.5" font-family="Helvetica,sans-Serif" font-size="10.00">+</text>
<text xml:space="preserve" text-anchor="start" x="14" y="-390.5" font-family="Helvetica,sans-Serif" font-size="10.00">Task&lt; IEnumerable&lt;</text>
<text xml:space="preserve" text-anchor="start" x="14" y="-378.5" font-family="Helvetica,sans-Serif" font-size="10.00"> CreateRecipeIngredientVM</text>
<text xml:space="preserve" text-anchor="start" x="14" y="-366.5" font-family="Helvetica,sans-Serif" font-size="10.00"> &gt; &gt; GetIngredientsForRecipeAsync</text>
<text xml:space="preserve" text-anchor="start" x="14" y="-354.5" font-family="Helvetica,sans-Serif" font-size="10.00">(int recipeId)</text>
<text xml:space="preserve" text-anchor="start" x="4" y="-338.5" font-family="Helvetica,sans-Serif" font-size="10.00">+</text>
<text xml:space="preserve" text-anchor="start" x="14" y="-338.5" font-family="Helvetica,sans-Serif" font-size="10.00">Task AddIngredientToRecipe</text>
<text xml:space="preserve" text-anchor="start" x="14" y="-326.5" font-family="Helvetica,sans-Serif" font-size="10.00">Async(int recipeId, int</text>
<text xml:space="preserve" text-anchor="start" x="14" y="-314.5" font-family="Helvetica,sans-Serif" font-size="10.00"> ingredientId, string quantity)</text>
<text xml:space="preserve" text-anchor="start" x="4" y="-298.5" font-family="Helvetica,sans-Serif" font-size="10.00">+</text>
<text xml:space="preserve" text-anchor="start" x="14" y="-298.5" font-family="Helvetica,sans-Serif" font-size="10.00">Task RemoveIngredientFrom</text>
<text xml:space="preserve" text-anchor="start" x="14" y="-286.5" font-family="Helvetica,sans-Serif" font-size="10.00">RecipeAsync(int recipeId,</text>
<text xml:space="preserve" text-anchor="start" x="14" y="-274.5" font-family="Helvetica,sans-Serif" font-size="10.00"> int ingredientId)</text>
<polygon fill="#666666" stroke="#666666" points="0,-418 0,-418 175.5,-418 175.5,-418 0,-418"/>
<polygon fill="#666666" stroke="#666666" points="0,-402 0,-402 175.5,-402 175.5,-402 0,-402"/>
<polygon fill="none" stroke="#666666" points="0,-268 0,-448 175.5,-448 175.5,-268 0,-268"/>
</a>
</g>
</g>
<!-- Node2 -->
<g id="Node000002" class="node">
<title>Node2</title>
<g id="a_Node000002"><a xlink:href="classlab1__gr1_1_1_services_1_1_recipe_ingredient_service.html" target="_top" xlink:title="Serwis odpowiedzialny za zarządzanie składnikami przypisanymi do przepisów. Umożliwia pobieranie,...">
<polygon fill="white" stroke="none" points="175.5,-232 0,-232 0,0 175.5,0 175.5,-232"/>
<text xml:space="preserve" text-anchor="start" x="31.88" y="-218.5" font-family="Helvetica,sans-Serif" font-size="10.00">lab1_gr1.Services.Recipe</text>
<text xml:space="preserve" text-anchor="start" x="49.88" y="-206.5" font-family="Helvetica,sans-Serif" font-size="10.00">IngredientService</text>
<text xml:space="preserve" text-anchor="start" x="86.25" y="-190.5" font-family="Helvetica,sans-Serif" font-size="10.00"> </text>
<text xml:space="preserve" text-anchor="start" x="4" y="-174.5" font-family="Helvetica,sans-Serif" font-size="10.00">+</text>
<text xml:space="preserve" text-anchor="start" x="14" y="-174.5" font-family="Helvetica,sans-Serif" font-size="10.00">RecipeIngredientService</text>
<text xml:space="preserve" text-anchor="start" x="14" y="-162.5" font-family="Helvetica,sans-Serif" font-size="10.00">(MyDBContext dbContext,</text>
<text xml:space="preserve" text-anchor="start" x="14" y="-150.5" font-family="Helvetica,sans-Serif" font-size="10.00"> IMapper mapper)</text>
<text xml:space="preserve" text-anchor="start" x="4" y="-134.5" font-family="Helvetica,sans-Serif" font-size="10.00">+</text>
<text xml:space="preserve" text-anchor="start" x="14" y="-134.5" font-family="Helvetica,sans-Serif" font-size="10.00">async Task&lt; IEnumerable</text>
<text xml:space="preserve" text-anchor="start" x="14" y="-122.5" font-family="Helvetica,sans-Serif" font-size="10.00">&lt; CreateRecipeIngredientVM</text>
<text xml:space="preserve" text-anchor="start" x="14" y="-110.5" font-family="Helvetica,sans-Serif" font-size="10.00"> &gt; &gt; GetIngredientsForRecipeAsync</text>
<text xml:space="preserve" text-anchor="start" x="14" y="-98.5" font-family="Helvetica,sans-Serif" font-size="10.00">(int recipeId)</text>
<text xml:space="preserve" text-anchor="start" x="4" y="-82.5" font-family="Helvetica,sans-Serif" font-size="10.00">+</text>
<text xml:space="preserve" text-anchor="start" x="14" y="-82.5" font-family="Helvetica,sans-Serif" font-size="10.00">async Task AddIngredient</text>
<text xml:space="preserve" text-anchor="start" x="14" y="-70.5" font-family="Helvetica,sans-Serif" font-size="10.00">ToRecipeAsync(int recipeId,</text>
<text xml:space="preserve" text-anchor="start" x="14" y="-58.5" font-family="Helvetica,sans-Serif" font-size="10.00"> int ingredientId, string</text>
<text xml:space="preserve" text-anchor="start" x="14" y="-46.5" font-family="Helvetica,sans-Serif" font-size="10.00"> quantity)</text>
<text xml:space="preserve" text-anchor="start" x="4" y="-30.5" font-family="Helvetica,sans-Serif" font-size="10.00">+</text>
<text xml:space="preserve" text-anchor="start" x="14" y="-30.5" font-family="Helvetica,sans-Serif" font-size="10.00">async Task RemoveIngredient</text>
<text xml:space="preserve" text-anchor="start" x="14" y="-18.5" font-family="Helvetica,sans-Serif" font-size="10.00">FromRecipeAsync(int recipeId,</text>
<text xml:space="preserve" text-anchor="start" x="14" y="-6.5" font-family="Helvetica,sans-Serif" font-size="10.00"> int ingredientId)</text>
<polygon fill="#666666" stroke="#666666" points="0,-202 0,-202 175.5,-202 175.5,-202 0,-202"/>
<polygon fill="#666666" stroke="#666666" points="0,-186 0,-186 175.5,-186 175.5,-186 0,-186"/>
<polygon fill="none" stroke="#666666" points="0,0 0,-232 175.5,-232 175.5,0 0,0"/>
</a>
</g>
</g>
<!-- Node1&#45;&gt;Node2 -->
<g id="edge1_Node000001_Node000002" class="edge">
<title>Node1&#45;&gt;Node2</title>
<g id="a_edge1_Node000001_Node000002"><a xlink:title=" ">
<path fill="none" stroke="#63b8ff" d="M87.75,-257.06C87.75,-248.73 87.75,-240.28 87.75,-231.85"/>
<polygon fill="none" stroke="#63b8ff" points="84.25,-256.8 87.75,-266.8 91.25,-256.8 84.25,-256.8"/>
</a>
</g>
</g>
</g>
</svg>

<g id="navigator" transform="translate(0 0)" fill="#404254">
  <rect fill="#f2f5e9" fill-opacity="0.5" stroke="#606060" stroke-width=".5" x="0" y="0" width="60" height="60"/>
  <use id="zoomplus" xlink:href="#zoomPlus" x="17" y="9" onmousedown="handleZoom(evt,'in')"/>
  <use id="zoomminus" xlink:href="#zoomMin" x="42" y="9" onmousedown="handleZoom(evt,'out')"/>
  <use id="reset" xlink:href="#resetDef" x="30" y="36" onmousedown="handleReset()"/>
   <use id="arrowup" xlink:href="#arrowUp" x="0" y="0" onmousedown="handlePan(0,-1)"/>
  <use id="arrowright" xlink:href="#arrowRight" x="0" y="0" onmousedown="handlePan(1,0)"/>
  <use id="arrowdown" xlink:href="#arrowDown" x="0" y="0" onmousedown="handlePan(0,1)"/>
  <use id="arrowleft" xlink:href="#arrowLeft" x="0" y="0" onmousedown="handlePan(-1,0)"/>
</g>
<svg viewBox="0 0 15 15" width="100%" height="30px" preserveAspectRatio="xMaxYMin meet">
 <g id="arrow_out" transform="scale(0.3 0.3)">
  <a xlink:href="interfacelab1__gr1_1_1_interfaces_1_1_i_recipe_ingredient_service__inherit__graph_org.svg" target="_base">
   <rect id="button" ry="5" rx="5" y="6" x="6" height="38" width="38"
        fill="#f2f5e9" fill-opacity="0.5" stroke="#606060" stroke-width="1.0"/>
   <path id="arrow"
     d="M 11.500037,31.436501 C 11.940474,20.09759 22.043105,11.32322 32.158766,21.979434 L 37.068811,17.246167 C 37.068811,17.246167 37.088388,32 37.088388,32 L 22.160133,31.978069 C 22.160133,31.978069 26.997745,27.140456 26.997745,27.140456 C 18.528582,18.264221 13.291696,25.230495 11.500037,31.436501 z"
     style="fill:#404040;"/>
  </a>
 </g>
</svg>

<style type='text/css'>
<![CDATA[
[data-mouse-over-selected='false'] { opacity: 0.7; }
[data-mouse-over-selected='true']  { opacity: 1.0; }
]]>
</style>
<script type="application/ecmascript"><![CDATA[
document.addEventListener('DOMContentLoaded', (event) => {
  highlightEdges();
  highlightAdjacentNodes();
});
]]></script>
</svg>
